<?xml version="1.0" encoding="UTF-8" standalone="no"?>
<!DOCTYPE svg PUBLIC "-//W3C//DTD SVG 1.1//EN"
 "http://www.w3.org/Graphics/SVG/1.1/DTD/svg11.dtd">
<!-- Generated by graphviz version 2.43.0 (0)
 -->
<!-- Title: G Pages: 1 -->
<svg width="580pt" height="2528pt"
 viewBox="0.00 0.00 580.00 2528.39" xmlns="http://www.w3.org/2000/svg" xmlns:xlink="http://www.w3.org/1999/xlink">
<g id="graph0" class="graph" transform="scale(1 1) rotate(0) translate(4 2524.39)">
<title>G</title>
<polygon fill="white" stroke="transparent" points="-4,4 -4,-2524.39 576,-2524.39 576,4 -4,4"/>
<g id="clust1" class="cluster">
<title>cluster_level_0</title>
<polygon fill="none" stroke="#999999" stroke-dasharray="5,2" points="120,-2396.48 120,-2512.39 515,-2512.39 515,-2396.48 120,-2396.48"/>
<text text-anchor="middle" x="317.5" y="-2497.19" font-family="Helvetica,sans-Serif" font-size="14.00" fill="#999999">level 0</text>
</g>
<g id="clust2" class="cluster">
<title>cluster_level_1</title>
<polygon fill="none" stroke="#999999" stroke-dasharray="5,2" points="166,-2302.48 166,-2377.48 236,-2377.48 236,-2302.48 166,-2302.48"/>
<text text-anchor="middle" x="201" y="-2362.28" font-family="Helvetica,sans-Serif" font-size="14.00" fill="#999999">level 1</text>
</g>
<g id="clust3" class="cluster">
<title>cluster_level_2</title>
<polygon fill="none" stroke="#999999" stroke-dasharray="5,2" points="151,-2208.48 151,-2283.48 251,-2283.48 251,-2208.48 151,-2208.48"/>
<text text-anchor="middle" x="201" y="-2268.28" font-family="Helvetica,sans-Serif" font-size="14.00" fill="#999999">level 2</text>
</g>
<g id="clust4" class="cluster">
<title>cluster_level_3</title>
<polygon fill="none" stroke="#999999" stroke-dasharray="5,2" points="62,-2114.48 62,-2189.48 264,-2189.48 264,-2114.48 62,-2114.48"/>
<text text-anchor="middle" x="163" y="-2174.28" font-family="Helvetica,sans-Serif" font-size="14.00" fill="#999999">level 3</text>
</g>
<g id="clust5" class="cluster">
<title>cluster_level_4</title>
<polygon fill="none" stroke="#999999" stroke-dasharray="5,2" points="117,-2020.48 117,-2095.48 215,-2095.48 215,-2020.48 117,-2020.48"/>
<text text-anchor="middle" x="166" y="-2080.28" font-family="Helvetica,sans-Serif" font-size="14.00" fill="#999999">level 4</text>
</g>
<g id="clust6" class="cluster">
<title>cluster_level_5</title>
<polygon fill="none" stroke="#999999" stroke-dasharray="5,2" points="70,-1926.48 70,-2001.48 170,-2001.48 170,-1926.48 70,-1926.48"/>
<text text-anchor="middle" x="120" y="-1986.28" font-family="Helvetica,sans-Serif" font-size="14.00" fill="#999999">level 5</text>
</g>
<g id="clust7" class="cluster">
<title>cluster_level_6</title>
<polygon fill="none" stroke="#999999" stroke-dasharray="5,2" points="105,-1823.98 105,-1907.48 167,-1907.48 167,-1823.98 105,-1823.98"/>
<text text-anchor="middle" x="136" y="-1892.28" font-family="Helvetica,sans-Serif" font-size="14.00" fill="#999999">level 6</text>
</g>
<g id="clust8" class="cluster">
<title>cluster_level_7</title>
<polygon fill="none" stroke="#999999" stroke-dasharray="5,2" points="97,-1729.98 97,-1804.98 175,-1804.98 175,-1729.98 97,-1729.98"/>
<text text-anchor="middle" x="136" y="-1789.78" font-family="Helvetica,sans-Serif" font-size="14.00" fill="#999999">level 7</text>
</g>
<g id="clust9" class="cluster">
<title>cluster_level_8</title>
<polygon fill="none" stroke="#999999" stroke-dasharray="5,2" points="8,-1583.98 8,-1710.98 264,-1710.98 264,-1583.98 8,-1583.98"/>
<text text-anchor="middle" x="136" y="-1695.78" font-family="Helvetica,sans-Serif" font-size="14.00" fill="#999999">level 8</text>
</g>
<g id="clust10" class="cluster">
<title>cluster_level_9</title>
<polygon fill="none" stroke="#999999" stroke-dasharray="5,2" points="77,-1489.98 77,-1564.98 195,-1564.98 195,-1489.98 77,-1489.98"/>
<text text-anchor="middle" x="136" y="-1549.78" font-family="Helvetica,sans-Serif" font-size="14.00" fill="#999999">level 9</text>
</g>
<g id="clust11" class="cluster">
<title>cluster_level_10</title>
<polygon fill="none" stroke="#999999" stroke-dasharray="5,2" points="41,-1310.98 41,-1461.98 231,-1461.98 231,-1310.98 41,-1310.98"/>
<text text-anchor="middle" x="136" y="-1446.78" font-family="Helvetica,sans-Serif" font-size="14.00" fill="#999999">level 10</text>
</g>
<g id="clust12" class="cluster">
<title>cluster_level_11</title>
<polygon fill="none" stroke="#999999" stroke-dasharray="5,2" points="41,-1164.98 41,-1291.98 231,-1291.98 231,-1164.98 41,-1164.98"/>
<text text-anchor="middle" x="136" y="-1276.78" font-family="Helvetica,sans-Serif" font-size="14.00" fill="#999999">level 11</text>
</g>
<g id="clust13" class="cluster">
<title>cluster_level_12</title>
<polygon fill="none" stroke="#999999" stroke-dasharray="5,2" points="77,-1070.98 77,-1145.98 195,-1145.98 195,-1070.98 77,-1070.98"/>
<text text-anchor="middle" x="136" y="-1130.78" font-family="Helvetica,sans-Serif" font-size="14.00" fill="#999999">level 12</text>
</g>
<g id="clust14" class="cluster">
<title>cluster_level_13</title>
<polygon fill="none" stroke="#999999" stroke-dasharray="5,2" points="86,-968.98 86,-1051.98 186,-1051.98 186,-968.98 86,-968.98"/>
<text text-anchor="middle" x="136" y="-1036.78" font-family="Helvetica,sans-Serif" font-size="14.00" fill="#999999">level 13</text>
</g>
<g id="clust15" class="cluster">
<title>cluster_level_14</title>
<polygon fill="none" stroke="#999999" stroke-dasharray="5,2" points="33,-874.98 33,-949.98 351,-949.98 351,-874.98 33,-874.98"/>
<text text-anchor="middle" x="192" y="-934.78" font-family="Helvetica,sans-Serif" font-size="14.00" fill="#999999">level 14</text>
</g>
<g id="clust16" class="cluster">
<title>cluster_level_15</title>
<polygon fill="none" stroke="#999999" stroke-dasharray="5,2" points="123,-700.94 123,-846.98 247,-846.98 247,-700.94 123,-700.94"/>
<text text-anchor="middle" x="185" y="-831.78" font-family="Helvetica,sans-Serif" font-size="14.00" fill="#999999">level 15</text>
</g>
<g id="clust17" class="cluster">
<title>cluster_level_16</title>
<polygon fill="none" stroke="#999999" stroke-dasharray="5,2" points="68,-441.94 68,-681.94 304,-681.94 304,-441.94 68,-441.94"/>
<text text-anchor="middle" x="186" y="-666.74" font-family="Helvetica,sans-Serif" font-size="14.00" fill="#999999">level 16</text>
</g>
<g id="clust18" class="cluster">
<title>cluster_switch_19</title>
<polygon fill="#fef9e7" stroke="#f5cba7" points="76,-449.94 76,-650.94 296,-650.94 296,-449.94 76,-449.94"/>
<text text-anchor="middle" x="186" y="-638.94" font-family="Helvetica,sans-Serif" font-size="10.00" fill="#999999">Switch</text>
</g>
<g id="clust19" class="cluster">
<title>cluster_level_17</title>
<polygon fill="none" stroke="#999999" stroke-dasharray="5,2" points="289,-349.94 289,-424.94 377,-424.94 377,-349.94 289,-349.94"/>
<text text-anchor="middle" x="333" y="-409.74" font-family="Helvetica,sans-Serif" font-size="14.00" fill="#999999">level 17</text>
</g>
<g id="clust20" class="cluster">
<title>cluster_level_18</title>
<polygon fill="none" stroke="#999999" stroke-dasharray="5,2" points="271,-235.94 271,-330.94 395,-330.94 395,-235.94 271,-235.94"/>
<text text-anchor="middle" x="333" y="-315.74" font-family="Helvetica,sans-Serif" font-size="14.00" fill="#999999">level 18</text>
</g>
<g id="clust21" class="cluster">
<title>cluster_level_19</title>
<polygon fill="none" stroke="#999999" stroke-dasharray="5,2" points="271,-121.94 271,-216.94 395,-216.94 395,-121.94 271,-121.94"/>
<text text-anchor="middle" x="333" y="-201.74" font-family="Helvetica,sans-Serif" font-size="14.00" fill="#999999">level 19</text>
</g>
<g id="clust22" class="cluster">
<title>cluster_level_20</title>
<polygon fill="none" stroke="#999999" stroke-dasharray="5,2" points="252,-8 252,-102.94 414,-102.94 414,-8 252,-8"/>
<text text-anchor="middle" x="333" y="-87.74" font-family="Helvetica,sans-Serif" font-size="14.00" fill="#999999">level 20</text>
</g>
<!-- state_read_memory_21 -->
<g id="node1" class="node">
<title>state_read_memory_21</title>
<polygon fill="#f9e79f" stroke="black" points="400,-2460.93 292.69,-2442.93 400,-2424.93 507.31,-2442.93 400,-2460.93"/>
<text text-anchor="middle" x="400" y="-2440.13" font-family="Helvetica,sans-Serif" font-size="11.00">state_read_memory</text>
</g>
<!-- stateAdd_20 -->
<g id="node25" class="node">
<title>stateAdd_20</title>
<polygon fill="#eaecee" stroke="black" points="368.5,-393.94 297.5,-393.94 297.5,-357.94 368.5,-357.94 368.5,-393.94"/>
<text text-anchor="middle" x="333" y="-379.14" font-family="Helvetica,sans-Serif" font-size="11.00">stateAdd</text>
<text text-anchor="middle" x="333" y="-367.14" font-family="Helvetica,sans-Serif" font-size="11.00">#memory</text>
</g>
<!-- state_read_memory_21&#45;&gt;stateAdd_20 -->
<g id="edge31" class="edge">
<title>state_read_memory_21&#45;&gt;stateAdd_20</title>
<path fill="none" stroke="#2980b9" stroke-dasharray="5,2" d="M393.6,-2425.83C385.62,-2404.26 373,-2364.61 373,-2329.48 373,-2329.48 373,-2329.48 373,-462.44 373,-440.87 362.43,-418.88 352.15,-402.6"/>
<polygon fill="#2980b9" stroke="#2980b9" points="355,-400.56 346.54,-394.18 349.18,-404.44 355,-400.56"/>
<text text-anchor="middle" x="392" y="-1472.78" font-family="Helvetica,sans-Serif" font-size="9.00" fill="#2980b9">memory</text>
</g>
<!-- Linear_0 -->
<g id="node2" class="node">
<title>Linear_0</title>
<polygon fill="#aed6f1" stroke="black" points="127.66,-2431.06 201,-2404.52 274.34,-2431.06 274.27,-2474.01 127.73,-2474.01 127.66,-2431.06"/>
<text text-anchor="middle" x="201" y="-2452.13" font-family="Helvetica,sans-Serif" font-size="11.00">Linear</text>
<text text-anchor="middle" x="201" y="-2440.13" font-family="Helvetica,sans-Serif" font-size="11.00">[24 params]</text>
<text text-anchor="middle" x="201" y="-2428.13" font-family="Helvetica,sans-Serif" font-size="11.00">#input</text>
</g>
<!-- GELU_1 -->
<g id="node3" class="node">
<title>GELU_1</title>
<ellipse fill="#fdebd0" stroke="black" cx="201" cy="-2328.48" rx="27.12" ry="18"/>
<text text-anchor="middle" x="201" y="-2325.68" font-family="Helvetica,sans-Serif" font-size="11.00">GELU</text>
</g>
<!-- Linear_0&#45;&gt;GELU_1 -->
<g id="edge5" class="edge">
<title>Linear_0&#45;&gt;GELU_1</title>
<path fill="none" stroke="#2c3e50" d="M201,-2404.49C201,-2388.91 201,-2371.15 201,-2356.83"/>
<polygon fill="#2c3e50" stroke="#2c3e50" points="204.5,-2356.64 201,-2346.64 197.5,-2356.64 204.5,-2356.64"/>
</g>
<!-- softmaxRouter_15 -->
<g id="node18" class="node">
<title>softmaxRouter_15</title>
<polygon fill="#eaecee" stroke="black" points="343,-918.98 245,-918.98 245,-882.98 343,-882.98 343,-918.98"/>
<text text-anchor="middle" x="294" y="-904.18" font-family="Helvetica,sans-Serif" font-size="11.00">softmaxRouter</text>
<text text-anchor="middle" x="294" y="-892.18" font-family="Helvetica,sans-Serif" font-size="11.00">[18 params]</text>
</g>
<!-- Linear_0&#45;&gt;softmaxRouter_15 -->
<g id="edge27" class="edge">
<title>Linear_0&#45;&gt;softmaxRouter_15</title>
<path fill="none" stroke="#2980b9" stroke-dasharray="5,2" d="M237.09,-2417.29C262.13,-2397 291,-2365.73 291,-2329.48 291,-2329.48 291,-2329.48 291,-997.98 291,-974.87 291.88,-948.65 292.69,-929.46"/>
<polygon fill="#2980b9" stroke="#2980b9" points="296.19,-929.46 293.13,-919.31 289.2,-929.15 296.19,-929.46"/>
<text text-anchor="middle" x="303.5" y="-1753.78" font-family="Helvetica,sans-Serif" font-size="9.00" fill="#2980b9">input</text>
</g>
<!-- LayerNorm_2 -->
<g id="node4" class="node">
<title>LayerNorm_2</title>
<polygon fill="#d5f5e3" stroke="black" points="243,-2252.48 159,-2252.48 159,-2216.48 243,-2216.48 243,-2252.48"/>
<text text-anchor="middle" x="201" y="-2237.68" font-family="Helvetica,sans-Serif" font-size="11.00">LayerNorm</text>
<text text-anchor="middle" x="201" y="-2225.68" font-family="Helvetica,sans-Serif" font-size="11.00">[16 params]</text>
</g>
<!-- GELU_1&#45;&gt;LayerNorm_2 -->
<g id="edge6" class="edge">
<title>GELU_1&#45;&gt;LayerNorm_2</title>
<path fill="none" stroke="#2c3e50" d="M201,-2310.17C201,-2296.94 201,-2278.42 201,-2263.14"/>
<polygon fill="#2c3e50" stroke="#2c3e50" points="204.5,-2262.7 201,-2252.7 197.5,-2262.7 204.5,-2262.7"/>
</g>
<!-- Graph_3 -->
<g id="node5" class="node">
<title>Graph_3</title>
<polygon fill="#d6eaf8" stroke="black" points="154,-2158.48 70,-2158.48 70,-2122.48 154,-2122.48 154,-2158.48"/>
<text text-anchor="middle" x="112" y="-2143.68" font-family="Helvetica,sans-Serif" font-size="11.00">Graph (sub)</text>
<text text-anchor="middle" x="112" y="-2131.68" font-family="Helvetica,sans-Serif" font-size="11.00">[88 params]</text>
</g>
<!-- LayerNorm_2&#45;&gt;Graph_3 -->
<g id="edge7" class="edge">
<title>LayerNorm_2&#45;&gt;Graph_3</title>
<path fill="none" stroke="#2c3e50" d="M184.26,-2216.17C170.59,-2202.04 151.09,-2181.88 135.79,-2166.07"/>
<polygon fill="#2c3e50" stroke="#2c3e50" points="138.13,-2163.46 128.67,-2158.7 133.1,-2168.32 138.13,-2163.46"/>
</g>
<!-- Graph_4 -->
<g id="node6" class="node">
<title>Graph_4</title>
<polygon fill="#d6eaf8" stroke="black" points="256,-2158.48 172,-2158.48 172,-2122.48 256,-2122.48 256,-2158.48"/>
<text text-anchor="middle" x="214" y="-2143.68" font-family="Helvetica,sans-Serif" font-size="11.00">Graph (sub)</text>
<text text-anchor="middle" x="214" y="-2131.68" font-family="Helvetica,sans-Serif" font-size="11.00">[88 params]</text>
</g>
<!-- LayerNorm_2&#45;&gt;Graph_4 -->
<g id="edge8" class="edge">
<title>LayerNorm_2&#45;&gt;Graph_4</title>
<path fill="none" stroke="#2c3e50" d="M203.45,-2216.17C205.33,-2202.81 207.98,-2184.06 210.15,-2168.69"/>
<polygon fill="#2c3e50" stroke="#2c3e50" points="213.63,-2169.09 211.57,-2158.7 206.7,-2168.11 213.63,-2169.09"/>
</g>
<!-- meanMerge_5 -->
<g id="node7" class="node">
<title>meanMerge_5</title>
<polygon fill="#eaecee" stroke="black" points="207,-2064.48 125,-2064.48 125,-2028.48 207,-2028.48 207,-2064.48"/>
<text text-anchor="middle" x="166" y="-2043.68" font-family="Helvetica,sans-Serif" font-size="11.00">meanMerge</text>
</g>
<!-- Graph_3&#45;&gt;meanMerge_5 -->
<g id="edge9" class="edge">
<title>Graph_3&#45;&gt;meanMerge_5</title>
<path fill="none" stroke="#2c3e50" d="M122.16,-2122.17C130.23,-2108.42 141.64,-2088.98 150.8,-2073.37"/>
<polygon fill="#2c3e50" stroke="#2c3e50" points="153.84,-2075.1 155.89,-2064.7 147.81,-2071.55 153.84,-2075.1"/>
</g>
<!-- Graph_4&#45;&gt;meanMerge_5 -->
<g id="edge10" class="edge">
<title>Graph_4&#45;&gt;meanMerge_5</title>
<path fill="none" stroke="#2c3e50" d="M204.97,-2122.17C197.86,-2108.55 187.84,-2089.34 179.74,-2073.81"/>
<polygon fill="#2c3e50" stroke="#2c3e50" points="182.72,-2071.95 174.99,-2064.7 176.51,-2075.19 182.72,-2071.95"/>
</g>
<!-- Linear_6 -->
<g id="node8" class="node">
<title>Linear_6</title>
<polygon fill="#eaecee" stroke="black" points="162,-1970.48 78,-1970.48 78,-1934.48 162,-1934.48 162,-1970.48"/>
<text text-anchor="middle" x="120" y="-1955.68" font-family="Helvetica,sans-Serif" font-size="11.00">Linear</text>
<text text-anchor="middle" x="120" y="-1943.68" font-family="Helvetica,sans-Serif" font-size="11.00">[72 params]</text>
</g>
<!-- meanMerge_5&#45;&gt;Linear_6 -->
<g id="edge11" class="edge">
<title>meanMerge_5&#45;&gt;Linear_6</title>
<path fill="none" stroke="#2c3e50" d="M157.35,-2028.17C150.54,-2014.55 140.93,-1995.34 133.17,-1979.81"/>
<polygon fill="#2c3e50" stroke="#2c3e50" points="136.22,-1978.08 128.61,-1970.7 129.96,-1981.21 136.22,-1978.08"/>
</g>
<!-- add_7 -->
<g id="node9" class="node">
<title>add_7</title>
<ellipse fill="#d5dbdb" stroke="black" cx="136" cy="-1854.23" rx="22.5" ry="22.5"/>
<text text-anchor="middle" x="136" y="-1851.43" font-family="Helvetica,sans-Serif" font-size="11.00">add</text>
</g>
<!-- meanMerge_5&#45;&gt;add_7 -->
<g id="edge12" class="edge">
<title>meanMerge_5&#45;&gt;add_7</title>
<path fill="none" stroke="#2c3e50" d="M170.44,-2028.23C175.74,-2004.82 182.84,-1961.83 174,-1926.48 170.03,-1910.61 161.79,-1894.4 153.99,-1881.46"/>
<polygon fill="#2c3e50" stroke="#2c3e50" points="156.74,-1879.27 148.46,-1872.67 150.82,-1883 156.74,-1879.27"/>
</g>
<!-- Linear_6&#45;&gt;add_7 -->
<g id="edge13" class="edge">
<title>Linear_6&#45;&gt;add_7</title>
<path fill="none" stroke="#2c3e50" d="M122.86,-1934.27C125.07,-1920.96 128.19,-1902.19 130.84,-1886.27"/>
<polygon fill="#2c3e50" stroke="#2c3e50" points="134.31,-1886.75 132.49,-1876.31 127.4,-1885.61 134.31,-1886.75"/>
</g>
<!-- Dropout_8 -->
<g id="node10" class="node">
<title>Dropout_8</title>
<polygon fill="#fadbd8" stroke="black" points="166.5,-1773.98 105.5,-1773.98 105.5,-1737.98 166.5,-1737.98 166.5,-1773.98"/>
<text text-anchor="middle" x="136" y="-1753.18" font-family="Helvetica,sans-Serif" font-size="11.00">Dropout</text>
</g>
<!-- add_7&#45;&gt;Dropout_8 -->
<g id="edge14" class="edge">
<title>add_7&#45;&gt;Dropout_8</title>
<path fill="none" stroke="#2c3e50" d="M136,-1831.86C136,-1817.87 136,-1799.45 136,-1784.38"/>
<polygon fill="#2c3e50" stroke="#2c3e50" points="139.5,-1784.11 136,-1774.11 132.5,-1784.11 139.5,-1784.11"/>
</g>
<!-- map_9 -->
<g id="node11" class="node">
<title>map_9</title>
<polygon fill="#a9cce3" stroke="black" points="256.03,-1679.98 65.09,-1679.98 15.97,-1591.98 206.91,-1591.98 256.03,-1679.98"/>
<text text-anchor="middle" x="136" y="-1645.18" font-family="Helvetica,sans-Serif" font-size="11.00">map</text>
<text text-anchor="middle" x="136" y="-1633.18" font-family="Helvetica,sans-Serif" font-size="11.00">body: Graph (sub)</text>
<text text-anchor="middle" x="136" y="-1621.18" font-family="Helvetica,sans-Serif" font-size="11.00">[10 params]</text>
</g>
<!-- Dropout_8&#45;&gt;map_9 -->
<g id="edge15" class="edge">
<title>Dropout_8&#45;&gt;map_9</title>
<path fill="none" stroke="#2c3e50" d="M136,-1737.82C136,-1725.21 136,-1707.34 136,-1690.15"/>
<polygon fill="#2c3e50" stroke="#2c3e50" points="139.5,-1690.14 136,-1680.14 132.5,-1690.14 139.5,-1690.14"/>
</g>
<!-- reshapeModule_10 -->
<g id="node12" class="node">
<title>reshapeModule_10</title>
<polygon fill="#eaecee" stroke="black" points="186.5,-1533.98 85.5,-1533.98 85.5,-1497.98 186.5,-1497.98 186.5,-1533.98"/>
<text text-anchor="middle" x="136" y="-1513.18" font-family="Helvetica,sans-Serif" font-size="11.00">reshapeModule</text>
</g>
<!-- map_9&#45;&gt;reshapeModule_10 -->
<g id="edge16" class="edge">
<title>map_9&#45;&gt;reshapeModule_10</title>
<path fill="none" stroke="#2c3e50" d="M136,-1591.71C136,-1575.77 136,-1558.19 136,-1544.08"/>
<polygon fill="#2c3e50" stroke="#2c3e50" points="139.5,-1544.06 136,-1534.06 132.5,-1544.06 139.5,-1544.06"/>
</g>
<!-- map_11 -->
<g id="node13" class="node">
<title>map_11</title>
<polygon fill="#a9cce3" stroke="black" points="223.17,-1430.98 84.5,-1430.98 48.83,-1318.98 187.5,-1318.98 223.17,-1430.98"/>
<text text-anchor="middle" x="136" y="-1390.18" font-family="Helvetica,sans-Serif" font-size="11.00">map</text>
<text text-anchor="middle" x="136" y="-1378.18" font-family="Helvetica,sans-Serif" font-size="11.00">body: Linear</text>
<text text-anchor="middle" x="136" y="-1366.18" font-family="Helvetica,sans-Serif" font-size="11.00">[20 params]</text>
<text text-anchor="middle" x="136" y="-1354.18" font-family="Helvetica,sans-Serif" font-size="11.00">#halves</text>
</g>
<!-- reshapeModule_10&#45;&gt;map_11 -->
<g id="edge17" class="edge">
<title>reshapeModule_10&#45;&gt;map_11</title>
<path fill="none" stroke="#2c3e50" d="M136,-1497.93C136,-1483.6 136,-1462.16 136,-1441.24"/>
<polygon fill="#2c3e50" stroke="#2c3e50" points="139.5,-1441.04 136,-1431.04 132.5,-1441.04 139.5,-1441.04"/>
</g>
<!-- map_12 -->
<g id="node14" class="node">
<title>map_12</title>
<polygon fill="#a9cce3" stroke="black" points="223.17,-1260.98 84.5,-1260.98 48.83,-1172.98 187.5,-1172.98 223.17,-1260.98"/>
<text text-anchor="middle" x="136" y="-1226.18" font-family="Helvetica,sans-Serif" font-size="11.00">map</text>
<text text-anchor="middle" x="136" y="-1214.18" font-family="Helvetica,sans-Serif" font-size="11.00">body: Linear</text>
<text text-anchor="middle" x="136" y="-1202.18" font-family="Helvetica,sans-Serif" font-size="11.00">[20 params]</text>
</g>
<!-- map_11&#45;&gt;map_12 -->
<g id="edge18" class="edge">
<title>map_11&#45;&gt;map_12</title>
<path fill="none" stroke="#2c3e50" d="M136,-1318.54C136,-1303.17 136,-1286.52 136,-1271.27"/>
<polygon fill="#2c3e50" stroke="#2c3e50" points="139.5,-1270.98 136,-1260.98 132.5,-1270.98 139.5,-1270.98"/>
</g>
<!-- reshapeModule_13 -->
<g id="node15" class="node">
<title>reshapeModule_13</title>
<polygon fill="#eaecee" stroke="black" points="186.5,-1114.98 85.5,-1114.98 85.5,-1078.98 186.5,-1078.98 186.5,-1114.98"/>
<text text-anchor="middle" x="136" y="-1094.18" font-family="Helvetica,sans-Serif" font-size="11.00">reshapeModule</text>
</g>
<!-- map_12&#45;&gt;reshapeModule_13 -->
<g id="edge19" class="edge">
<title>map_12&#45;&gt;reshapeModule_13</title>
<path fill="none" stroke="#2c3e50" d="M136,-1172.71C136,-1156.77 136,-1139.19 136,-1125.08"/>
<polygon fill="#2c3e50" stroke="#2c3e50" points="139.5,-1125.06 136,-1115.06 132.5,-1125.06 139.5,-1125.06"/>
</g>
<!-- loop_14 -->
<g id="node16" class="node">
<title>loop_14</title>
<polygon fill="#d7bde2" stroke="black" points="178,-1020.98 98,-1020.98 94,-1016.98 94,-976.98 174,-976.98 178,-980.98 178,-1020.98"/>
<polyline fill="none" stroke="black" points="174,-1016.98 94,-1016.98 "/>
<polyline fill="none" stroke="black" points="174,-1016.98 174,-976.98 "/>
<polyline fill="none" stroke="black" points="174,-1016.98 178,-1020.98 "/>
<text text-anchor="middle" x="136" y="-1008.18" font-family="Helvetica,sans-Serif" font-size="11.00">Graph (sub)</text>
<text text-anchor="middle" x="136" y="-996.18" font-family="Helvetica,sans-Serif" font-size="11.00">[88 params]</text>
<text text-anchor="middle" x="136" y="-984.18" font-family="Helvetica,sans-Serif" font-size="11.00">#refined</text>
</g>
<!-- reshapeModule_13&#45;&gt;loop_14 -->
<g id="edge20" class="edge">
<title>reshapeModule_13&#45;&gt;loop_14</title>
<path fill="none" stroke="#2c3e50" d="M136,-1078.81C136,-1065.67 136,-1047.17 136,-1031.4"/>
<polygon fill="#2c3e50" stroke="#2c3e50" points="139.5,-1031.01 136,-1021.01 132.5,-1031.01 139.5,-1031.01"/>
</g>
<!-- Linear_17 -->
<g id="node17" class="node">
<title>Linear_17</title>
<polygon fill="#eaecee" stroke="black" points="227,-918.98 143,-918.98 143,-882.98 227,-882.98 227,-918.98"/>
<text text-anchor="middle" x="185" y="-904.18" font-family="Helvetica,sans-Serif" font-size="11.00">Linear</text>
<text text-anchor="middle" x="185" y="-892.18" font-family="Helvetica,sans-Serif" font-size="11.00">[72 params]</text>
</g>
<!-- loop_14&#45;&gt;Linear_17 -->
<g id="edge23" class="edge">
<title>loop_14&#45;&gt;Linear_17</title>
<path fill="none" stroke="#2c3e50" d="M146.87,-976.67C154.21,-962.31 163.92,-943.27 171.71,-928.01"/>
<polygon fill="#2c3e50" stroke="#2c3e50" points="174.85,-929.56 176.28,-919.07 168.61,-926.38 174.85,-929.56"/>
</g>
<!-- loop_14&#45;&gt;softmaxRouter_15 -->
<g id="edge21" class="edge">
<title>loop_14&#45;&gt;softmaxRouter_15</title>
<path fill="none" stroke="#2c3e50" d="M178.08,-980.54C196.42,-972.25 217.83,-961.6 236,-949.98 247.09,-942.87 258.44,-933.92 268.12,-925.68"/>
<polygon fill="#2c3e50" stroke="#2c3e50" points="270.58,-928.19 275.82,-918.98 265.98,-922.91 270.58,-928.19"/>
</g>
<!-- Linear_16 -->
<g id="node19" class="node">
<title>Linear_16</title>
<polygon fill="#eaecee" stroke="black" points="125,-918.98 41,-918.98 41,-882.98 125,-882.98 125,-918.98"/>
<text text-anchor="middle" x="83" y="-904.18" font-family="Helvetica,sans-Serif" font-size="11.00">Linear</text>
<text text-anchor="middle" x="83" y="-892.18" font-family="Helvetica,sans-Serif" font-size="11.00">[72 params]</text>
</g>
<!-- loop_14&#45;&gt;Linear_16 -->
<g id="edge22" class="edge">
<title>loop_14&#45;&gt;Linear_16</title>
<path fill="none" stroke="#2c3e50" d="M124.24,-976.67C116.31,-962.31 105.8,-943.27 97.37,-928.01"/>
<polygon fill="#2c3e50" stroke="#2c3e50" points="100.33,-926.13 92.44,-919.07 94.2,-929.51 100.33,-926.13"/>
</g>
<!-- switch_19 -->
<g id="node21" class="node">
<title>switch_19</title>
<polygon fill="#f5cba7" stroke="black" points="185,-623.94 83.6,-605.94 185,-587.94 286.4,-605.94 185,-623.94"/>
<text text-anchor="middle" x="185" y="-603.14" font-family="Helvetica,sans-Serif" font-size="11.00">heavyPathSelector</text>
</g>
<!-- loop_14&#45;&gt;switch_19 -->
<g id="edge29" class="edge">
<title>loop_14&#45;&gt;switch_19</title>
<path fill="none" stroke="#2980b9" stroke-dasharray="5,2" d="M93.94,-990.61C70.54,-984.13 43.33,-972.11 29,-949.98 10.88,-922 21.12,-907.36 29,-874.98 53.51,-774.22 129.43,-673.37 165.54,-629.58"/>
<polygon fill="#2980b9" stroke="#2980b9" points="168.28,-631.76 172,-621.84 162.9,-627.28 168.28,-631.76"/>
<text text-anchor="middle" x="51.5" y="-857.78" font-family="Helvetica,sans-Serif" font-size="9.00" fill="#2980b9">refined</text>
</g>
<!-- gated_merge_18 -->
<g id="node20" class="node">
<title>gated_merge_18</title>
<ellipse fill="#d5dbdb" stroke="black" cx="185" cy="-762.46" rx="53.54" ry="53.54"/>
<text text-anchor="middle" x="185" y="-759.66" font-family="Helvetica,sans-Serif" font-size="11.00">gated_merge</text>
</g>
<!-- Linear_17&#45;&gt;gated_merge_18 -->
<g id="edge26" class="edge">
<title>Linear_17&#45;&gt;gated_merge_18</title>
<path fill="none" stroke="#7f8c8d" d="M185,-882.96C185,-868.59 185,-847.07 185,-826.24"/>
<polygon fill="#7f8c8d" stroke="#7f8c8d" points="188.5,-826.1 185,-816.1 181.5,-826.1 188.5,-826.1"/>
</g>
<!-- softmaxRouter_15&#45;&gt;gated_merge_18 -->
<g id="edge24" class="edge">
<title>softmaxRouter_15&#45;&gt;gated_merge_18</title>
<path fill="none" stroke="#7f8c8d" d="M280.42,-882.96C266.41,-865.42 243.9,-837.23 224.27,-812.64"/>
<polygon fill="#7f8c8d" stroke="#7f8c8d" points="226.98,-810.43 218.01,-804.8 221.51,-814.8 226.98,-810.43"/>
</g>
<!-- Linear_16&#45;&gt;gated_merge_18 -->
<g id="edge25" class="edge">
<title>Linear_16&#45;&gt;gated_merge_18</title>
<path fill="none" stroke="#7f8c8d" d="M95.71,-882.96C108.57,-865.75 129.08,-838.3 147.2,-814.04"/>
<polygon fill="#7f8c8d" stroke="#7f8c8d" points="150.06,-816.07 153.24,-805.96 144.46,-811.88 150.06,-816.07"/>
</g>
<!-- gated_merge_18&#45;&gt;switch_19 -->
<g id="edge28" class="edge">
<title>gated_merge_18&#45;&gt;switch_19</title>
<path fill="none" stroke="#2c3e50" d="M185,-708.71C185,-683.66 185,-654.78 185,-634.2"/>
<polygon fill="#2c3e50" stroke="#2c3e50" points="188.5,-633.97 185,-623.97 181.5,-633.97 188.5,-633.97"/>
</g>
<!-- switch_19_b0 -->
<g id="node22" class="node">
<title>switch_19_b0</title>
<polygon fill="#eaecee" stroke="black" points="168,-541.94 84,-541.94 84,-505.94 168,-505.94 168,-541.94"/>
<text text-anchor="middle" x="126" y="-527.14" font-family="Helvetica,sans-Serif" font-size="11.00">[0] Linear</text>
<text text-anchor="middle" x="126" y="-515.14" font-family="Helvetica,sans-Serif" font-size="11.00">[72 params]</text>
</g>
<!-- switch_19&#45;&gt;switch_19_b0 -->
<g id="edge1" class="edge">
<title>switch_19&#45;&gt;switch_19_b0</title>
<path fill="none" stroke="#e67e22" stroke-dasharray="5,2" d="M173.9,-589.89C165.69,-578.75 154.3,-563.32 144.69,-550.29"/>
<polygon fill="#e67e22" stroke="#e67e22" points="147.44,-548.11 138.69,-542.14 141.81,-552.27 147.44,-548.11"/>
<text text-anchor="middle" x="162.5" y="-562.74" font-family="Helvetica,sans-Serif" font-size="9.00" fill="#e67e22">0</text>
</g>
<!-- switch_19_b1 -->
<g id="node23" class="node">
<title>switch_19_b1</title>
<polygon fill="#d6eaf8" stroke="black" points="287.5,-541.94 186.5,-541.94 186.5,-505.94 287.5,-505.94 287.5,-541.94"/>
<text text-anchor="middle" x="237" y="-527.14" font-family="Helvetica,sans-Serif" font-size="11.00">[1] Graph (sub)</text>
<text text-anchor="middle" x="237" y="-515.14" font-family="Helvetica,sans-Serif" font-size="11.00">[88 params]</text>
</g>
<!-- switch_19&#45;&gt;switch_19_b1 -->
<g id="edge3" class="edge">
<title>switch_19&#45;&gt;switch_19_b1</title>
<path fill="none" stroke="#e67e22" stroke-dasharray="5,2" d="M195.03,-589.51C202.22,-578.45 212.08,-563.28 220.43,-550.43"/>
<polygon fill="#e67e22" stroke="#e67e22" points="223.41,-552.27 225.92,-541.98 217.54,-548.45 223.41,-552.27"/>
<text text-anchor="middle" x="217.5" y="-562.74" font-family="Helvetica,sans-Serif" font-size="9.00" fill="#e67e22">1</text>
</g>
<!-- switch_19_out -->
<g id="node24" class="node">
<title>switch_19_out</title>
<ellipse fill="#d5dbdb" stroke="black" cx="237" cy="-463.44" rx="5.5" ry="5.5"/>
</g>
<!-- switch_19_b0&#45;&gt;switch_19_out -->
<g id="edge2" class="edge">
<title>switch_19_b0&#45;&gt;switch_19_out</title>
<path fill="none" stroke="#7f8c8d" d="M158.4,-505.86C180.03,-494.46 207.36,-480.06 223.43,-471.59"/>
<polygon fill="#7f8c8d" stroke="#7f8c8d" points="225.34,-474.54 232.55,-466.78 222.08,-468.35 225.34,-474.54"/>
</g>
<!-- switch_19_b1&#45;&gt;switch_19_out -->
<g id="edge4" class="edge">
<title>switch_19_b1&#45;&gt;switch_19_out</title>
<path fill="none" stroke="#7f8c8d" d="M237,-505.7C237,-497.29 237,-487.27 237,-479.21"/>
<polygon fill="#7f8c8d" stroke="#7f8c8d" points="240.5,-478.94 237,-468.94 233.5,-478.94 240.5,-478.94"/>
</g>
<!-- switch_19_out&#45;&gt;stateAdd_20 -->
<g id="edge30" class="edge">
<title>switch_19_out&#45;&gt;stateAdd_20</title>
<path fill="none" stroke="#2c3e50" d="M240.65,-459.19C251.29,-449.71 283.06,-421.42 306.37,-400.66"/>
<polygon fill="#2c3e50" stroke="#2c3e50" points="308.77,-403.21 313.91,-393.94 304.11,-397.98 308.77,-403.21"/>
</g>
<!-- stateAdd_20&#45;&gt;state_read_memory_21 -->
<g id="edge35" class="edge">
<title>stateAdd_20&#45;&gt;state_read_memory_21</title>
<path fill="none" stroke="#e67e22" stroke-dasharray="1,5" d="M353.79,-394.12C366.34,-406.01 381.03,-423.05 387,-441.94 630.97,-1213.75 441.39,-2238.36 405.55,-2415.35"/>
<polygon fill="#e67e22" stroke="#e67e22" points="402.08,-2414.85 403.51,-2425.35 408.94,-2416.25 402.08,-2414.85"/>
<text text-anchor="middle" x="540" y="-1472.78" font-family="Helvetica,sans-Serif" font-size="9.00" fill="#e67e22">state:memory</text>
</g>
<!-- loop_22 -->
<g id="node26" class="node">
<title>loop_22</title>
<polygon fill="#d7bde2" stroke="black" points="387,-299.94 283,-299.94 279,-295.94 279,-243.94 383,-243.94 387,-247.94 387,-299.94"/>
<polyline fill="none" stroke="black" points="383,-295.94 279,-295.94 "/>
<polyline fill="none" stroke="black" points="383,-295.94 383,-243.94 "/>
<polyline fill="none" stroke="black" points="383,-295.94 387,-299.94 "/>
<text text-anchor="middle" x="333" y="-287.14" font-family="Helvetica,sans-Serif" font-size="11.00">loop</text>
<text text-anchor="middle" x="333" y="-275.14" font-family="Helvetica,sans-Serif" font-size="11.00">body: Linear</text>
<text text-anchor="middle" x="333" y="-263.14" font-family="Helvetica,sans-Serif" font-size="11.00">cond: threshHalt</text>
<text text-anchor="middle" x="333" y="-251.14" font-family="Helvetica,sans-Serif" font-size="11.00">[72 params]</text>
</g>
<!-- stateAdd_20&#45;&gt;loop_22 -->
<g id="edge32" class="edge">
<title>stateAdd_20&#45;&gt;loop_22</title>
<path fill="none" stroke="#2c3e50" d="M333,-357.64C333,-344.67 333,-326.46 333,-310.24"/>
<polygon fill="#2c3e50" stroke="#2c3e50" points="336.5,-309.94 333,-299.94 329.5,-309.94 336.5,-309.94"/>
</g>
<!-- loop_23 -->
<g id="node27" class="node">
<title>loop_23</title>
<polygon fill="#d7bde2" stroke="black" points="387,-185.94 283,-185.94 279,-181.94 279,-129.94 383,-129.94 387,-133.94 387,-185.94"/>
<polyline fill="none" stroke="black" points="383,-181.94 279,-181.94 "/>
<polyline fill="none" stroke="black" points="383,-181.94 383,-129.94 "/>
<polyline fill="none" stroke="black" points="383,-181.94 387,-185.94 "/>
<text text-anchor="middle" x="333" y="-173.14" font-family="Helvetica,sans-Serif" font-size="11.00">loop</text>
<text text-anchor="middle" x="333" y="-161.14" font-family="Helvetica,sans-Serif" font-size="11.00">body: Linear</text>
<text text-anchor="middle" x="333" y="-149.14" font-family="Helvetica,sans-Serif" font-size="11.00">cond: threshHalt</text>
<text text-anchor="middle" x="333" y="-137.14" font-family="Helvetica,sans-Serif" font-size="11.00">[72 params]</text>
</g>
<!-- loop_22&#45;&gt;loop_23 -->
<g id="edge33" class="edge">
<title>loop_22&#45;&gt;loop_23</title>
<path fill="none" stroke="#2c3e50" d="M333,-243.83C333,-229.62 333,-212.01 333,-196.51"/>
<polygon fill="#2c3e50" stroke="#2c3e50" points="336.5,-196.19 333,-186.19 329.5,-196.19 336.5,-196.19"/>
</g>
<!-- Linear_24 -->
<g id="node28" class="node">
<title>Linear_24</title>
<polygon fill="#a9dfbf" stroke="black" points="406.34,-52.6 333,-71.91 259.66,-52.6 259.73,-21.37 406.27,-21.37 406.34,-52.6"/>
<text text-anchor="middle" x="333" y="-47.17" font-family="Helvetica,sans-Serif" font-size="11.00">Linear</text>
<text text-anchor="middle" x="333" y="-35.17" font-family="Helvetica,sans-Serif" font-size="11.00">[18 params]</text>
</g>
<!-- loop_23&#45;&gt;Linear_24 -->
<g id="edge34" class="edge">
<title>loop_23&#45;&gt;Linear_24</title>
<path fill="none" stroke="#2c3e50" d="M333,-129.83C333,-115.64 333,-98.02 333,-82.53"/>
<polygon fill="#2c3e50" stroke="#2c3e50" points="336.5,-82.21 333,-72.21 329.5,-82.21 336.5,-82.21"/>
</g>
</g>
</svg>
