<?xml version="1.0" encoding="UTF-8" standalone="no"?>
<!DOCTYPE svg PUBLIC "-//W3C//DTD SVG 1.1//EN"
 "http://www.w3.org/Graphics/SVG/1.1/DTD/svg11.dtd">
<!-- Generated by graphviz version 2.43.0 (0)
 -->
<!-- Title: G Pages: 1 -->
<svg width="596pt" height="2528pt"
 viewBox="0.00 0.00 596.00 2528.39" xmlns="http://www.w3.org/2000/svg" xmlns:xlink="http://www.w3.org/1999/xlink">
<g id="graph0" class="graph" transform="scale(1 1) rotate(0) translate(4 2524.39)">
<title>G</title>
<polygon fill="white" stroke="transparent" points="-4,4 -4,-2524.39 592,-2524.39 592,4 -4,4"/>
<g id="clust1" class="cluster">
<title>cluster_level_0</title>
<polygon fill="none" stroke="#999999" stroke-dasharray="5,2" points="185,-2396.48 185,-2512.39 580,-2512.39 580,-2396.48 185,-2396.48"/>
<text text-anchor="middle" x="382.5" y="-2497.19" font-family="Helvetica,sans-Serif" font-size="14.00" fill="#999999">level 0</text>
</g>
<g id="clust2" class="cluster">
<title>cluster_level_1</title>
<polygon fill="none" stroke="#999999" stroke-dasharray="5,2" points="190,-2302.48 190,-2377.48 260,-2377.48 260,-2302.48 190,-2302.48"/>
<text text-anchor="middle" x="225" y="-2362.28" font-family="Helvetica,sans-Serif" font-size="14.00" fill="#999999">level 1</text>
</g>
<g id="clust3" class="cluster">
<title>cluster_level_2</title>
<polygon fill="none" stroke="#999999" stroke-dasharray="5,2" points="164,-2208.48 164,-2283.48 264,-2283.48 264,-2208.48 164,-2208.48"/>
<text text-anchor="middle" x="214" y="-2268.28" font-family="Helvetica,sans-Serif" font-size="14.00" fill="#999999">level 2</text>
</g>
<g id="clust4" class="cluster">
<title>cluster_level_3</title>
<polygon fill="none" stroke="#999999" stroke-dasharray="5,2" points="62,-2114.48 62,-2189.48 264,-2189.48 264,-2114.48 62,-2114.48"/>
<text text-anchor="middle" x="163" y="-2174.28" font-family="Helvetica,sans-Serif" font-size="14.00" fill="#999999">level 3</text>
</g>
<g id="clust5" class="cluster">
<title>cluster_level_4</title>
<polygon fill="none" stroke="#999999" stroke-dasharray="5,2" points="117,-2020.48 117,-2095.48 215,-2095.48 215,-2020.48 117,-2020.48"/>
<text text-anchor="middle" x="166" y="-2080.28" font-family="Helvetica,sans-Serif" font-size="14.00" fill="#999999">level 4</text>
</g>
<g id="clust6" class="cluster">
<title>cluster_level_5</title>
<polygon fill="none" stroke="#999999" stroke-dasharray="5,2" points="152,-1926.48 152,-2001.48 252,-2001.48 252,-1926.48 152,-1926.48"/>
<text text-anchor="middle" x="202" y="-1986.28" font-family="Helvetica,sans-Serif" font-size="14.00" fill="#999999">level 5</text>
</g>
<g id="clust7" class="cluster">
<title>cluster_level_6</title>
<polygon fill="none" stroke="#999999" stroke-dasharray="5,2" points="105,-1823.98 105,-1907.48 167,-1907.48 167,-1823.98 105,-1823.98"/>
<text text-anchor="middle" x="136" y="-1892.28" font-family="Helvetica,sans-Serif" font-size="14.00" fill="#999999">level 6</text>
</g>
<g id="clust8" class="cluster">
<title>cluster_level_7</title>
<polygon fill="none" stroke="#999999" stroke-dasharray="5,2" points="97,-1729.98 97,-1804.98 175,-1804.98 175,-1729.98 97,-1729.98"/>
<text text-anchor="middle" x="136" y="-1789.78" font-family="Helvetica,sans-Serif" font-size="14.00" fill="#999999">level 7</text>
</g>
<g id="clust9" class="cluster">
<title>cluster_level_8</title>
<polygon fill="none" stroke="#999999" stroke-dasharray="5,2" points="8,-1583.98 8,-1710.98 264,-1710.98 264,-1583.98 8,-1583.98"/>
<text text-anchor="middle" x="136" y="-1695.78" font-family="Helvetica,sans-Serif" font-size="14.00" fill="#999999">level 8</text>
</g>
<g id="clust10" class="cluster">
<title>cluster_level_9</title>
<polygon fill="none" stroke="#999999" stroke-dasharray="5,2" points="82,-1489.98 82,-1564.98 200,-1564.98 200,-1489.98 82,-1489.98"/>
<text text-anchor="middle" x="141" y="-1549.78" font-family="Helvetica,sans-Serif" font-size="14.00" fill="#999999">level 9</text>
</g>
<g id="clust11" class="cluster">
<title>cluster_level_10</title>
<polygon fill="none" stroke="#999999" stroke-dasharray="5,2" points="66,-1310.98 66,-1461.98 256,-1461.98 256,-1310.98 66,-1310.98"/>
<text text-anchor="middle" x="161" y="-1446.78" font-family="Helvetica,sans-Serif" font-size="14.00" fill="#999999">level 10</text>
</g>
<g id="clust12" class="cluster">
<title>cluster_level_11</title>
<polygon fill="none" stroke="#999999" stroke-dasharray="5,2" points="70,-1164.98 70,-1291.98 260,-1291.98 260,-1164.98 70,-1164.98"/>
<text text-anchor="middle" x="165" y="-1276.78" font-family="Helvetica,sans-Serif" font-size="14.00" fill="#999999">level 11</text>
</g>
<g id="clust13" class="cluster">
<title>cluster_level_12</title>
<polygon fill="none" stroke="#999999" stroke-dasharray="5,2" points="108,-1070.98 108,-1145.98 226,-1145.98 226,-1070.98 108,-1070.98"/>
<text text-anchor="middle" x="167" y="-1130.78" font-family="Helvetica,sans-Serif" font-size="14.00" fill="#999999">level 12</text>
</g>
<g id="clust14" class="cluster">
<title>cluster_level_13</title>
<polygon fill="none" stroke="#999999" stroke-dasharray="5,2" points="123,-968.98 123,-1051.98 223,-1051.98 223,-968.98 123,-968.98"/>
<text text-anchor="middle" x="173" y="-1036.78" font-family="Helvetica,sans-Serif" font-size="14.00" fill="#999999">level 13</text>
</g>
<g id="clust15" class="cluster">
<title>cluster_level_14</title>
<polygon fill="none" stroke="#999999" stroke-dasharray="5,2" points="21,-874.98 21,-949.98 339,-949.98 339,-874.98 21,-874.98"/>
<text text-anchor="middle" x="180" y="-934.78" font-family="Helvetica,sans-Serif" font-size="14.00" fill="#999999">level 14</text>
</g>
<g id="clust16" class="cluster">
<title>cluster_level_15</title>
<polygon fill="none" stroke="#999999" stroke-dasharray="5,2" points="155,-700.94 155,-846.98 279,-846.98 279,-700.94 155,-700.94"/>
<text text-anchor="middle" x="217" y="-831.78" font-family="Helvetica,sans-Serif" font-size="14.00" fill="#999999">level 15</text>
</g>
<g id="clust17" class="cluster">
<title>cluster_level_16</title>
<polygon fill="none" stroke="#999999" stroke-dasharray="5,2" points="211,-441.94 211,-681.94 447,-681.94 447,-441.94 211,-441.94"/>
<text text-anchor="middle" x="329" y="-666.74" font-family="Helvetica,sans-Serif" font-size="14.00" fill="#999999">level 16</text>
</g>
<g id="clust18" class="cluster">
<title>cluster_switch_19</title>
<polygon fill="#fef9e7" stroke="#f5cba7" points="219,-449.94 219,-650.94 439,-650.94 439,-449.94 219,-449.94"/>
<text text-anchor="middle" x="329" y="-638.94" font-family="Helvetica,sans-Serif" font-size="10.00" fill="#999999">Switch</text>
</g>
<g id="clust19" class="cluster">
<title>cluster_level_17</title>
<polygon fill="none" stroke="#999999" stroke-dasharray="5,2" points="393,-349.94 393,-424.94 481,-424.94 481,-349.94 393,-349.94"/>
<text text-anchor="middle" x="437" y="-409.74" font-family="Helvetica,sans-Serif" font-size="14.00" fill="#999999">level 17</text>
</g>
<g id="clust20" class="cluster">
<title>cluster_level_18</title>
<polygon fill="none" stroke="#999999" stroke-dasharray="5,2" points="375,-235.94 375,-330.94 499,-330.94 499,-235.94 375,-235.94"/>
<text text-anchor="middle" x="437" y="-315.74" font-family="Helvetica,sans-Serif" font-size="14.00" fill="#999999">level 18</text>
</g>
<g id="clust21" class="cluster">
<title>cluster_level_19</title>
<polygon fill="none" stroke="#999999" stroke-dasharray="5,2" points="375,-121.94 375,-216.94 499,-216.94 499,-121.94 375,-121.94"/>
<text text-anchor="middle" x="437" y="-201.74" font-family="Helvetica,sans-Serif" font-size="14.00" fill="#999999">level 19</text>
</g>
<g id="clust22" class="cluster">
<title>cluster_level_20</title>
<polygon fill="none" stroke="#999999" stroke-dasharray="5,2" points="356,-8 356,-102.94 518,-102.94 518,-8 356,-8"/>
<text text-anchor="middle" x="437" y="-87.74" font-family="Helvetica,sans-Serif" font-size="14.00" fill="#999999">level 20</text>
</g>
<!-- Linear_0 -->
<g id="node1" class="node">
<title>Linear_0</title>
<polygon fill="#aed6f1" stroke="black" points="192.66,-2431.06 266,-2404.52 339.34,-2431.06 339.27,-2474.01 192.73,-2474.01 192.66,-2431.06"/>
<text text-anchor="middle" x="266" y="-2452.13" font-family="Helvetica,sans-Serif" font-size="11.00">Linear</text>
<text text-anchor="middle" x="266" y="-2440.13" font-family="Helvetica,sans-Serif" font-size="11.00">[24 params]</text>
<text text-anchor="middle" x="266" y="-2428.13" font-family="Helvetica,sans-Serif" font-size="11.00">#input</text>
</g>
<!-- GELU_1 -->
<g id="node3" class="node">
<title>GELU_1</title>
<ellipse fill="#fdebd0" stroke="black" cx="225" cy="-2328.48" rx="27.12" ry="18"/>
<text text-anchor="middle" x="225" y="-2325.68" font-family="Helvetica,sans-Serif" font-size="11.00">GELU</text>
</g>
<!-- Linear_0&#45;&gt;GELU_1 -->
<g id="edge5" class="edge">
<title>Linear_0&#45;&gt;GELU_1</title>
<path fill="none" stroke="#2c3e50" d="M253.92,-2408.8C247.76,-2391.9 240.37,-2371.63 234.6,-2355.81"/>
<polygon fill="#2c3e50" stroke="#2c3e50" points="237.79,-2354.33 231.07,-2346.14 231.21,-2356.73 237.79,-2354.33"/>
</g>
<!-- softmaxRouter_15 -->
<g id="node19" class="node">
<title>softmaxRouter_15</title>
<polygon fill="#eaecee" stroke="black" points="331,-918.98 233,-918.98 233,-882.98 331,-882.98 331,-918.98"/>
<text text-anchor="middle" x="282" y="-904.18" font-family="Helvetica,sans-Serif" font-size="11.00">softmaxRouter</text>
<text text-anchor="middle" x="282" y="-892.18" font-family="Helvetica,sans-Serif" font-size="11.00">[18 params]</text>
</g>
<!-- Linear_0&#45;&gt;softmaxRouter_15 -->
<g id="edge27" class="edge">
<title>Linear_0&#45;&gt;softmaxRouter_15</title>
<path fill="none" stroke="#2980b9" stroke-dasharray="5,2" d="M274.47,-2407.21C279.14,-2385.1 284,-2355.77 284,-2329.48 284,-2329.48 284,-2329.48 284,-997.98 284,-974.88 283.41,-948.65 282.88,-929.46"/>
<polygon fill="#2980b9" stroke="#2980b9" points="286.37,-929.21 282.58,-919.32 279.37,-929.42 286.37,-929.21"/>
<text text-anchor="middle" x="296.5" y="-1753.78" font-family="Helvetica,sans-Serif" font-size="9.00" fill="#2980b9">input</text>
</g>
<!-- state_read_memory_21 -->
<g id="node2" class="node">
<title>state_read_memory_21</title>
<polygon fill="#f9e79f" stroke="black" points="465,-2460.93 357.69,-2442.93 465,-2424.93 572.31,-2442.93 465,-2460.93"/>
<text text-anchor="middle" x="465" y="-2440.13" font-family="Helvetica,sans-Serif" font-size="11.00">state_read_memory</text>
</g>
<!-- stateAdd_20 -->
<g id="node25" class="node">
<title>stateAdd_20</title>
<polygon fill="#eaecee" stroke="black" points="472.5,-393.94 401.5,-393.94 401.5,-357.94 472.5,-357.94 472.5,-393.94"/>
<text text-anchor="middle" x="437" y="-379.14" font-family="Helvetica,sans-Serif" font-size="11.00">stateAdd</text>
<text text-anchor="middle" x="437" y="-367.14" font-family="Helvetica,sans-Serif" font-size="11.00">#memory</text>
</g>
<!-- state_read_memory_21&#45;&gt;stateAdd_20 -->
<g id="edge31" class="edge">
<title>state_read_memory_21&#45;&gt;stateAdd_20</title>
<path fill="none" stroke="#2980b9" stroke-dasharray="5,2" d="M465,-2424.79C465,-2402.73 465,-2363.25 465,-2329.48 465,-2329.48 465,-2329.48 465,-462.44 465,-442 457.69,-420.12 450.53,-403.61"/>
<polygon fill="#2980b9" stroke="#2980b9" points="453.52,-401.72 446.17,-394.08 447.15,-404.63 453.52,-401.72"/>
<text text-anchor="middle" x="484" y="-1472.78" font-family="Helvetica,sans-Serif" font-size="9.00" fill="#2980b9">memory</text>
</g>
<!-- LayerNorm_2 -->
<g id="node4" class="node">
<title>LayerNorm_2</title>
<polygon fill="#d5f5e3" stroke="black" points="256,-2252.48 172,-2252.48 172,-2216.48 256,-2216.48 256,-2252.48"/>
<text text-anchor="middle" x="214" y="-2237.68" font-family="Helvetica,sans-Serif" font-size="11.00">LayerNorm</text>
<text text-anchor="middle" x="214" y="-2225.68" font-family="Helvetica,sans-Serif" font-size="11.00">[16 params]</text>
</g>
<!-- GELU_1&#45;&gt;LayerNorm_2 -->
<g id="edge6" class="edge">
<title>GELU_1&#45;&gt;LayerNorm_2</title>
<path fill="none" stroke="#2c3e50" d="M222.93,-2310.17C221.33,-2296.81 219.09,-2278.06 217.25,-2262.69"/>
<polygon fill="#2c3e50" stroke="#2c3e50" points="220.72,-2262.22 216.06,-2252.7 213.77,-2263.05 220.72,-2262.22"/>
</g>
<!-- Graph_4 -->
<g id="node5" class="node">
<title>Graph_4</title>
<polygon fill="#d6eaf8" stroke="black" points="154,-2158.48 70,-2158.48 70,-2122.48 154,-2122.48 154,-2158.48"/>
<text text-anchor="middle" x="112" y="-2143.68" font-family="Helvetica,sans-Serif" font-size="11.00">Graph (sub)</text>
<text text-anchor="middle" x="112" y="-2131.68" font-family="Helvetica,sans-Serif" font-size="11.00">[88 params]</text>
</g>
<!-- LayerNorm_2&#45;&gt;Graph_4 -->
<g id="edge8" class="edge">
<title>LayerNorm_2&#45;&gt;Graph_4</title>
<path fill="none" stroke="#2c3e50" d="M193.47,-2216.12C184.1,-2208.1 172.9,-2198.4 163,-2189.48 154.51,-2181.83 145.38,-2173.33 137.23,-2165.63"/>
<polygon fill="#2c3e50" stroke="#2c3e50" points="139.43,-2162.89 129.76,-2158.55 134.61,-2167.97 139.43,-2162.89"/>
</g>
<!-- Graph_3 -->
<g id="node6" class="node">
<title>Graph_3</title>
<polygon fill="#d6eaf8" stroke="black" points="256,-2158.48 172,-2158.48 172,-2122.48 256,-2122.48 256,-2158.48"/>
<text text-anchor="middle" x="214" y="-2143.68" font-family="Helvetica,sans-Serif" font-size="11.00">Graph (sub)</text>
<text text-anchor="middle" x="214" y="-2131.68" font-family="Helvetica,sans-Serif" font-size="11.00">[88 params]</text>
</g>
<!-- LayerNorm_2&#45;&gt;Graph_3 -->
<g id="edge7" class="edge">
<title>LayerNorm_2&#45;&gt;Graph_3</title>
<path fill="none" stroke="#2c3e50" d="M214,-2216.17C214,-2202.94 214,-2184.42 214,-2169.14"/>
<polygon fill="#2c3e50" stroke="#2c3e50" points="217.5,-2168.7 214,-2158.7 210.5,-2168.7 217.5,-2168.7"/>
</g>
<!-- meanMerge_5 -->
<g id="node7" class="node">
<title>meanMerge_5</title>
<polygon fill="#eaecee" stroke="black" points="207,-2064.48 125,-2064.48 125,-2028.48 207,-2028.48 207,-2064.48"/>
<text text-anchor="middle" x="166" y="-2043.68" font-family="Helvetica,sans-Serif" font-size="11.00">meanMerge</text>
</g>
<!-- Graph_4&#45;&gt;meanMerge_5 -->
<g id="edge10" class="edge">
<title>Graph_4&#45;&gt;meanMerge_5</title>
<path fill="none" stroke="#2c3e50" d="M122.16,-2122.17C130.23,-2108.42 141.64,-2088.98 150.8,-2073.37"/>
<polygon fill="#2c3e50" stroke="#2c3e50" points="153.84,-2075.1 155.89,-2064.7 147.81,-2071.55 153.84,-2075.1"/>
</g>
<!-- Graph_3&#45;&gt;meanMerge_5 -->
<g id="edge9" class="edge">
<title>Graph_3&#45;&gt;meanMerge_5</title>
<path fill="none" stroke="#2c3e50" d="M204.97,-2122.17C197.86,-2108.55 187.84,-2089.34 179.74,-2073.81"/>
<polygon fill="#2c3e50" stroke="#2c3e50" points="182.72,-2071.95 174.99,-2064.7 176.51,-2075.19 182.72,-2071.95"/>
</g>
<!-- Linear_6 -->
<g id="node8" class="node">
<title>Linear_6</title>
<polygon fill="#eaecee" stroke="black" points="244,-1970.48 160,-1970.48 160,-1934.48 244,-1934.48 244,-1970.48"/>
<text text-anchor="middle" x="202" y="-1955.68" font-family="Helvetica,sans-Serif" font-size="11.00">Linear</text>
<text text-anchor="middle" x="202" y="-1943.68" font-family="Helvetica,sans-Serif" font-size="11.00">[72 params]</text>
</g>
<!-- meanMerge_5&#45;&gt;Linear_6 -->
<g id="edge11" class="edge">
<title>meanMerge_5&#45;&gt;Linear_6</title>
<path fill="none" stroke="#2c3e50" d="M172.77,-2028.17C178.05,-2014.68 185.48,-1995.7 191.52,-1980.25"/>
<polygon fill="#2c3e50" stroke="#2c3e50" points="194.87,-1981.29 195.26,-1970.7 188.36,-1978.74 194.87,-1981.29"/>
</g>
<!-- add_7 -->
<g id="node9" class="node">
<title>add_7</title>
<ellipse fill="#d5dbdb" stroke="black" cx="136" cy="-1854.23" rx="22.5" ry="22.5"/>
<text text-anchor="middle" x="136" y="-1851.43" font-family="Helvetica,sans-Serif" font-size="11.00">add</text>
</g>
<!-- meanMerge_5&#45;&gt;add_7 -->
<g id="edge12" class="edge">
<title>meanMerge_5&#45;&gt;add_7</title>
<path fill="none" stroke="#2c3e50" d="M157.55,-2028.33C154,-2020.35 150.19,-2010.63 148,-2001.48 138.75,-1962.86 136.32,-1917.06 135.83,-1887.13"/>
<polygon fill="#2c3e50" stroke="#2c3e50" points="139.32,-1886.83 135.72,-1876.86 132.32,-1886.9 139.32,-1886.83"/>
</g>
<!-- Linear_6&#45;&gt;add_7 -->
<g id="edge13" class="edge">
<title>Linear_6&#45;&gt;add_7</title>
<path fill="none" stroke="#2c3e50" d="M190.2,-1934.27C180.1,-1919.53 165.39,-1898.09 153.85,-1881.26"/>
<polygon fill="#2c3e50" stroke="#2c3e50" points="156.69,-1879.2 148.14,-1872.94 150.91,-1883.16 156.69,-1879.2"/>
</g>
<!-- Dropout_8 -->
<g id="node10" class="node">
<title>Dropout_8</title>
<polygon fill="#fadbd8" stroke="black" points="166.5,-1773.98 105.5,-1773.98 105.5,-1737.98 166.5,-1737.98 166.5,-1773.98"/>
<text text-anchor="middle" x="136" y="-1753.18" font-family="Helvetica,sans-Serif" font-size="11.00">Dropout</text>
</g>
<!-- add_7&#45;&gt;Dropout_8 -->
<g id="edge14" class="edge">
<title>add_7&#45;&gt;Dropout_8</title>
<path fill="none" stroke="#2c3e50" d="M136,-1831.86C136,-1817.87 136,-1799.45 136,-1784.38"/>
<polygon fill="#2c3e50" stroke="#2c3e50" points="139.5,-1784.11 136,-1774.11 132.5,-1784.11 139.5,-1784.11"/>
</g>
<!-- map_9 -->
<g id="node11" class="node">
<title>map_9</title>
<polygon fill="#a9cce3" stroke="black" points="256.03,-1679.98 65.09,-1679.98 15.97,-1591.98 206.91,-1591.98 256.03,-1679.98"/>
<text text-anchor="middle" x="136" y="-1645.18" font-family="Helvetica,sans-Serif" font-size="11.00">map</text>
<text text-anchor="middle" x="136" y="-1633.18" font-family="Helvetica,sans-Serif" font-size="11.00">body: Graph (sub)</text>
<text text-anchor="middle" x="136" y="-1621.18" font-family="Helvetica,sans-Serif" font-size="11.00">[10 params]</text>
</g>
<!-- Dropout_8&#45;&gt;map_9 -->
<g id="edge15" class="edge">
<title>Dropout_8&#45;&gt;map_9</title>
<path fill="none" stroke="#2c3e50" d="M136,-1737.82C136,-1725.21 136,-1707.34 136,-1690.15"/>
<polygon fill="#2c3e50" stroke="#2c3e50" points="139.5,-1690.14 136,-1680.14 132.5,-1690.14 139.5,-1690.14"/>
</g>
<!-- reshapeModule_10 -->
<g id="node12" class="node">
<title>reshapeModule_10</title>
<polygon fill="#eaecee" stroke="black" points="191.5,-1533.98 90.5,-1533.98 90.5,-1497.98 191.5,-1497.98 191.5,-1533.98"/>
<text text-anchor="middle" x="141" y="-1513.18" font-family="Helvetica,sans-Serif" font-size="11.00">reshapeModule</text>
</g>
<!-- map_9&#45;&gt;reshapeModule_10 -->
<g id="edge16" class="edge">
<title>map_9&#45;&gt;reshapeModule_10</title>
<path fill="none" stroke="#2c3e50" d="M137.83,-1591.71C138.51,-1575.77 139.25,-1558.19 139.85,-1544.08"/>
<polygon fill="#2c3e50" stroke="#2c3e50" points="143.35,-1544.19 140.28,-1534.06 136.36,-1543.9 143.35,-1544.19"/>
</g>
<!-- map_11 -->
<g id="node13" class="node">
<title>map_11</title>
<polygon fill="#a9cce3" stroke="black" points="248.17,-1430.98 109.5,-1430.98 73.83,-1318.98 212.5,-1318.98 248.17,-1430.98"/>
<text text-anchor="middle" x="161" y="-1390.18" font-family="Helvetica,sans-Serif" font-size="11.00">map</text>
<text text-anchor="middle" x="161" y="-1378.18" font-family="Helvetica,sans-Serif" font-size="11.00">body: Linear</text>
<text text-anchor="middle" x="161" y="-1366.18" font-family="Helvetica,sans-Serif" font-size="11.00">[20 params]</text>
<text text-anchor="middle" x="161" y="-1354.18" font-family="Helvetica,sans-Serif" font-size="11.00">#halves</text>
</g>
<!-- reshapeModule_10&#45;&gt;map_11 -->
<g id="edge17" class="edge">
<title>reshapeModule_10&#45;&gt;map_11</title>
<path fill="none" stroke="#2c3e50" d="M143.45,-1497.93C145.52,-1483.54 148.63,-1461.97 151.65,-1440.95"/>
<polygon fill="#2c3e50" stroke="#2c3e50" points="155.12,-1441.43 153.08,-1431.04 148.19,-1440.44 155.12,-1441.43"/>
</g>
<!-- map_12 -->
<g id="node14" class="node">
<title>map_12</title>
<polygon fill="#a9cce3" stroke="black" points="252.17,-1260.98 113.5,-1260.98 77.83,-1172.98 216.5,-1172.98 252.17,-1260.98"/>
<text text-anchor="middle" x="165" y="-1226.18" font-family="Helvetica,sans-Serif" font-size="11.00">map</text>
<text text-anchor="middle" x="165" y="-1214.18" font-family="Helvetica,sans-Serif" font-size="11.00">body: Linear</text>
<text text-anchor="middle" x="165" y="-1202.18" font-family="Helvetica,sans-Serif" font-size="11.00">[20 params]</text>
</g>
<!-- map_11&#45;&gt;map_12 -->
<g id="edge18" class="edge">
<title>map_11&#45;&gt;map_12</title>
<path fill="none" stroke="#2c3e50" d="M162.42,-1318.54C162.82,-1303.17 163.24,-1286.52 163.63,-1271.27"/>
<polygon fill="#2c3e50" stroke="#2c3e50" points="167.14,-1271.06 163.9,-1260.98 160.14,-1270.89 167.14,-1271.06"/>
</g>
<!-- reshapeModule_13 -->
<g id="node15" class="node">
<title>reshapeModule_13</title>
<polygon fill="#eaecee" stroke="black" points="217.5,-1114.98 116.5,-1114.98 116.5,-1078.98 217.5,-1078.98 217.5,-1114.98"/>
<text text-anchor="middle" x="167" y="-1094.18" font-family="Helvetica,sans-Serif" font-size="11.00">reshapeModule</text>
</g>
<!-- map_12&#45;&gt;reshapeModule_13 -->
<g id="edge19" class="edge">
<title>map_12&#45;&gt;reshapeModule_13</title>
<path fill="none" stroke="#2c3e50" d="M165.73,-1172.71C166,-1156.77 166.3,-1139.19 166.54,-1125.08"/>
<polygon fill="#2c3e50" stroke="#2c3e50" points="170.04,-1125.11 166.71,-1115.06 163.04,-1124.99 170.04,-1125.11"/>
</g>
<!-- loop_14 -->
<g id="node16" class="node">
<title>loop_14</title>
<polygon fill="#d7bde2" stroke="black" points="215,-1020.98 135,-1020.98 131,-1016.98 131,-976.98 211,-976.98 215,-980.98 215,-1020.98"/>
<polyline fill="none" stroke="black" points="211,-1016.98 131,-1016.98 "/>
<polyline fill="none" stroke="black" points="211,-1016.98 211,-976.98 "/>
<polyline fill="none" stroke="black" points="211,-1016.98 215,-1020.98 "/>
<text text-anchor="middle" x="173" y="-1008.18" font-family="Helvetica,sans-Serif" font-size="11.00">Graph (sub)</text>
<text text-anchor="middle" x="173" y="-996.18" font-family="Helvetica,sans-Serif" font-size="11.00">[88 params]</text>
<text text-anchor="middle" x="173" y="-984.18" font-family="Helvetica,sans-Serif" font-size="11.00">#refined</text>
</g>
<!-- reshapeModule_13&#45;&gt;loop_14 -->
<g id="edge20" class="edge">
<title>reshapeModule_13&#45;&gt;loop_14</title>
<path fill="none" stroke="#2c3e50" d="M168.07,-1078.81C168.89,-1065.67 170.05,-1047.17 171.04,-1031.4"/>
<polygon fill="#2c3e50" stroke="#2c3e50" points="174.55,-1031.21 171.69,-1021.01 167.57,-1030.77 174.55,-1031.21"/>
</g>
<!-- Linear_17 -->
<g id="node17" class="node">
<title>Linear_17</title>
<polygon fill="#eaecee" stroke="black" points="113,-918.98 29,-918.98 29,-882.98 113,-882.98 113,-918.98"/>
<text text-anchor="middle" x="71" y="-904.18" font-family="Helvetica,sans-Serif" font-size="11.00">Linear</text>
<text text-anchor="middle" x="71" y="-892.18" font-family="Helvetica,sans-Serif" font-size="11.00">[72 params]</text>
</g>
<!-- loop_14&#45;&gt;Linear_17 -->
<g id="edge23" class="edge">
<title>loop_14&#45;&gt;Linear_17</title>
<path fill="none" stroke="#2c3e50" d="M150.62,-976.91C134.79,-962.01 113.53,-942.01 96.96,-926.41"/>
<polygon fill="#2c3e50" stroke="#2c3e50" points="98.93,-923.46 89.25,-919.15 94.13,-928.55 98.93,-923.46"/>
</g>
<!-- Linear_16 -->
<g id="node18" class="node">
<title>Linear_16</title>
<polygon fill="#eaecee" stroke="black" points="215,-918.98 131,-918.98 131,-882.98 215,-882.98 215,-918.98"/>
<text text-anchor="middle" x="173" y="-904.18" font-family="Helvetica,sans-Serif" font-size="11.00">Linear</text>
<text text-anchor="middle" x="173" y="-892.18" font-family="Helvetica,sans-Serif" font-size="11.00">[72 params]</text>
</g>
<!-- loop_14&#45;&gt;Linear_16 -->
<g id="edge22" class="edge">
<title>loop_14&#45;&gt;Linear_16</title>
<path fill="none" stroke="#2c3e50" d="M173,-976.67C173,-962.71 173,-944.34 173,-929.31"/>
<polygon fill="#2c3e50" stroke="#2c3e50" points="176.5,-929.07 173,-919.07 169.5,-929.07 176.5,-929.07"/>
</g>
<!-- loop_14&#45;&gt;softmaxRouter_15 -->
<g id="edge21" class="edge">
<title>loop_14&#45;&gt;softmaxRouter_15</title>
<path fill="none" stroke="#2c3e50" d="M196.92,-976.91C213.98,-961.88 236.96,-941.64 254.74,-925.99"/>
<polygon fill="#2c3e50" stroke="#2c3e50" points="257.31,-928.39 262.5,-919.15 252.68,-923.13 257.31,-928.39"/>
</g>
<!-- switch_19 -->
<g id="node21" class="node">
<title>switch_19</title>
<polygon fill="#f5cba7" stroke="black" points="329,-623.94 227.6,-605.94 329,-587.94 430.4,-605.94 329,-623.94"/>
<text text-anchor="middle" x="329" y="-603.14" font-family="Helvetica,sans-Serif" font-size="11.00">heavyPathSelector</text>
</g>
<!-- loop_14&#45;&gt;switch_19 -->
<g id="edge29" class="edge">
<title>loop_14&#45;&gt;switch_19</title>
<path fill="none" stroke="#2980b9" stroke-dasharray="5,2" d="M215.16,-991.94C260.32,-984.52 327.59,-970.33 343,-949.98 416.08,-853.4 364.33,-694.03 339.87,-632.38"/>
<polygon fill="#2980b9" stroke="#2980b9" points="343.08,-630.97 336.07,-623.02 336.59,-633.6 343.08,-630.97"/>
<text text-anchor="middle" x="394.5" y="-857.78" font-family="Helvetica,sans-Serif" font-size="9.00" fill="#2980b9">refined</text>
</g>
<!-- gated_merge_18 -->
<g id="node20" class="node">
<title>gated_merge_18</title>
<ellipse fill="#d5dbdb" stroke="black" cx="217" cy="-762.46" rx="53.54" ry="53.54"/>
<text text-anchor="middle" x="217" y="-759.66" font-family="Helvetica,sans-Serif" font-size="11.00">gated_merge</text>
</g>
<!-- Linear_17&#45;&gt;gated_merge_18 -->
<g id="edge26" class="edge">
<title>Linear_17&#45;&gt;gated_merge_18</title>
<path fill="none" stroke="#7f8c8d" d="M89.2,-882.96C109.46,-864.01 143,-832.65 170.63,-806.81"/>
<polygon fill="#7f8c8d" stroke="#7f8c8d" points="173.34,-809.07 178.26,-799.68 168.56,-803.96 173.34,-809.07"/>
</g>
<!-- Linear_16&#45;&gt;gated_merge_18 -->
<g id="edge25" class="edge">
<title>Linear_16&#45;&gt;gated_merge_18</title>
<path fill="none" stroke="#7f8c8d" d="M178.48,-882.96C183.34,-867.89 190.73,-844.98 197.74,-823.23"/>
<polygon fill="#7f8c8d" stroke="#7f8c8d" points="201.08,-824.27 200.81,-813.68 194.42,-822.12 201.08,-824.27"/>
</g>
<!-- softmaxRouter_15&#45;&gt;gated_merge_18 -->
<g id="edge24" class="edge">
<title>softmaxRouter_15&#45;&gt;gated_merge_18</title>
<path fill="none" stroke="#7f8c8d" d="M273.9,-882.96C266.39,-867.19 254.79,-842.83 244.02,-820.2"/>
<polygon fill="#7f8c8d" stroke="#7f8c8d" points="247.08,-818.5 239.62,-810.97 240.76,-821.51 247.08,-818.5"/>
</g>
<!-- gated_merge_18&#45;&gt;switch_19 -->
<g id="edge28" class="edge">
<title>gated_merge_18&#45;&gt;switch_19</title>
<path fill="none" stroke="#2c3e50" d="M248.2,-718.41C268.86,-689.91 295.17,-653.62 312.05,-630.33"/>
<polygon fill="#2c3e50" stroke="#2c3e50" points="314.99,-632.23 318.03,-622.08 309.32,-628.12 314.99,-632.23"/>
</g>
<!-- switch_19_b0 -->
<g id="node22" class="node">
<title>switch_19_b0</title>
<polygon fill="#eaecee" stroke="black" points="311,-541.94 227,-541.94 227,-505.94 311,-505.94 311,-541.94"/>
<text text-anchor="middle" x="269" y="-527.14" font-family="Helvetica,sans-Serif" font-size="11.00">[0] Linear</text>
<text text-anchor="middle" x="269" y="-515.14" font-family="Helvetica,sans-Serif" font-size="11.00">[72 params]</text>
</g>
<!-- switch_19&#45;&gt;switch_19_b0 -->
<g id="edge1" class="edge">
<title>switch_19&#45;&gt;switch_19_b0</title>
<path fill="none" stroke="#e67e22" stroke-dasharray="5,2" d="M317.71,-589.89C309.36,-578.75 297.78,-563.32 288.01,-550.29"/>
<polygon fill="#e67e22" stroke="#e67e22" points="290.7,-548.04 281.9,-542.14 285.1,-552.24 290.7,-548.04"/>
<text text-anchor="middle" x="305.5" y="-562.74" font-family="Helvetica,sans-Serif" font-size="9.00" fill="#e67e22">0</text>
</g>
<!-- switch_19_b1 -->
<g id="node23" class="node">
<title>switch_19_b1</title>
<polygon fill="#d6eaf8" stroke="black" points="430.5,-541.94 329.5,-541.94 329.5,-505.94 430.5,-505.94 430.5,-541.94"/>
<text text-anchor="middle" x="380" y="-527.14" font-family="Helvetica,sans-Serif" font-size="11.00">[1] Graph (sub)</text>
<text text-anchor="middle" x="380" y="-515.14" font-family="Helvetica,sans-Serif" font-size="11.00">[88 params]</text>
</g>
<!-- switch_19&#45;&gt;switch_19_b1 -->
<g id="edge3" class="edge">
<title>switch_19&#45;&gt;switch_19_b1</title>
<path fill="none" stroke="#e67e22" stroke-dasharray="5,2" d="M338.83,-589.51C345.89,-578.45 355.56,-563.28 363.75,-550.43"/>
<polygon fill="#e67e22" stroke="#e67e22" points="366.71,-552.29 369.14,-541.98 360.81,-548.53 366.71,-552.29"/>
<text text-anchor="middle" x="360.5" y="-562.74" font-family="Helvetica,sans-Serif" font-size="9.00" fill="#e67e22">1</text>
</g>
<!-- switch_19_out -->
<g id="node24" class="node">
<title>switch_19_out</title>
<ellipse fill="#d5dbdb" stroke="black" cx="380" cy="-463.44" rx="5.5" ry="5.5"/>
</g>
<!-- switch_19_b0&#45;&gt;switch_19_out -->
<g id="edge2" class="edge">
<title>switch_19_b0&#45;&gt;switch_19_out</title>
<path fill="none" stroke="#7f8c8d" d="M301.4,-505.86C323.03,-494.46 350.36,-480.06 366.43,-471.59"/>
<polygon fill="#7f8c8d" stroke="#7f8c8d" points="368.34,-474.54 375.55,-466.78 365.08,-468.35 368.34,-474.54"/>
</g>
<!-- switch_19_b1&#45;&gt;switch_19_out -->
<g id="edge4" class="edge">
<title>switch_19_b1&#45;&gt;switch_19_out</title>
<path fill="none" stroke="#7f8c8d" d="M380,-505.7C380,-497.29 380,-487.27 380,-479.21"/>
<polygon fill="#7f8c8d" stroke="#7f8c8d" points="383.5,-478.94 380,-468.94 376.5,-478.94 383.5,-478.94"/>
</g>
<!-- switch_19_out&#45;&gt;stateAdd_20 -->
<g id="edge30" class="edge">
<title>switch_19_out&#45;&gt;stateAdd_20</title>
<path fill="none" stroke="#2c3e50" d="M382.75,-458.31C389.37,-448.38 406.66,-422.45 419.95,-402.51"/>
<polygon fill="#2c3e50" stroke="#2c3e50" points="422.91,-404.38 425.54,-394.12 417.09,-400.5 422.91,-404.38"/>
</g>
<!-- stateAdd_20&#45;&gt;state_read_memory_21 -->
<g id="edge35" class="edge">
<title>stateAdd_20&#45;&gt;state_read_memory_21</title>
<path fill="none" stroke="#e67e22" stroke-dasharray="1,5" d="M452.23,-393.97C462.14,-406.3 474.1,-423.92 479,-441.94 600.18,-887.23 510.36,-1018.54 504,-1479.98 498.44,-1882.98 534.21,-1987.23 479,-2386.48 477.66,-2396.19 475.26,-2406.67 472.83,-2415.88"/>
<polygon fill="#e67e22" stroke="#e67e22" points="469.43,-2415.05 470.13,-2425.62 476.18,-2416.92 469.43,-2415.05"/>
<text text-anchor="middle" x="536" y="-1472.78" font-family="Helvetica,sans-Serif" font-size="9.00" fill="#e67e22">state:memory</text>
</g>
<!-- loop_22 -->
<g id="node26" class="node">
<title>loop_22</title>
<polygon fill="#d7bde2" stroke="black" points="491,-299.94 387,-299.94 383,-295.94 383,-243.94 487,-243.94 491,-247.94 491,-299.94"/>
<polyline fill="none" stroke="black" points="487,-295.94 383,-295.94 "/>
<polyline fill="none" stroke="black" points="487,-295.94 487,-243.94 "/>
<polyline fill="none" stroke="black" points="487,-295.94 491,-299.94 "/>
<text text-anchor="middle" x="437" y="-287.14" font-family="Helvetica,sans-Serif" font-size="11.00">loop</text>
<text text-anchor="middle" x="437" y="-275.14" font-family="Helvetica,sans-Serif" font-size="11.00">body: Linear</text>
<text text-anchor="middle" x="437" y="-263.14" font-family="Helvetica,sans-Serif" font-size="11.00">cond: threshHalt</text>
<text text-anchor="middle" x="437" y="-251.14" font-family="Helvetica,sans-Serif" font-size="11.00">[72 params]</text>
</g>
<!-- stateAdd_20&#45;&gt;loop_22 -->
<g id="edge32" class="edge">
<title>stateAdd_20&#45;&gt;loop_22</title>
<path fill="none" stroke="#2c3e50" d="M437,-357.64C437,-344.67 437,-326.46 437,-310.24"/>
<polygon fill="#2c3e50" stroke="#2c3e50" points="440.5,-309.94 437,-299.94 433.5,-309.94 440.5,-309.94"/>
</g>
<!-- loop_23 -->
<g id="node27" class="node">
<title>loop_23</title>
<polygon fill="#d7bde2" stroke="black" points="491,-185.94 387,-185.94 383,-181.94 383,-129.94 487,-129.94 491,-133.94 491,-185.94"/>
<polyline fill="none" stroke="black" points="487,-181.94 383,-181.94 "/>
<polyline fill="none" stroke="black" points="487,-181.94 487,-129.94 "/>
<polyline fill="none" stroke="black" points="487,-181.94 491,-185.94 "/>
<text text-anchor="middle" x="437" y="-173.14" font-family="Helvetica,sans-Serif" font-size="11.00">loop</text>
<text text-anchor="middle" x="437" y="-161.14" font-family="Helvetica,sans-Serif" font-size="11.00">body: Linear</text>
<text text-anchor="middle" x="437" y="-149.14" font-family="Helvetica,sans-Serif" font-size="11.00">cond: threshHalt</text>
<text text-anchor="middle" x="437" y="-137.14" font-family="Helvetica,sans-Serif" font-size="11.00">[72 params]</text>
</g>
<!-- loop_22&#45;&gt;loop_23 -->
<g id="edge33" class="edge">
<title>loop_22&#45;&gt;loop_23</title>
<path fill="none" stroke="#2c3e50" d="M437,-243.83C437,-229.62 437,-212.01 437,-196.51"/>
<polygon fill="#2c3e50" stroke="#2c3e50" points="440.5,-196.19 437,-186.19 433.5,-196.19 440.5,-196.19"/>
</g>
<!-- Linear_24 -->
<g id="node28" class="node">
<title>Linear_24</title>
<polygon fill="#a9dfbf" stroke="black" points="510.34,-52.6 437,-71.91 363.66,-52.6 363.73,-21.37 510.27,-21.37 510.34,-52.6"/>
<text text-anchor="middle" x="437" y="-47.17" font-family="Helvetica,sans-Serif" font-size="11.00">Linear</text>
<text text-anchor="middle" x="437" y="-35.17" font-family="Helvetica,sans-Serif" font-size="11.00">[18 params]</text>
</g>
<!-- loop_23&#45;&gt;Linear_24 -->
<g id="edge34" class="edge">
<title>loop_23&#45;&gt;Linear_24</title>
<path fill="none" stroke="#2c3e50" d="M437,-129.83C437,-115.64 437,-98.02 437,-82.53"/>
<polygon fill="#2c3e50" stroke="#2c3e50" points="440.5,-82.21 437,-72.21 433.5,-82.21 440.5,-82.21"/>
</g>
</g>
</svg>
