<?xml version="1.0" encoding="UTF-8" standalone="no"?>
<!DOCTYPE svg PUBLIC "-//W3C//DTD SVG 1.1//EN"
 "http://www.w3.org/Graphics/SVG/1.1/DTD/svg11.dtd">
<!-- Generated by graphviz version 2.43.0 (0)
 -->
<!-- Title: G Pages: 1 -->
<svg width="589pt" height="2528pt"
 viewBox="0.00 0.00 589.00 2528.39" xmlns="http://www.w3.org/2000/svg" xmlns:xlink="http://www.w3.org/1999/xlink">
<g id="graph0" class="graph" transform="scale(1 1) rotate(0) translate(4 2524.39)">
<title>G</title>
<polygon fill="white" stroke="transparent" points="-4,4 -4,-2524.39 585,-2524.39 585,4 -4,4"/>
<g id="clust1" class="cluster">
<title>cluster_level_0</title>
<polygon fill="none" stroke="#999999" stroke-dasharray="5,2" points="178,-2396.48 178,-2512.39 573,-2512.39 573,-2396.48 178,-2396.48"/>
<text text-anchor="middle" x="375.5" y="-2497.19" font-family="Helvetica,sans-Serif" font-size="14.00" fill="#999999">level 0</text>
</g>
<g id="clust2" class="cluster">
<title>cluster_level_1</title>
<polygon fill="none" stroke="#999999" stroke-dasharray="5,2" points="190,-2302.48 190,-2377.48 260,-2377.48 260,-2302.48 190,-2302.48"/>
<text text-anchor="middle" x="225" y="-2362.28" font-family="Helvetica,sans-Serif" font-size="14.00" fill="#999999">level 1</text>
</g>
<g id="clust3" class="cluster">
<title>cluster_level_2</title>
<polygon fill="none" stroke="#999999" stroke-dasharray="5,2" points="164,-2208.48 164,-2283.48 264,-2283.48 264,-2208.48 164,-2208.48"/>
<text text-anchor="middle" x="214" y="-2268.28" font-family="Helvetica,sans-Serif" font-size="14.00" fill="#999999">level 2</text>
</g>
<g id="clust4" class="cluster">
<title>cluster_level_3</title>
<polygon fill="none" stroke="#999999" stroke-dasharray="5,2" points="62,-2114.48 62,-2189.48 264,-2189.48 264,-2114.48 62,-2114.48"/>
<text text-anchor="middle" x="163" y="-2174.28" font-family="Helvetica,sans-Serif" font-size="14.00" fill="#999999">level 3</text>
</g>
<g id="clust5" class="cluster">
<title>cluster_level_4</title>
<polygon fill="none" stroke="#999999" stroke-dasharray="5,2" points="100,-2020.48 100,-2095.48 198,-2095.48 198,-2020.48 100,-2020.48"/>
<text text-anchor="middle" x="149" y="-2080.28" font-family="Helvetica,sans-Serif" font-size="14.00" fill="#999999">level 4</text>
</g>
<g id="clust6" class="cluster">
<title>cluster_level_5</title>
<polygon fill="none" stroke="#999999" stroke-dasharray="5,2" points="144,-1926.48 144,-2001.48 244,-2001.48 244,-1926.48 144,-1926.48"/>
<text text-anchor="middle" x="194" y="-1986.28" font-family="Helvetica,sans-Serif" font-size="14.00" fill="#999999">level 5</text>
</g>
<g id="clust7" class="cluster">
<title>cluster_level_6</title>
<polygon fill="none" stroke="#999999" stroke-dasharray="5,2" points="105,-1823.98 105,-1907.48 167,-1907.48 167,-1823.98 105,-1823.98"/>
<text text-anchor="middle" x="136" y="-1892.28" font-family="Helvetica,sans-Serif" font-size="14.00" fill="#999999">level 6</text>
</g>
<g id="clust8" class="cluster">
<title>cluster_level_7</title>
<polygon fill="none" stroke="#999999" stroke-dasharray="5,2" points="97,-1729.98 97,-1804.98 175,-1804.98 175,-1729.98 97,-1729.98"/>
<text text-anchor="middle" x="136" y="-1789.78" font-family="Helvetica,sans-Serif" font-size="14.00" fill="#999999">level 7</text>
</g>
<g id="clust9" class="cluster">
<title>cluster_level_8</title>
<polygon fill="none" stroke="#999999" stroke-dasharray="5,2" points="8,-1583.98 8,-1710.98 264,-1710.98 264,-1583.98 8,-1583.98"/>
<text text-anchor="middle" x="136" y="-1695.78" font-family="Helvetica,sans-Serif" font-size="14.00" fill="#999999">level 8</text>
</g>
<g id="clust10" class="cluster">
<title>cluster_level_9</title>
<polygon fill="none" stroke="#999999" stroke-dasharray="5,2" points="79,-1489.98 79,-1564.98 197,-1564.98 197,-1489.98 79,-1489.98"/>
<text text-anchor="middle" x="138" y="-1549.78" font-family="Helvetica,sans-Serif" font-size="14.00" fill="#999999">level 9</text>
</g>
<g id="clust11" class="cluster">
<title>cluster_level_10</title>
<polygon fill="none" stroke="#999999" stroke-dasharray="5,2" points="61,-1310.98 61,-1461.98 251,-1461.98 251,-1310.98 61,-1310.98"/>
<text text-anchor="middle" x="156" y="-1446.78" font-family="Helvetica,sans-Serif" font-size="14.00" fill="#999999">level 10</text>
</g>
<g id="clust12" class="cluster">
<title>cluster_level_11</title>
<polygon fill="none" stroke="#999999" stroke-dasharray="5,2" points="66,-1164.98 66,-1291.98 256,-1291.98 256,-1164.98 66,-1164.98"/>
<text text-anchor="middle" x="161" y="-1276.78" font-family="Helvetica,sans-Serif" font-size="14.00" fill="#999999">level 11</text>
</g>
<g id="clust13" class="cluster">
<title>cluster_level_12</title>
<polygon fill="none" stroke="#999999" stroke-dasharray="5,2" points="104,-1070.98 104,-1145.98 222,-1145.98 222,-1070.98 104,-1070.98"/>
<text text-anchor="middle" x="163" y="-1130.78" font-family="Helvetica,sans-Serif" font-size="14.00" fill="#999999">level 12</text>
</g>
<g id="clust14" class="cluster">
<title>cluster_level_13</title>
<polygon fill="none" stroke="#999999" stroke-dasharray="5,2" points="122,-968.98 122,-1051.98 222,-1051.98 222,-968.98 122,-968.98"/>
<text text-anchor="middle" x="172" y="-1036.78" font-family="Helvetica,sans-Serif" font-size="14.00" fill="#999999">level 13</text>
</g>
<g id="clust15" class="cluster">
<title>cluster_level_14</title>
<polygon fill="none" stroke="#999999" stroke-dasharray="5,2" points="20,-874.98 20,-949.98 338,-949.98 338,-874.98 20,-874.98"/>
<text text-anchor="middle" x="179" y="-934.78" font-family="Helvetica,sans-Serif" font-size="14.00" fill="#999999">level 14</text>
</g>
<g id="clust16" class="cluster">
<title>cluster_level_15</title>
<polygon fill="none" stroke="#999999" stroke-dasharray="5,2" points="154,-700.94 154,-846.98 278,-846.98 278,-700.94 154,-700.94"/>
<text text-anchor="middle" x="216" y="-831.78" font-family="Helvetica,sans-Serif" font-size="14.00" fill="#999999">level 15</text>
</g>
<g id="clust17" class="cluster">
<title>cluster_level_16</title>
<polygon fill="none" stroke="#999999" stroke-dasharray="5,2" points="204,-441.94 204,-681.94 440,-681.94 440,-441.94 204,-441.94"/>
<text text-anchor="middle" x="322" y="-666.74" font-family="Helvetica,sans-Serif" font-size="14.00" fill="#999999">level 16</text>
</g>
<g id="clust18" class="cluster">
<title>cluster_switch_19</title>
<polygon fill="#fef9e7" stroke="#f5cba7" points="212,-449.94 212,-650.94 432,-650.94 432,-449.94 212,-449.94"/>
<text text-anchor="middle" x="322" y="-638.94" font-family="Helvetica,sans-Serif" font-size="10.00" fill="#999999">Switch</text>
</g>
<g id="clust19" class="cluster">
<title>cluster_level_17</title>
<polygon fill="none" stroke="#999999" stroke-dasharray="5,2" points="386,-349.94 386,-424.94 474,-424.94 474,-349.94 386,-349.94"/>
<text text-anchor="middle" x="430" y="-409.74" font-family="Helvetica,sans-Serif" font-size="14.00" fill="#999999">level 17</text>
</g>
<g id="clust20" class="cluster">
<title>cluster_level_18</title>
<polygon fill="none" stroke="#999999" stroke-dasharray="5,2" points="368,-235.94 368,-330.94 492,-330.94 492,-235.94 368,-235.94"/>
<text text-anchor="middle" x="430" y="-315.74" font-family="Helvetica,sans-Serif" font-size="14.00" fill="#999999">level 18</text>
</g>
<g id="clust21" class="cluster">
<title>cluster_level_19</title>
<polygon fill="none" stroke="#999999" stroke-dasharray="5,2" points="368,-121.94 368,-216.94 492,-216.94 492,-121.94 368,-121.94"/>
<text text-anchor="middle" x="430" y="-201.74" font-family="Helvetica,sans-Serif" font-size="14.00" fill="#999999">level 19</text>
</g>
<g id="clust22" class="cluster">
<title>cluster_level_20</title>
<polygon fill="none" stroke="#999999" stroke-dasharray="5,2" points="349,-8 349,-102.94 511,-102.94 511,-8 349,-8"/>
<text text-anchor="middle" x="430" y="-87.74" font-family="Helvetica,sans-Serif" font-size="14.00" fill="#999999">level 20</text>
</g>
<!-- Linear_0 -->
<g id="node1" class="node">
<title>Linear_0</title>
<polygon fill="#aed6f1" stroke="black" points="185.66,-2431.06 259,-2404.52 332.34,-2431.06 332.27,-2474.01 185.73,-2474.01 185.66,-2431.06"/>
<text text-anchor="middle" x="259" y="-2452.13" font-family="Helvetica,sans-Serif" font-size="11.00">Linear</text>
<text text-anchor="middle" x="259" y="-2440.13" font-family="Helvetica,sans-Serif" font-size="11.00">[24 params]</text>
<text text-anchor="middle" x="259" y="-2428.13" font-family="Helvetica,sans-Serif" font-size="11.00">#input</text>
</g>
<!-- GELU_1 -->
<g id="node3" class="node">
<title>GELU_1</title>
<ellipse fill="#fdebd0" stroke="black" cx="225" cy="-2328.48" rx="27.12" ry="18"/>
<text text-anchor="middle" x="225" y="-2325.68" font-family="Helvetica,sans-Serif" font-size="11.00">GELU</text>
</g>
<!-- Linear_0&#45;&gt;GELU_1 -->
<g id="edge5" class="edge">
<title>Linear_0&#45;&gt;GELU_1</title>
<path fill="none" stroke="#2c3e50" d="M248.8,-2408.19C243.78,-2391.58 237.81,-2371.83 233.1,-2356.28"/>
<polygon fill="#2c3e50" stroke="#2c3e50" points="236.32,-2354.82 230.08,-2346.26 229.62,-2356.85 236.32,-2354.82"/>
</g>
<!-- softmaxRouter_15 -->
<g id="node17" class="node">
<title>softmaxRouter_15</title>
<polygon fill="#eaecee" stroke="black" points="330,-918.98 232,-918.98 232,-882.98 330,-882.98 330,-918.98"/>
<text text-anchor="middle" x="281" y="-904.18" font-family="Helvetica,sans-Serif" font-size="11.00">softmaxRouter</text>
<text text-anchor="middle" x="281" y="-892.18" font-family="Helvetica,sans-Serif" font-size="11.00">[18 params]</text>
</g>
<!-- Linear_0&#45;&gt;softmaxRouter_15 -->
<g id="edge27" class="edge">
<title>Linear_0&#45;&gt;softmaxRouter_15</title>
<path fill="none" stroke="#2980b9" stroke-dasharray="5,2" d="M270.48,-2408.41C277.05,-2386.27 284,-2356.48 284,-2329.48 284,-2329.48 284,-2329.48 284,-997.98 284,-974.87 283.12,-948.65 282.31,-929.46"/>
<polygon fill="#2980b9" stroke="#2980b9" points="285.8,-929.15 281.87,-919.31 278.81,-929.46 285.8,-929.15"/>
<text text-anchor="middle" x="296.5" y="-1753.78" font-family="Helvetica,sans-Serif" font-size="9.00" fill="#2980b9">input</text>
</g>
<!-- state_read_memory_21 -->
<g id="node2" class="node">
<title>state_read_memory_21</title>
<polygon fill="#f9e79f" stroke="black" points="458,-2460.93 350.69,-2442.93 458,-2424.93 565.31,-2442.93 458,-2460.93"/>
<text text-anchor="middle" x="458" y="-2440.13" font-family="Helvetica,sans-Serif" font-size="11.00">state_read_memory</text>
</g>
<!-- stateAdd_20 -->
<g id="node25" class="node">
<title>stateAdd_20</title>
<polygon fill="#eaecee" stroke="black" points="465.5,-393.94 394.5,-393.94 394.5,-357.94 465.5,-357.94 465.5,-393.94"/>
<text text-anchor="middle" x="430" y="-379.14" font-family="Helvetica,sans-Serif" font-size="11.00">stateAdd</text>
<text text-anchor="middle" x="430" y="-367.14" font-family="Helvetica,sans-Serif" font-size="11.00">#memory</text>
</g>
<!-- state_read_memory_21&#45;&gt;stateAdd_20 -->
<g id="edge31" class="edge">
<title>state_read_memory_21&#45;&gt;stateAdd_20</title>
<path fill="none" stroke="#2980b9" stroke-dasharray="5,2" d="M458,-2424.79C458,-2402.73 458,-2363.25 458,-2329.48 458,-2329.48 458,-2329.48 458,-462.44 458,-442 450.69,-420.12 443.53,-403.61"/>
<polygon fill="#2980b9" stroke="#2980b9" points="446.52,-401.72 439.17,-394.08 440.15,-404.63 446.52,-401.72"/>
<text text-anchor="middle" x="477" y="-1472.78" font-family="Helvetica,sans-Serif" font-size="9.00" fill="#2980b9">memory</text>
</g>
<!-- LayerNorm_2 -->
<g id="node4" class="node">
<title>LayerNorm_2</title>
<polygon fill="#d5f5e3" stroke="black" points="256,-2252.48 172,-2252.48 172,-2216.48 256,-2216.48 256,-2252.48"/>
<text text-anchor="middle" x="214" y="-2237.68" font-family="Helvetica,sans-Serif" font-size="11.00">LayerNorm</text>
<text text-anchor="middle" x="214" y="-2225.68" font-family="Helvetica,sans-Serif" font-size="11.00">[16 params]</text>
</g>
<!-- GELU_1&#45;&gt;LayerNorm_2 -->
<g id="edge6" class="edge">
<title>GELU_1&#45;&gt;LayerNorm_2</title>
<path fill="none" stroke="#2c3e50" d="M222.93,-2310.17C221.33,-2296.81 219.09,-2278.06 217.25,-2262.69"/>
<polygon fill="#2c3e50" stroke="#2c3e50" points="220.72,-2262.22 216.06,-2252.7 213.77,-2263.05 220.72,-2262.22"/>
</g>
<!-- Graph_3 -->
<g id="node5" class="node">
<title>Graph_3</title>
<polygon fill="#d6eaf8" stroke="black" points="154,-2158.48 70,-2158.48 70,-2122.48 154,-2122.48 154,-2158.48"/>
<text text-anchor="middle" x="112" y="-2143.68" font-family="Helvetica,sans-Serif" font-size="11.00">Graph (sub)</text>
<text text-anchor="middle" x="112" y="-2131.68" font-family="Helvetica,sans-Serif" font-size="11.00">[88 params]</text>
</g>
<!-- LayerNorm_2&#45;&gt;Graph_3 -->
<g id="edge7" class="edge">
<title>LayerNorm_2&#45;&gt;Graph_3</title>
<path fill="none" stroke="#2c3e50" d="M193.47,-2216.12C184.1,-2208.1 172.9,-2198.4 163,-2189.48 154.51,-2181.83 145.38,-2173.33 137.23,-2165.63"/>
<polygon fill="#2c3e50" stroke="#2c3e50" points="139.43,-2162.89 129.76,-2158.55 134.61,-2167.97 139.43,-2162.89"/>
</g>
<!-- Graph_4 -->
<g id="node6" class="node">
<title>Graph_4</title>
<polygon fill="#d6eaf8" stroke="black" points="256,-2158.48 172,-2158.48 172,-2122.48 256,-2122.48 256,-2158.48"/>
<text text-anchor="middle" x="214" y="-2143.68" font-family="Helvetica,sans-Serif" font-size="11.00">Graph (sub)</text>
<text text-anchor="middle" x="214" y="-2131.68" font-family="Helvetica,sans-Serif" font-size="11.00">[88 params]</text>
</g>
<!-- LayerNorm_2&#45;&gt;Graph_4 -->
<g id="edge8" class="edge">
<title>LayerNorm_2&#45;&gt;Graph_4</title>
<path fill="none" stroke="#2c3e50" d="M214,-2216.17C214,-2202.94 214,-2184.42 214,-2169.14"/>
<polygon fill="#2c3e50" stroke="#2c3e50" points="217.5,-2168.7 214,-2158.7 210.5,-2168.7 217.5,-2168.7"/>
</g>
<!-- meanMerge_5 -->
<g id="node7" class="node">
<title>meanMerge_5</title>
<polygon fill="#eaecee" stroke="black" points="190,-2064.48 108,-2064.48 108,-2028.48 190,-2028.48 190,-2064.48"/>
<text text-anchor="middle" x="149" y="-2043.68" font-family="Helvetica,sans-Serif" font-size="11.00">meanMerge</text>
</g>
<!-- Graph_3&#45;&gt;meanMerge_5 -->
<g id="edge9" class="edge">
<title>Graph_3&#45;&gt;meanMerge_5</title>
<path fill="none" stroke="#2c3e50" d="M118.96,-2122.17C124.39,-2108.68 132.02,-2089.7 138.23,-2074.25"/>
<polygon fill="#2c3e50" stroke="#2c3e50" points="141.59,-2075.29 142.07,-2064.7 135.09,-2072.67 141.59,-2075.29"/>
</g>
<!-- Graph_4&#45;&gt;meanMerge_5 -->
<g id="edge10" class="edge">
<title>Graph_4&#45;&gt;meanMerge_5</title>
<path fill="none" stroke="#2c3e50" d="M201.77,-2122.17C191.97,-2108.29 178.06,-2088.61 166.99,-2072.94"/>
<polygon fill="#2c3e50" stroke="#2c3e50" points="169.8,-2070.85 161.17,-2064.7 164.08,-2074.89 169.8,-2070.85"/>
</g>
<!-- Linear_6 -->
<g id="node8" class="node">
<title>Linear_6</title>
<polygon fill="#eaecee" stroke="black" points="236,-1970.48 152,-1970.48 152,-1934.48 236,-1934.48 236,-1970.48"/>
<text text-anchor="middle" x="194" y="-1955.68" font-family="Helvetica,sans-Serif" font-size="11.00">Linear</text>
<text text-anchor="middle" x="194" y="-1943.68" font-family="Helvetica,sans-Serif" font-size="11.00">[72 params]</text>
</g>
<!-- meanMerge_5&#45;&gt;Linear_6 -->
<g id="edge11" class="edge">
<title>meanMerge_5&#45;&gt;Linear_6</title>
<path fill="none" stroke="#2c3e50" d="M157.46,-2028.17C164.13,-2014.55 173.52,-1995.34 181.12,-1979.81"/>
<polygon fill="#2c3e50" stroke="#2c3e50" points="184.32,-1981.22 185.57,-1970.7 178.04,-1978.15 184.32,-1981.22"/>
</g>
<!-- add_7 -->
<g id="node9" class="node">
<title>add_7</title>
<ellipse fill="#d5dbdb" stroke="black" cx="136" cy="-1854.23" rx="22.5" ry="22.5"/>
<text text-anchor="middle" x="136" y="-1851.43" font-family="Helvetica,sans-Serif" font-size="11.00">add</text>
</g>
<!-- meanMerge_5&#45;&gt;add_7 -->
<g id="edge12" class="edge">
<title>meanMerge_5&#45;&gt;add_7</title>
<path fill="none" stroke="#2c3e50" d="M144.8,-2028.45C142.98,-2020.34 141.03,-2010.46 140,-2001.48 135.47,-1962.15 134.98,-1916.5 135.28,-1886.8"/>
<polygon fill="#2c3e50" stroke="#2c3e50" points="138.78,-1886.67 135.42,-1876.62 131.78,-1886.57 138.78,-1886.67"/>
</g>
<!-- Linear_6&#45;&gt;add_7 -->
<g id="edge13" class="edge">
<title>Linear_6&#45;&gt;add_7</title>
<path fill="none" stroke="#2c3e50" d="M183.63,-1934.27C174.94,-1919.85 162.39,-1899.01 152.35,-1882.35"/>
<polygon fill="#2c3e50" stroke="#2c3e50" points="155.23,-1880.35 147.07,-1873.6 149.23,-1883.97 155.23,-1880.35"/>
</g>
<!-- Dropout_8 -->
<g id="node10" class="node">
<title>Dropout_8</title>
<polygon fill="#fadbd8" stroke="black" points="166.5,-1773.98 105.5,-1773.98 105.5,-1737.98 166.5,-1737.98 166.5,-1773.98"/>
<text text-anchor="middle" x="136" y="-1753.18" font-family="Helvetica,sans-Serif" font-size="11.00">Dropout</text>
</g>
<!-- add_7&#45;&gt;Dropout_8 -->
<g id="edge14" class="edge">
<title>add_7&#45;&gt;Dropout_8</title>
<path fill="none" stroke="#2c3e50" d="M136,-1831.86C136,-1817.87 136,-1799.45 136,-1784.38"/>
<polygon fill="#2c3e50" stroke="#2c3e50" points="139.5,-1784.11 136,-1774.11 132.5,-1784.11 139.5,-1784.11"/>
</g>
<!-- map_9 -->
<g id="node11" class="node">
<title>map_9</title>
<polygon fill="#a9cce3" stroke="black" points="256.03,-1679.98 65.09,-1679.98 15.97,-1591.98 206.91,-1591.98 256.03,-1679.98"/>
<text text-anchor="middle" x="136" y="-1645.18" font-family="Helvetica,sans-Serif" font-size="11.00">map</text>
<text text-anchor="middle" x="136" y="-1633.18" font-family="Helvetica,sans-Serif" font-size="11.00">body: Graph (sub)</text>
<text text-anchor="middle" x="136" y="-1621.18" font-family="Helvetica,sans-Serif" font-size="11.00">[10 params]</text>
</g>
<!-- Dropout_8&#45;&gt;map_9 -->
<g id="edge15" class="edge">
<title>Dropout_8&#45;&gt;map_9</title>
<path fill="none" stroke="#2c3e50" d="M136,-1737.82C136,-1725.21 136,-1707.34 136,-1690.15"/>
<polygon fill="#2c3e50" stroke="#2c3e50" points="139.5,-1690.14 136,-1680.14 132.5,-1690.14 139.5,-1690.14"/>
</g>
<!-- reshapeModule_10 -->
<g id="node12" class="node">
<title>reshapeModule_10</title>
<polygon fill="#eaecee" stroke="black" points="188.5,-1533.98 87.5,-1533.98 87.5,-1497.98 188.5,-1497.98 188.5,-1533.98"/>
<text text-anchor="middle" x="138" y="-1513.18" font-family="Helvetica,sans-Serif" font-size="11.00">reshapeModule</text>
</g>
<!-- map_9&#45;&gt;reshapeModule_10 -->
<g id="edge16" class="edge">
<title>map_9&#45;&gt;reshapeModule_10</title>
<path fill="none" stroke="#2c3e50" d="M136.73,-1591.71C137,-1575.77 137.3,-1558.19 137.54,-1544.08"/>
<polygon fill="#2c3e50" stroke="#2c3e50" points="141.04,-1544.11 137.71,-1534.06 134.04,-1543.99 141.04,-1544.11"/>
</g>
<!-- map_11 -->
<g id="node13" class="node">
<title>map_11</title>
<polygon fill="#a9cce3" stroke="black" points="243.17,-1430.98 104.5,-1430.98 68.83,-1318.98 207.5,-1318.98 243.17,-1430.98"/>
<text text-anchor="middle" x="156" y="-1390.18" font-family="Helvetica,sans-Serif" font-size="11.00">map</text>
<text text-anchor="middle" x="156" y="-1378.18" font-family="Helvetica,sans-Serif" font-size="11.00">body: Linear</text>
<text text-anchor="middle" x="156" y="-1366.18" font-family="Helvetica,sans-Serif" font-size="11.00">[20 params]</text>
<text text-anchor="middle" x="156" y="-1354.18" font-family="Helvetica,sans-Serif" font-size="11.00">#halves</text>
</g>
<!-- reshapeModule_10&#45;&gt;map_11 -->
<g id="edge17" class="edge">
<title>reshapeModule_10&#45;&gt;map_11</title>
<path fill="none" stroke="#2c3e50" d="M140.21,-1497.93C142.06,-1483.6 144.84,-1462.16 147.55,-1441.24"/>
<polygon fill="#2c3e50" stroke="#2c3e50" points="151.06,-1441.4 148.87,-1431.04 144.11,-1440.51 151.06,-1441.4"/>
</g>
<!-- map_12 -->
<g id="node14" class="node">
<title>map_12</title>
<polygon fill="#a9cce3" stroke="black" points="248.17,-1260.98 109.5,-1260.98 73.83,-1172.98 212.5,-1172.98 248.17,-1260.98"/>
<text text-anchor="middle" x="161" y="-1226.18" font-family="Helvetica,sans-Serif" font-size="11.00">map</text>
<text text-anchor="middle" x="161" y="-1214.18" font-family="Helvetica,sans-Serif" font-size="11.00">body: Linear</text>
<text text-anchor="middle" x="161" y="-1202.18" font-family="Helvetica,sans-Serif" font-size="11.00">[20 params]</text>
</g>
<!-- map_11&#45;&gt;map_12 -->
<g id="edge18" class="edge">
<title>map_11&#45;&gt;map_12</title>
<path fill="none" stroke="#2c3e50" d="M157.78,-1318.54C158.27,-1303.17 158.8,-1286.52 159.29,-1271.27"/>
<polygon fill="#2c3e50" stroke="#2c3e50" points="162.8,-1271.09 159.62,-1260.98 155.8,-1270.86 162.8,-1271.09"/>
</g>
<!-- reshapeModule_13 -->
<g id="node15" class="node">
<title>reshapeModule_13</title>
<polygon fill="#eaecee" stroke="black" points="213.5,-1114.98 112.5,-1114.98 112.5,-1078.98 213.5,-1078.98 213.5,-1114.98"/>
<text text-anchor="middle" x="163" y="-1094.18" font-family="Helvetica,sans-Serif" font-size="11.00">reshapeModule</text>
</g>
<!-- map_12&#45;&gt;reshapeModule_13 -->
<g id="edge19" class="edge">
<title>map_12&#45;&gt;reshapeModule_13</title>
<path fill="none" stroke="#2c3e50" d="M161.73,-1172.71C162,-1156.77 162.3,-1139.19 162.54,-1125.08"/>
<polygon fill="#2c3e50" stroke="#2c3e50" points="166.04,-1125.11 162.71,-1115.06 159.04,-1124.99 166.04,-1125.11"/>
</g>
<!-- loop_14 -->
<g id="node16" class="node">
<title>loop_14</title>
<polygon fill="#d7bde2" stroke="black" points="214,-1020.98 134,-1020.98 130,-1016.98 130,-976.98 210,-976.98 214,-980.98 214,-1020.98"/>
<polyline fill="none" stroke="black" points="210,-1016.98 130,-1016.98 "/>
<polyline fill="none" stroke="black" points="210,-1016.98 210,-976.98 "/>
<polyline fill="none" stroke="black" points="210,-1016.98 214,-1020.98 "/>
<text text-anchor="middle" x="172" y="-1008.18" font-family="Helvetica,sans-Serif" font-size="11.00">Graph (sub)</text>
<text text-anchor="middle" x="172" y="-996.18" font-family="Helvetica,sans-Serif" font-size="11.00">[88 params]</text>
<text text-anchor="middle" x="172" y="-984.18" font-family="Helvetica,sans-Serif" font-size="11.00">#refined</text>
</g>
<!-- reshapeModule_13&#45;&gt;loop_14 -->
<g id="edge20" class="edge">
<title>reshapeModule_13&#45;&gt;loop_14</title>
<path fill="none" stroke="#2c3e50" d="M164.61,-1078.81C165.84,-1065.67 167.58,-1047.17 169.05,-1031.4"/>
<polygon fill="#2c3e50" stroke="#2c3e50" points="172.58,-1031.29 170.03,-1021.01 165.61,-1030.64 172.58,-1031.29"/>
</g>
<!-- loop_14&#45;&gt;softmaxRouter_15 -->
<g id="edge21" class="edge">
<title>loop_14&#45;&gt;softmaxRouter_15</title>
<path fill="none" stroke="#2c3e50" d="M195.92,-976.91C212.98,-961.88 235.96,-941.64 253.74,-925.99"/>
<polygon fill="#2c3e50" stroke="#2c3e50" points="256.31,-928.39 261.5,-919.15 251.68,-923.13 256.31,-928.39"/>
</g>
<!-- Linear_16 -->
<g id="node18" class="node">
<title>Linear_16</title>
<polygon fill="#eaecee" stroke="black" points="214,-918.98 130,-918.98 130,-882.98 214,-882.98 214,-918.98"/>
<text text-anchor="middle" x="172" y="-904.18" font-family="Helvetica,sans-Serif" font-size="11.00">Linear</text>
<text text-anchor="middle" x="172" y="-892.18" font-family="Helvetica,sans-Serif" font-size="11.00">[72 params]</text>
</g>
<!-- loop_14&#45;&gt;Linear_16 -->
<g id="edge22" class="edge">
<title>loop_14&#45;&gt;Linear_16</title>
<path fill="none" stroke="#2c3e50" d="M172,-976.67C172,-962.71 172,-944.34 172,-929.31"/>
<polygon fill="#2c3e50" stroke="#2c3e50" points="175.5,-929.07 172,-919.07 168.5,-929.07 175.5,-929.07"/>
</g>
<!-- Linear_17 -->
<g id="node19" class="node">
<title>Linear_17</title>
<polygon fill="#eaecee" stroke="black" points="112,-918.98 28,-918.98 28,-882.98 112,-882.98 112,-918.98"/>
<text text-anchor="middle" x="70" y="-904.18" font-family="Helvetica,sans-Serif" font-size="11.00">Linear</text>
<text text-anchor="middle" x="70" y="-892.18" font-family="Helvetica,sans-Serif" font-size="11.00">[72 params]</text>
</g>
<!-- loop_14&#45;&gt;Linear_17 -->
<g id="edge23" class="edge">
<title>loop_14&#45;&gt;Linear_17</title>
<path fill="none" stroke="#2c3e50" d="M149.62,-976.91C133.79,-962.01 112.53,-942.01 95.96,-926.41"/>
<polygon fill="#2c3e50" stroke="#2c3e50" points="97.93,-923.46 88.25,-919.15 93.13,-928.55 97.93,-923.46"/>
</g>
<!-- switch_19 -->
<g id="node21" class="node">
<title>switch_19</title>
<polygon fill="#f5cba7" stroke="black" points="322,-623.94 220.6,-605.94 322,-587.94 423.4,-605.94 322,-623.94"/>
<text text-anchor="middle" x="322" y="-603.14" font-family="Helvetica,sans-Serif" font-size="11.00">heavyPathSelector</text>
</g>
<!-- loop_14&#45;&gt;switch_19 -->
<g id="edge29" class="edge">
<title>loop_14&#45;&gt;switch_19</title>
<path fill="none" stroke="#2980b9" stroke-dasharray="5,2" d="M214.16,-991.94C259.32,-984.52 326.59,-970.33 342,-949.98 415.32,-853.09 359.32,-693.25 333.36,-631.94"/>
<polygon fill="#2980b9" stroke="#2980b9" points="336.52,-630.43 329.33,-622.65 330.1,-633.21 336.52,-630.43"/>
<text text-anchor="middle" x="392.5" y="-857.78" font-family="Helvetica,sans-Serif" font-size="9.00" fill="#2980b9">refined</text>
</g>
<!-- gated_merge_18 -->
<g id="node20" class="node">
<title>gated_merge_18</title>
<ellipse fill="#d5dbdb" stroke="black" cx="216" cy="-762.46" rx="53.54" ry="53.54"/>
<text text-anchor="middle" x="216" y="-759.66" font-family="Helvetica,sans-Serif" font-size="11.00">gated_merge</text>
</g>
<!-- softmaxRouter_15&#45;&gt;gated_merge_18 -->
<g id="edge24" class="edge">
<title>softmaxRouter_15&#45;&gt;gated_merge_18</title>
<path fill="none" stroke="#7f8c8d" d="M272.9,-882.96C265.39,-867.19 253.79,-842.83 243.02,-820.2"/>
<polygon fill="#7f8c8d" stroke="#7f8c8d" points="246.08,-818.5 238.62,-810.97 239.76,-821.51 246.08,-818.5"/>
</g>
<!-- Linear_16&#45;&gt;gated_merge_18 -->
<g id="edge25" class="edge">
<title>Linear_16&#45;&gt;gated_merge_18</title>
<path fill="none" stroke="#7f8c8d" d="M177.48,-882.96C182.34,-867.89 189.73,-844.98 196.74,-823.23"/>
<polygon fill="#7f8c8d" stroke="#7f8c8d" points="200.08,-824.27 199.81,-813.68 193.42,-822.12 200.08,-824.27"/>
</g>
<!-- Linear_17&#45;&gt;gated_merge_18 -->
<g id="edge26" class="edge">
<title>Linear_17&#45;&gt;gated_merge_18</title>
<path fill="none" stroke="#7f8c8d" d="M88.2,-882.96C108.46,-864.01 142,-832.65 169.63,-806.81"/>
<polygon fill="#7f8c8d" stroke="#7f8c8d" points="172.34,-809.07 177.26,-799.68 167.56,-803.96 172.34,-809.07"/>
</g>
<!-- gated_merge_18&#45;&gt;switch_19 -->
<g id="edge28" class="edge">
<title>gated_merge_18&#45;&gt;switch_19</title>
<path fill="none" stroke="#2c3e50" d="M245.81,-718C265.16,-689.79 289.65,-654.09 305.57,-630.89"/>
<polygon fill="#2c3e50" stroke="#2c3e50" points="308.65,-632.59 311.42,-622.36 302.87,-628.63 308.65,-632.59"/>
</g>
<!-- switch_19_b0 -->
<g id="node22" class="node">
<title>switch_19_b0</title>
<polygon fill="#eaecee" stroke="black" points="304,-541.94 220,-541.94 220,-505.94 304,-505.94 304,-541.94"/>
<text text-anchor="middle" x="262" y="-527.14" font-family="Helvetica,sans-Serif" font-size="11.00">[0] Linear</text>
<text text-anchor="middle" x="262" y="-515.14" font-family="Helvetica,sans-Serif" font-size="11.00">[72 params]</text>
</g>
<!-- switch_19&#45;&gt;switch_19_b0 -->
<g id="edge1" class="edge">
<title>switch_19&#45;&gt;switch_19_b0</title>
<path fill="none" stroke="#e67e22" stroke-dasharray="5,2" d="M310.71,-589.89C302.36,-578.75 290.78,-563.32 281.01,-550.29"/>
<polygon fill="#e67e22" stroke="#e67e22" points="283.7,-548.04 274.9,-542.14 278.1,-552.24 283.7,-548.04"/>
<text text-anchor="middle" x="298.5" y="-562.74" font-family="Helvetica,sans-Serif" font-size="9.00" fill="#e67e22">0</text>
</g>
<!-- switch_19_b1 -->
<g id="node23" class="node">
<title>switch_19_b1</title>
<polygon fill="#d6eaf8" stroke="black" points="423.5,-541.94 322.5,-541.94 322.5,-505.94 423.5,-505.94 423.5,-541.94"/>
<text text-anchor="middle" x="373" y="-527.14" font-family="Helvetica,sans-Serif" font-size="11.00">[1] Graph (sub)</text>
<text text-anchor="middle" x="373" y="-515.14" font-family="Helvetica,sans-Serif" font-size="11.00">[88 params]</text>
</g>
<!-- switch_19&#45;&gt;switch_19_b1 -->
<g id="edge3" class="edge">
<title>switch_19&#45;&gt;switch_19_b1</title>
<path fill="none" stroke="#e67e22" stroke-dasharray="5,2" d="M331.83,-589.51C338.89,-578.45 348.56,-563.28 356.75,-550.43"/>
<polygon fill="#e67e22" stroke="#e67e22" points="359.71,-552.29 362.14,-541.98 353.81,-548.53 359.71,-552.29"/>
<text text-anchor="middle" x="353.5" y="-562.74" font-family="Helvetica,sans-Serif" font-size="9.00" fill="#e67e22">1</text>
</g>
<!-- switch_19_out -->
<g id="node24" class="node">
<title>switch_19_out</title>
<ellipse fill="#d5dbdb" stroke="black" cx="373" cy="-463.44" rx="5.5" ry="5.5"/>
</g>
<!-- switch_19_b0&#45;&gt;switch_19_out -->
<g id="edge2" class="edge">
<title>switch_19_b0&#45;&gt;switch_19_out</title>
<path fill="none" stroke="#7f8c8d" d="M294.4,-505.86C316.03,-494.46 343.36,-480.06 359.43,-471.59"/>
<polygon fill="#7f8c8d" stroke="#7f8c8d" points="361.34,-474.54 368.55,-466.78 358.08,-468.35 361.34,-474.54"/>
</g>
<!-- switch_19_b1&#45;&gt;switch_19_out -->
<g id="edge4" class="edge">
<title>switch_19_b1&#45;&gt;switch_19_out</title>
<path fill="none" stroke="#7f8c8d" d="M373,-505.7C373,-497.29 373,-487.27 373,-479.21"/>
<polygon fill="#7f8c8d" stroke="#7f8c8d" points="376.5,-478.94 373,-468.94 369.5,-478.94 376.5,-478.94"/>
</g>
<!-- switch_19_out&#45;&gt;stateAdd_20 -->
<g id="edge30" class="edge">
<title>switch_19_out&#45;&gt;stateAdd_20</title>
<path fill="none" stroke="#2c3e50" d="M375.75,-458.31C382.37,-448.38 399.66,-422.45 412.95,-402.51"/>
<polygon fill="#2c3e50" stroke="#2c3e50" points="415.91,-404.38 418.54,-394.12 410.09,-400.5 415.91,-404.38"/>
</g>
<!-- stateAdd_20&#45;&gt;state_read_memory_21 -->
<g id="edge35" class="edge">
<title>stateAdd_20&#45;&gt;state_read_memory_21</title>
<path fill="none" stroke="#e67e22" stroke-dasharray="1,5" d="M445.23,-393.97C455.14,-406.3 467.1,-423.92 472,-441.94 593.18,-887.23 503.36,-1018.54 497,-1479.98 491.44,-1882.98 527.21,-1987.23 472,-2386.48 470.66,-2396.19 468.26,-2406.67 465.83,-2415.88"/>
<polygon fill="#e67e22" stroke="#e67e22" points="462.43,-2415.05 463.13,-2425.62 469.18,-2416.92 462.43,-2415.05"/>
<text text-anchor="middle" x="529" y="-1472.78" font-family="Helvetica,sans-Serif" font-size="9.00" fill="#e67e22">state:memory</text>
</g>
<!-- loop_22 -->
<g id="node26" class="node">
<title>loop_22</title>
<polygon fill="#d7bde2" stroke="black" points="484,-299.94 380,-299.94 376,-295.94 376,-243.94 480,-243.94 484,-247.94 484,-299.94"/>
<polyline fill="none" stroke="black" points="480,-295.94 376,-295.94 "/>
<polyline fill="none" stroke="black" points="480,-295.94 480,-243.94 "/>
<polyline fill="none" stroke="black" points="480,-295.94 484,-299.94 "/>
<text text-anchor="middle" x="430" y="-287.14" font-family="Helvetica,sans-Serif" font-size="11.00">loop</text>
<text text-anchor="middle" x="430" y="-275.14" font-family="Helvetica,sans-Serif" font-size="11.00">body: Linear</text>
<text text-anchor="middle" x="430" y="-263.14" font-family="Helvetica,sans-Serif" font-size="11.00">cond: threshHalt</text>
<text text-anchor="middle" x="430" y="-251.14" font-family="Helvetica,sans-Serif" font-size="11.00">[72 params]</text>
</g>
<!-- stateAdd_20&#45;&gt;loop_22 -->
<g id="edge32" class="edge">
<title>stateAdd_20&#45;&gt;loop_22</title>
<path fill="none" stroke="#2c3e50" d="M430,-357.64C430,-344.67 430,-326.46 430,-310.24"/>
<polygon fill="#2c3e50" stroke="#2c3e50" points="433.5,-309.94 430,-299.94 426.5,-309.94 433.5,-309.94"/>
</g>
<!-- loop_23 -->
<g id="node27" class="node">
<title>loop_23</title>
<polygon fill="#d7bde2" stroke="black" points="484,-185.94 380,-185.94 376,-181.94 376,-129.94 480,-129.94 484,-133.94 484,-185.94"/>
<polyline fill="none" stroke="black" points="480,-181.94 376,-181.94 "/>
<polyline fill="none" stroke="black" points="480,-181.94 480,-129.94 "/>
<polyline fill="none" stroke="black" points="480,-181.94 484,-185.94 "/>
<text text-anchor="middle" x="430" y="-173.14" font-family="Helvetica,sans-Serif" font-size="11.00">loop</text>
<text text-anchor="middle" x="430" y="-161.14" font-family="Helvetica,sans-Serif" font-size="11.00">body: Linear</text>
<text text-anchor="middle" x="430" y="-149.14" font-family="Helvetica,sans-Serif" font-size="11.00">cond: threshHalt</text>
<text text-anchor="middle" x="430" y="-137.14" font-family="Helvetica,sans-Serif" font-size="11.00">[72 params]</text>
</g>
<!-- loop_22&#45;&gt;loop_23 -->
<g id="edge33" class="edge">
<title>loop_22&#45;&gt;loop_23</title>
<path fill="none" stroke="#2c3e50" d="M430,-243.83C430,-229.62 430,-212.01 430,-196.51"/>
<polygon fill="#2c3e50" stroke="#2c3e50" points="433.5,-196.19 430,-186.19 426.5,-196.19 433.5,-196.19"/>
</g>
<!-- Linear_24 -->
<g id="node28" class="node">
<title>Linear_24</title>
<polygon fill="#a9dfbf" stroke="black" points="503.34,-52.6 430,-71.91 356.66,-52.6 356.73,-21.37 503.27,-21.37 503.34,-52.6"/>
<text text-anchor="middle" x="430" y="-47.17" font-family="Helvetica,sans-Serif" font-size="11.00">Linear</text>
<text text-anchor="middle" x="430" y="-35.17" font-family="Helvetica,sans-Serif" font-size="11.00">[18 params]</text>
</g>
<!-- loop_23&#45;&gt;Linear_24 -->
<g id="edge34" class="edge">
<title>loop_23&#45;&gt;Linear_24</title>
<path fill="none" stroke="#2c3e50" d="M430,-129.83C430,-115.64 430,-98.02 430,-82.53"/>
<polygon fill="#2c3e50" stroke="#2c3e50" points="433.5,-82.21 430,-72.21 426.5,-82.21 433.5,-82.21"/>
</g>
</g>
</svg>
