<?xml version="1.0" encoding="UTF-8" standalone="no"?>
<!DOCTYPE svg PUBLIC "-//W3C//DTD SVG 1.1//EN"
 "http://www.w3.org/Graphics/SVG/1.1/DTD/svg11.dtd">
<!-- Generated by graphviz version 2.43.0 (0)
 -->
<!-- Title: G Pages: 1 -->
<svg width="584pt" height="2528pt"
 viewBox="0.00 0.00 584.00 2528.39" xmlns="http://www.w3.org/2000/svg" xmlns:xlink="http://www.w3.org/1999/xlink">
<g id="graph0" class="graph" transform="scale(1 1) rotate(0) translate(4 2524.39)">
<title>G</title>
<polygon fill="white" stroke="transparent" points="-4,4 -4,-2524.39 580,-2524.39 580,4 -4,4"/>
<g id="clust1" class="cluster">
<title>cluster_level_0</title>
<polygon fill="none" stroke="#999999" stroke-dasharray="5,2" points="124,-2396.48 124,-2512.39 519,-2512.39 519,-2396.48 124,-2396.48"/>
<text text-anchor="middle" x="321.5" y="-2497.19" font-family="Helvetica,sans-Serif" font-size="14.00" fill="#999999">level 0</text>
</g>
<g id="clust2" class="cluster">
<title>cluster_level_1</title>
<polygon fill="none" stroke="#999999" stroke-dasharray="5,2" points="170,-2302.48 170,-2377.48 240,-2377.48 240,-2302.48 170,-2302.48"/>
<text text-anchor="middle" x="205" y="-2362.28" font-family="Helvetica,sans-Serif" font-size="14.00" fill="#999999">level 1</text>
</g>
<g id="clust3" class="cluster">
<title>cluster_level_2</title>
<polygon fill="none" stroke="#999999" stroke-dasharray="5,2" points="155,-2208.48 155,-2283.48 255,-2283.48 255,-2208.48 155,-2208.48"/>
<text text-anchor="middle" x="205" y="-2268.28" font-family="Helvetica,sans-Serif" font-size="14.00" fill="#999999">level 2</text>
</g>
<g id="clust4" class="cluster">
<title>cluster_level_3</title>
<polygon fill="none" stroke="#999999" stroke-dasharray="5,2" points="67,-2114.48 67,-2189.48 269,-2189.48 269,-2114.48 67,-2114.48"/>
<text text-anchor="middle" x="168" y="-2174.28" font-family="Helvetica,sans-Serif" font-size="14.00" fill="#999999">level 3</text>
</g>
<g id="clust5" class="cluster">
<title>cluster_level_4</title>
<polygon fill="none" stroke="#999999" stroke-dasharray="5,2" points="114,-2020.48 114,-2095.48 212,-2095.48 212,-2020.48 114,-2020.48"/>
<text text-anchor="middle" x="163" y="-2080.28" font-family="Helvetica,sans-Serif" font-size="14.00" fill="#999999">level 4</text>
</g>
<g id="clust6" class="cluster">
<title>cluster_level_5</title>
<polygon fill="none" stroke="#999999" stroke-dasharray="5,2" points="65,-1926.48 65,-2001.48 165,-2001.48 165,-1926.48 65,-1926.48"/>
<text text-anchor="middle" x="115" y="-1986.28" font-family="Helvetica,sans-Serif" font-size="14.00" fill="#999999">level 5</text>
</g>
<g id="clust7" class="cluster">
<title>cluster_level_6</title>
<polygon fill="none" stroke="#999999" stroke-dasharray="5,2" points="105,-1823.98 105,-1907.48 167,-1907.48 167,-1823.98 105,-1823.98"/>
<text text-anchor="middle" x="136" y="-1892.28" font-family="Helvetica,sans-Serif" font-size="14.00" fill="#999999">level 6</text>
</g>
<g id="clust8" class="cluster">
<title>cluster_level_7</title>
<polygon fill="none" stroke="#999999" stroke-dasharray="5,2" points="97,-1729.98 97,-1804.98 175,-1804.98 175,-1729.98 97,-1729.98"/>
<text text-anchor="middle" x="136" y="-1789.78" font-family="Helvetica,sans-Serif" font-size="14.00" fill="#999999">level 7</text>
</g>
<g id="clust9" class="cluster">
<title>cluster_level_8</title>
<polygon fill="none" stroke="#999999" stroke-dasharray="5,2" points="8,-1583.98 8,-1710.98 264,-1710.98 264,-1583.98 8,-1583.98"/>
<text text-anchor="middle" x="136" y="-1695.78" font-family="Helvetica,sans-Serif" font-size="14.00" fill="#999999">level 8</text>
</g>
<g id="clust10" class="cluster">
<title>cluster_level_9</title>
<polygon fill="none" stroke="#999999" stroke-dasharray="5,2" points="77,-1489.98 77,-1564.98 195,-1564.98 195,-1489.98 77,-1489.98"/>
<text text-anchor="middle" x="136" y="-1549.78" font-family="Helvetica,sans-Serif" font-size="14.00" fill="#999999">level 9</text>
</g>
<g id="clust11" class="cluster">
<title>cluster_level_10</title>
<polygon fill="none" stroke="#999999" stroke-dasharray="5,2" points="41,-1310.98 41,-1461.98 231,-1461.98 231,-1310.98 41,-1310.98"/>
<text text-anchor="middle" x="136" y="-1446.78" font-family="Helvetica,sans-Serif" font-size="14.00" fill="#999999">level 10</text>
</g>
<g id="clust12" class="cluster">
<title>cluster_level_11</title>
<polygon fill="none" stroke="#999999" stroke-dasharray="5,2" points="41,-1164.98 41,-1291.98 231,-1291.98 231,-1164.98 41,-1164.98"/>
<text text-anchor="middle" x="136" y="-1276.78" font-family="Helvetica,sans-Serif" font-size="14.00" fill="#999999">level 11</text>
</g>
<g id="clust13" class="cluster">
<title>cluster_level_12</title>
<polygon fill="none" stroke="#999999" stroke-dasharray="5,2" points="77,-1070.98 77,-1145.98 195,-1145.98 195,-1070.98 77,-1070.98"/>
<text text-anchor="middle" x="136" y="-1130.78" font-family="Helvetica,sans-Serif" font-size="14.00" fill="#999999">level 12</text>
</g>
<g id="clust14" class="cluster">
<title>cluster_level_13</title>
<polygon fill="none" stroke="#999999" stroke-dasharray="5,2" points="86,-968.98 86,-1051.98 186,-1051.98 186,-968.98 86,-968.98"/>
<text text-anchor="middle" x="136" y="-1036.78" font-family="Helvetica,sans-Serif" font-size="14.00" fill="#999999">level 13</text>
</g>
<g id="clust15" class="cluster">
<title>cluster_level_14</title>
<polygon fill="none" stroke="#999999" stroke-dasharray="5,2" points="37,-874.98 37,-949.98 355,-949.98 355,-874.98 37,-874.98"/>
<text text-anchor="middle" x="196" y="-934.78" font-family="Helvetica,sans-Serif" font-size="14.00" fill="#999999">level 14</text>
</g>
<g id="clust16" class="cluster">
<title>cluster_level_15</title>
<polygon fill="none" stroke="#999999" stroke-dasharray="5,2" points="127,-700.94 127,-846.98 251,-846.98 251,-700.94 127,-700.94"/>
<text text-anchor="middle" x="189" y="-831.78" font-family="Helvetica,sans-Serif" font-size="14.00" fill="#999999">level 15</text>
</g>
<g id="clust17" class="cluster">
<title>cluster_level_16</title>
<polygon fill="none" stroke="#999999" stroke-dasharray="5,2" points="72,-441.94 72,-681.94 308,-681.94 308,-441.94 72,-441.94"/>
<text text-anchor="middle" x="190" y="-666.74" font-family="Helvetica,sans-Serif" font-size="14.00" fill="#999999">level 16</text>
</g>
<g id="clust18" class="cluster">
<title>cluster_switch_19</title>
<polygon fill="#fef9e7" stroke="#f5cba7" points="80,-449.94 80,-650.94 300,-650.94 300,-449.94 80,-449.94"/>
<text text-anchor="middle" x="190" y="-638.94" font-family="Helvetica,sans-Serif" font-size="10.00" fill="#999999">Switch</text>
</g>
<g id="clust19" class="cluster">
<title>cluster_level_17</title>
<polygon fill="none" stroke="#999999" stroke-dasharray="5,2" points="293,-349.94 293,-424.94 381,-424.94 381,-349.94 293,-349.94"/>
<text text-anchor="middle" x="337" y="-409.74" font-family="Helvetica,sans-Serif" font-size="14.00" fill="#999999">level 17</text>
</g>
<g id="clust20" class="cluster">
<title>cluster_level_18</title>
<polygon fill="none" stroke="#999999" stroke-dasharray="5,2" points="275,-235.94 275,-330.94 399,-330.94 399,-235.94 275,-235.94"/>
<text text-anchor="middle" x="337" y="-315.74" font-family="Helvetica,sans-Serif" font-size="14.00" fill="#999999">level 18</text>
</g>
<g id="clust21" class="cluster">
<title>cluster_level_19</title>
<polygon fill="none" stroke="#999999" stroke-dasharray="5,2" points="275,-121.94 275,-216.94 399,-216.94 399,-121.94 275,-121.94"/>
<text text-anchor="middle" x="337" y="-201.74" font-family="Helvetica,sans-Serif" font-size="14.00" fill="#999999">level 19</text>
</g>
<g id="clust22" class="cluster">
<title>cluster_level_20</title>
<polygon fill="none" stroke="#999999" stroke-dasharray="5,2" points="256,-8 256,-102.94 418,-102.94 418,-8 256,-8"/>
<text text-anchor="middle" x="337" y="-87.74" font-family="Helvetica,sans-Serif" font-size="14.00" fill="#999999">level 20</text>
</g>
<!-- state_read_memory_21 -->
<g id="node1" class="node">
<title>state_read_memory_21</title>
<polygon fill="#f9e79f" stroke="black" points="404,-2460.93 296.69,-2442.93 404,-2424.93 511.31,-2442.93 404,-2460.93"/>
<text text-anchor="middle" x="404" y="-2440.13" font-family="Helvetica,sans-Serif" font-size="11.00">state_read_memory</text>
</g>
<!-- stateAdd_20 -->
<g id="node25" class="node">
<title>stateAdd_20</title>
<polygon fill="#eaecee" stroke="black" points="372.5,-393.94 301.5,-393.94 301.5,-357.94 372.5,-357.94 372.5,-393.94"/>
<text text-anchor="middle" x="337" y="-379.14" font-family="Helvetica,sans-Serif" font-size="11.00">stateAdd</text>
<text text-anchor="middle" x="337" y="-367.14" font-family="Helvetica,sans-Serif" font-size="11.00">#memory</text>
</g>
<!-- state_read_memory_21&#45;&gt;stateAdd_20 -->
<g id="edge31" class="edge">
<title>state_read_memory_21&#45;&gt;stateAdd_20</title>
<path fill="none" stroke="#2980b9" stroke-dasharray="5,2" d="M397.6,-2425.83C389.62,-2404.26 377,-2364.61 377,-2329.48 377,-2329.48 377,-2329.48 377,-462.44 377,-440.87 366.43,-418.88 356.15,-402.6"/>
<polygon fill="#2980b9" stroke="#2980b9" points="359,-400.56 350.54,-394.18 353.18,-404.44 359,-400.56"/>
<text text-anchor="middle" x="396" y="-1472.78" font-family="Helvetica,sans-Serif" font-size="9.00" fill="#2980b9">memory</text>
</g>
<!-- Linear_0 -->
<g id="node2" class="node">
<title>Linear_0</title>
<polygon fill="#aed6f1" stroke="black" points="131.66,-2431.06 205,-2404.52 278.34,-2431.06 278.27,-2474.01 131.73,-2474.01 131.66,-2431.06"/>
<text text-anchor="middle" x="205" y="-2452.13" font-family="Helvetica,sans-Serif" font-size="11.00">Linear</text>
<text text-anchor="middle" x="205" y="-2440.13" font-family="Helvetica,sans-Serif" font-size="11.00">[24 params]</text>
<text text-anchor="middle" x="205" y="-2428.13" font-family="Helvetica,sans-Serif" font-size="11.00">#input</text>
</g>
<!-- GELU_1 -->
<g id="node3" class="node">
<title>GELU_1</title>
<ellipse fill="#fdebd0" stroke="black" cx="205" cy="-2328.48" rx="27.12" ry="18"/>
<text text-anchor="middle" x="205" y="-2325.68" font-family="Helvetica,sans-Serif" font-size="11.00">GELU</text>
</g>
<!-- Linear_0&#45;&gt;GELU_1 -->
<g id="edge5" class="edge">
<title>Linear_0&#45;&gt;GELU_1</title>
<path fill="none" stroke="#2c3e50" d="M205,-2404.49C205,-2388.91 205,-2371.15 205,-2356.83"/>
<polygon fill="#2c3e50" stroke="#2c3e50" points="208.5,-2356.64 205,-2346.64 201.5,-2356.64 208.5,-2356.64"/>
</g>
<!-- softmaxRouter_15 -->
<g id="node17" class="node">
<title>softmaxRouter_15</title>
<polygon fill="#eaecee" stroke="black" points="347,-918.98 249,-918.98 249,-882.98 347,-882.98 347,-918.98"/>
<text text-anchor="middle" x="298" y="-904.18" font-family="Helvetica,sans-Serif" font-size="11.00">softmaxRouter</text>
<text text-anchor="middle" x="298" y="-892.18" font-family="Helvetica,sans-Serif" font-size="11.00">[18 params]</text>
</g>
<!-- Linear_0&#45;&gt;softmaxRouter_15 -->
<g id="edge27" class="edge">
<title>Linear_0&#45;&gt;softmaxRouter_15</title>
<path fill="none" stroke="#2980b9" stroke-dasharray="5,2" d="M240.29,-2417.11C264.77,-2396.73 293,-2365.42 293,-2329.48 293,-2329.48 293,-2329.48 293,-997.98 293,-974.85 294.47,-948.63 295.81,-929.44"/>
<polygon fill="#2980b9" stroke="#2980b9" points="299.31,-929.53 296.55,-919.3 292.33,-929.02 299.31,-929.53"/>
<text text-anchor="middle" x="305.5" y="-1753.78" font-family="Helvetica,sans-Serif" font-size="9.00" fill="#2980b9">input</text>
</g>
<!-- LayerNorm_2 -->
<g id="node4" class="node">
<title>LayerNorm_2</title>
<polygon fill="#d5f5e3" stroke="black" points="247,-2252.48 163,-2252.48 163,-2216.48 247,-2216.48 247,-2252.48"/>
<text text-anchor="middle" x="205" y="-2237.68" font-family="Helvetica,sans-Serif" font-size="11.00">LayerNorm</text>
<text text-anchor="middle" x="205" y="-2225.68" font-family="Helvetica,sans-Serif" font-size="11.00">[16 params]</text>
</g>
<!-- GELU_1&#45;&gt;LayerNorm_2 -->
<g id="edge6" class="edge">
<title>GELU_1&#45;&gt;LayerNorm_2</title>
<path fill="none" stroke="#2c3e50" d="M205,-2310.17C205,-2296.94 205,-2278.42 205,-2263.14"/>
<polygon fill="#2c3e50" stroke="#2c3e50" points="208.5,-2262.7 205,-2252.7 201.5,-2262.7 208.5,-2262.7"/>
</g>
<!-- Graph_3 -->
<g id="node5" class="node">
<title>Graph_3</title>
<polygon fill="#d6eaf8" stroke="black" points="261,-2158.48 177,-2158.48 177,-2122.48 261,-2122.48 261,-2158.48"/>
<text text-anchor="middle" x="219" y="-2143.68" font-family="Helvetica,sans-Serif" font-size="11.00">Graph (sub)</text>
<text text-anchor="middle" x="219" y="-2131.68" font-family="Helvetica,sans-Serif" font-size="11.00">[88 params]</text>
</g>
<!-- LayerNorm_2&#45;&gt;Graph_3 -->
<g id="edge7" class="edge">
<title>LayerNorm_2&#45;&gt;Graph_3</title>
<path fill="none" stroke="#2c3e50" d="M207.63,-2216.17C209.67,-2202.81 212.52,-2184.06 214.86,-2168.69"/>
<polygon fill="#2c3e50" stroke="#2c3e50" points="218.33,-2169.11 216.38,-2158.7 211.41,-2168.06 218.33,-2169.11"/>
</g>
<!-- Graph_4 -->
<g id="node6" class="node">
<title>Graph_4</title>
<polygon fill="#d6eaf8" stroke="black" points="159,-2158.48 75,-2158.48 75,-2122.48 159,-2122.48 159,-2158.48"/>
<text text-anchor="middle" x="117" y="-2143.68" font-family="Helvetica,sans-Serif" font-size="11.00">Graph (sub)</text>
<text text-anchor="middle" x="117" y="-2131.68" font-family="Helvetica,sans-Serif" font-size="11.00">[88 params]</text>
</g>
<!-- LayerNorm_2&#45;&gt;Graph_4 -->
<g id="edge8" class="edge">
<title>LayerNorm_2&#45;&gt;Graph_4</title>
<path fill="none" stroke="#2c3e50" d="M188.45,-2216.17C174.93,-2202.04 155.65,-2181.88 140.53,-2166.07"/>
<polygon fill="#2c3e50" stroke="#2c3e50" points="142.92,-2163.51 133.48,-2158.7 137.86,-2168.35 142.92,-2163.51"/>
</g>
<!-- meanMerge_5 -->
<g id="node7" class="node">
<title>meanMerge_5</title>
<polygon fill="#eaecee" stroke="black" points="204,-2064.48 122,-2064.48 122,-2028.48 204,-2028.48 204,-2064.48"/>
<text text-anchor="middle" x="163" y="-2043.68" font-family="Helvetica,sans-Serif" font-size="11.00">meanMerge</text>
</g>
<!-- Graph_3&#45;&gt;meanMerge_5 -->
<g id="edge9" class="edge">
<title>Graph_3&#45;&gt;meanMerge_5</title>
<path fill="none" stroke="#2c3e50" d="M208.47,-2122.17C200.1,-2108.42 188.26,-2088.98 178.76,-2073.37"/>
<polygon fill="#2c3e50" stroke="#2c3e50" points="181.68,-2071.42 173.49,-2064.7 175.7,-2075.06 181.68,-2071.42"/>
</g>
<!-- Graph_4&#45;&gt;meanMerge_5 -->
<g id="edge10" class="edge">
<title>Graph_4&#45;&gt;meanMerge_5</title>
<path fill="none" stroke="#2c3e50" d="M125.65,-2122.17C132.46,-2108.55 142.07,-2089.34 149.83,-2073.81"/>
<polygon fill="#2c3e50" stroke="#2c3e50" points="153.04,-2075.21 154.39,-2064.7 146.78,-2072.08 153.04,-2075.21"/>
</g>
<!-- Linear_6 -->
<g id="node8" class="node">
<title>Linear_6</title>
<polygon fill="#eaecee" stroke="black" points="157,-1970.48 73,-1970.48 73,-1934.48 157,-1934.48 157,-1970.48"/>
<text text-anchor="middle" x="115" y="-1955.68" font-family="Helvetica,sans-Serif" font-size="11.00">Linear</text>
<text text-anchor="middle" x="115" y="-1943.68" font-family="Helvetica,sans-Serif" font-size="11.00">[72 params]</text>
</g>
<!-- meanMerge_5&#45;&gt;Linear_6 -->
<g id="edge11" class="edge">
<title>meanMerge_5&#45;&gt;Linear_6</title>
<path fill="none" stroke="#2c3e50" d="M153.97,-2028.17C146.86,-2014.55 136.84,-1995.34 128.74,-1979.81"/>
<polygon fill="#2c3e50" stroke="#2c3e50" points="131.72,-1977.95 123.99,-1970.7 125.51,-1981.19 131.72,-1977.95"/>
</g>
<!-- add_7 -->
<g id="node9" class="node">
<title>add_7</title>
<ellipse fill="#d5dbdb" stroke="black" cx="136" cy="-1854.23" rx="22.5" ry="22.5"/>
<text text-anchor="middle" x="136" y="-1851.43" font-family="Helvetica,sans-Serif" font-size="11.00">add</text>
</g>
<!-- meanMerge_5&#45;&gt;add_7 -->
<g id="edge12" class="edge">
<title>meanMerge_5&#45;&gt;add_7</title>
<path fill="none" stroke="#2c3e50" d="M166.69,-2028.29C171.06,-2004.94 176.83,-1962.03 169,-1926.48 165.62,-1911.16 158.62,-1895.21 151.92,-1882.3"/>
<polygon fill="#2c3e50" stroke="#2c3e50" points="154.99,-1880.62 147.16,-1873.49 148.84,-1883.95 154.99,-1880.62"/>
</g>
<!-- Linear_6&#45;&gt;add_7 -->
<g id="edge13" class="edge">
<title>Linear_6&#45;&gt;add_7</title>
<path fill="none" stroke="#2c3e50" d="M118.75,-1934.27C121.66,-1920.96 125.75,-1902.19 129.23,-1886.27"/>
<polygon fill="#2c3e50" stroke="#2c3e50" points="132.69,-1886.83 131.4,-1876.31 125.85,-1885.34 132.69,-1886.83"/>
</g>
<!-- Dropout_8 -->
<g id="node10" class="node">
<title>Dropout_8</title>
<polygon fill="#fadbd8" stroke="black" points="166.5,-1773.98 105.5,-1773.98 105.5,-1737.98 166.5,-1737.98 166.5,-1773.98"/>
<text text-anchor="middle" x="136" y="-1753.18" font-family="Helvetica,sans-Serif" font-size="11.00">Dropout</text>
</g>
<!-- add_7&#45;&gt;Dropout_8 -->
<g id="edge14" class="edge">
<title>add_7&#45;&gt;Dropout_8</title>
<path fill="none" stroke="#2c3e50" d="M136,-1831.86C136,-1817.87 136,-1799.45 136,-1784.38"/>
<polygon fill="#2c3e50" stroke="#2c3e50" points="139.5,-1784.11 136,-1774.11 132.5,-1784.11 139.5,-1784.11"/>
</g>
<!-- map_9 -->
<g id="node11" class="node">
<title>map_9</title>
<polygon fill="#a9cce3" stroke="black" points="256.03,-1679.98 65.09,-1679.98 15.97,-1591.98 206.91,-1591.98 256.03,-1679.98"/>
<text text-anchor="middle" x="136" y="-1645.18" font-family="Helvetica,sans-Serif" font-size="11.00">map</text>
<text text-anchor="middle" x="136" y="-1633.18" font-family="Helvetica,sans-Serif" font-size="11.00">body: Graph (sub)</text>
<text text-anchor="middle" x="136" y="-1621.18" font-family="Helvetica,sans-Serif" font-size="11.00">[10 params]</text>
</g>
<!-- Dropout_8&#45;&gt;map_9 -->
<g id="edge15" class="edge">
<title>Dropout_8&#45;&gt;map_9</title>
<path fill="none" stroke="#2c3e50" d="M136,-1737.82C136,-1725.21 136,-1707.34 136,-1690.15"/>
<polygon fill="#2c3e50" stroke="#2c3e50" points="139.5,-1690.14 136,-1680.14 132.5,-1690.14 139.5,-1690.14"/>
</g>
<!-- reshapeModule_10 -->
<g id="node12" class="node">
<title>reshapeModule_10</title>
<polygon fill="#eaecee" stroke="black" points="186.5,-1533.98 85.5,-1533.98 85.5,-1497.98 186.5,-1497.98 186.5,-1533.98"/>
<text text-anchor="middle" x="136" y="-1513.18" font-family="Helvetica,sans-Serif" font-size="11.00">reshapeModule</text>
</g>
<!-- map_9&#45;&gt;reshapeModule_10 -->
<g id="edge16" class="edge">
<title>map_9&#45;&gt;reshapeModule_10</title>
<path fill="none" stroke="#2c3e50" d="M136,-1591.71C136,-1575.77 136,-1558.19 136,-1544.08"/>
<polygon fill="#2c3e50" stroke="#2c3e50" points="139.5,-1544.06 136,-1534.06 132.5,-1544.06 139.5,-1544.06"/>
</g>
<!-- map_11 -->
<g id="node13" class="node">
<title>map_11</title>
<polygon fill="#a9cce3" stroke="black" points="223.17,-1430.98 84.5,-1430.98 48.83,-1318.98 187.5,-1318.98 223.17,-1430.98"/>
<text text-anchor="middle" x="136" y="-1390.18" font-family="Helvetica,sans-Serif" font-size="11.00">map</text>
<text text-anchor="middle" x="136" y="-1378.18" font-family="Helvetica,sans-Serif" font-size="11.00">body: Linear</text>
<text text-anchor="middle" x="136" y="-1366.18" font-family="Helvetica,sans-Serif" font-size="11.00">[20 params]</text>
<text text-anchor="middle" x="136" y="-1354.18" font-family="Helvetica,sans-Serif" font-size="11.00">#halves</text>
</g>
<!-- reshapeModule_10&#45;&gt;map_11 -->
<g id="edge17" class="edge">
<title>reshapeModule_10&#45;&gt;map_11</title>
<path fill="none" stroke="#2c3e50" d="M136,-1497.93C136,-1483.6 136,-1462.16 136,-1441.24"/>
<polygon fill="#2c3e50" stroke="#2c3e50" points="139.5,-1441.04 136,-1431.04 132.5,-1441.04 139.5,-1441.04"/>
</g>
<!-- map_12 -->
<g id="node14" class="node">
<title>map_12</title>
<polygon fill="#a9cce3" stroke="black" points="223.17,-1260.98 84.5,-1260.98 48.83,-1172.98 187.5,-1172.98 223.17,-1260.98"/>
<text text-anchor="middle" x="136" y="-1226.18" font-family="Helvetica,sans-Serif" font-size="11.00">map</text>
<text text-anchor="middle" x="136" y="-1214.18" font-family="Helvetica,sans-Serif" font-size="11.00">body: Linear</text>
<text text-anchor="middle" x="136" y="-1202.18" font-family="Helvetica,sans-Serif" font-size="11.00">[20 params]</text>
</g>
<!-- map_11&#45;&gt;map_12 -->
<g id="edge18" class="edge">
<title>map_11&#45;&gt;map_12</title>
<path fill="none" stroke="#2c3e50" d="M136,-1318.54C136,-1303.17 136,-1286.52 136,-1271.27"/>
<polygon fill="#2c3e50" stroke="#2c3e50" points="139.5,-1270.98 136,-1260.98 132.5,-1270.98 139.5,-1270.98"/>
</g>
<!-- reshapeModule_13 -->
<g id="node15" class="node">
<title>reshapeModule_13</title>
<polygon fill="#eaecee" stroke="black" points="186.5,-1114.98 85.5,-1114.98 85.5,-1078.98 186.5,-1078.98 186.5,-1114.98"/>
<text text-anchor="middle" x="136" y="-1094.18" font-family="Helvetica,sans-Serif" font-size="11.00">reshapeModule</text>
</g>
<!-- map_12&#45;&gt;reshapeModule_13 -->
<g id="edge19" class="edge">
<title>map_12&#45;&gt;reshapeModule_13</title>
<path fill="none" stroke="#2c3e50" d="M136,-1172.71C136,-1156.77 136,-1139.19 136,-1125.08"/>
<polygon fill="#2c3e50" stroke="#2c3e50" points="139.5,-1125.06 136,-1115.06 132.5,-1125.06 139.5,-1125.06"/>
</g>
<!-- loop_14 -->
<g id="node16" class="node">
<title>loop_14</title>
<polygon fill="#d7bde2" stroke="black" points="178,-1020.98 98,-1020.98 94,-1016.98 94,-976.98 174,-976.98 178,-980.98 178,-1020.98"/>
<polyline fill="none" stroke="black" points="174,-1016.98 94,-1016.98 "/>
<polyline fill="none" stroke="black" points="174,-1016.98 174,-976.98 "/>
<polyline fill="none" stroke="black" points="174,-1016.98 178,-1020.98 "/>
<text text-anchor="middle" x="136" y="-1008.18" font-family="Helvetica,sans-Serif" font-size="11.00">Graph (sub)</text>
<text text-anchor="middle" x="136" y="-996.18" font-family="Helvetica,sans-Serif" font-size="11.00">[88 params]</text>
<text text-anchor="middle" x="136" y="-984.18" font-family="Helvetica,sans-Serif" font-size="11.00">#refined</text>
</g>
<!-- reshapeModule_13&#45;&gt;loop_14 -->
<g id="edge20" class="edge">
<title>reshapeModule_13&#45;&gt;loop_14</title>
<path fill="none" stroke="#2c3e50" d="M136,-1078.81C136,-1065.67 136,-1047.17 136,-1031.4"/>
<polygon fill="#2c3e50" stroke="#2c3e50" points="139.5,-1031.01 136,-1021.01 132.5,-1031.01 139.5,-1031.01"/>
</g>
<!-- loop_14&#45;&gt;softmaxRouter_15 -->
<g id="edge21" class="edge">
<title>loop_14&#45;&gt;softmaxRouter_15</title>
<path fill="none" stroke="#2c3e50" d="M178.03,-981.53C197.49,-973.18 220.56,-962.21 240,-949.98 251.15,-942.96 262.51,-934.03 272.18,-925.78"/>
<polygon fill="#2c3e50" stroke="#2c3e50" points="274.64,-928.28 279.87,-919.06 270.04,-923 274.64,-928.28"/>
</g>
<!-- Linear_16 -->
<g id="node18" class="node">
<title>Linear_16</title>
<polygon fill="#eaecee" stroke="black" points="129,-918.98 45,-918.98 45,-882.98 129,-882.98 129,-918.98"/>
<text text-anchor="middle" x="87" y="-904.18" font-family="Helvetica,sans-Serif" font-size="11.00">Linear</text>
<text text-anchor="middle" x="87" y="-892.18" font-family="Helvetica,sans-Serif" font-size="11.00">[72 params]</text>
</g>
<!-- loop_14&#45;&gt;Linear_16 -->
<g id="edge22" class="edge">
<title>loop_14&#45;&gt;Linear_16</title>
<path fill="none" stroke="#2c3e50" d="M125.13,-976.67C117.79,-962.31 108.08,-943.27 100.29,-928.01"/>
<polygon fill="#2c3e50" stroke="#2c3e50" points="103.39,-926.38 95.72,-919.07 97.15,-929.56 103.39,-926.38"/>
</g>
<!-- Linear_17 -->
<g id="node19" class="node">
<title>Linear_17</title>
<polygon fill="#eaecee" stroke="black" points="231,-918.98 147,-918.98 147,-882.98 231,-882.98 231,-918.98"/>
<text text-anchor="middle" x="189" y="-904.18" font-family="Helvetica,sans-Serif" font-size="11.00">Linear</text>
<text text-anchor="middle" x="189" y="-892.18" font-family="Helvetica,sans-Serif" font-size="11.00">[72 params]</text>
</g>
<!-- loop_14&#45;&gt;Linear_17 -->
<g id="edge23" class="edge">
<title>loop_14&#45;&gt;Linear_17</title>
<path fill="none" stroke="#2c3e50" d="M147.76,-976.67C155.69,-962.31 166.2,-943.27 174.63,-928.01"/>
<polygon fill="#2c3e50" stroke="#2c3e50" points="177.8,-929.51 179.56,-919.07 171.67,-926.13 177.8,-929.51"/>
</g>
<!-- switch_19 -->
<g id="node21" class="node">
<title>switch_19</title>
<polygon fill="#f5cba7" stroke="black" points="189,-623.94 87.6,-605.94 189,-587.94 290.4,-605.94 189,-623.94"/>
<text text-anchor="middle" x="189" y="-603.14" font-family="Helvetica,sans-Serif" font-size="11.00">heavyPathSelector</text>
</g>
<!-- loop_14&#45;&gt;switch_19 -->
<g id="edge29" class="edge">
<title>loop_14&#45;&gt;switch_19</title>
<path fill="none" stroke="#2980b9" stroke-dasharray="5,2" d="M93.89,-989.71C71.72,-982.99 46.41,-971.02 33,-949.98 15.09,-921.87 25.12,-907.36 33,-874.98 57.51,-774.22 133.43,-673.37 169.54,-629.58"/>
<polygon fill="#2980b9" stroke="#2980b9" points="172.28,-631.76 176,-621.84 166.9,-627.28 172.28,-631.76"/>
<text text-anchor="middle" x="55.5" y="-857.78" font-family="Helvetica,sans-Serif" font-size="9.00" fill="#2980b9">refined</text>
</g>
<!-- gated_merge_18 -->
<g id="node20" class="node">
<title>gated_merge_18</title>
<ellipse fill="#d5dbdb" stroke="black" cx="189" cy="-762.46" rx="53.54" ry="53.54"/>
<text text-anchor="middle" x="189" y="-759.66" font-family="Helvetica,sans-Serif" font-size="11.00">gated_merge</text>
</g>
<!-- softmaxRouter_15&#45;&gt;gated_merge_18 -->
<g id="edge24" class="edge">
<title>softmaxRouter_15&#45;&gt;gated_merge_18</title>
<path fill="none" stroke="#7f8c8d" d="M284.42,-882.96C270.41,-865.42 247.9,-837.23 228.27,-812.64"/>
<polygon fill="#7f8c8d" stroke="#7f8c8d" points="230.98,-810.43 222.01,-804.8 225.51,-814.8 230.98,-810.43"/>
</g>
<!-- Linear_16&#45;&gt;gated_merge_18 -->
<g id="edge25" class="edge">
<title>Linear_16&#45;&gt;gated_merge_18</title>
<path fill="none" stroke="#7f8c8d" d="M99.71,-882.96C112.57,-865.75 133.08,-838.3 151.2,-814.04"/>
<polygon fill="#7f8c8d" stroke="#7f8c8d" points="154.06,-816.07 157.24,-805.96 148.46,-811.88 154.06,-816.07"/>
</g>
<!-- Linear_17&#45;&gt;gated_merge_18 -->
<g id="edge26" class="edge">
<title>Linear_17&#45;&gt;gated_merge_18</title>
<path fill="none" stroke="#7f8c8d" d="M189,-882.96C189,-868.59 189,-847.07 189,-826.24"/>
<polygon fill="#7f8c8d" stroke="#7f8c8d" points="192.5,-826.1 189,-816.1 185.5,-826.1 192.5,-826.1"/>
</g>
<!-- gated_merge_18&#45;&gt;switch_19 -->
<g id="edge28" class="edge">
<title>gated_merge_18&#45;&gt;switch_19</title>
<path fill="none" stroke="#2c3e50" d="M189,-708.71C189,-683.66 189,-654.78 189,-634.2"/>
<polygon fill="#2c3e50" stroke="#2c3e50" points="192.5,-633.97 189,-623.97 185.5,-633.97 192.5,-633.97"/>
</g>
<!-- switch_19_b0 -->
<g id="node22" class="node">
<title>switch_19_b0</title>
<polygon fill="#eaecee" stroke="black" points="172,-541.94 88,-541.94 88,-505.94 172,-505.94 172,-541.94"/>
<text text-anchor="middle" x="130" y="-527.14" font-family="Helvetica,sans-Serif" font-size="11.00">[0] Linear</text>
<text text-anchor="middle" x="130" y="-515.14" font-family="Helvetica,sans-Serif" font-size="11.00">[72 params]</text>
</g>
<!-- switch_19&#45;&gt;switch_19_b0 -->
<g id="edge1" class="edge">
<title>switch_19&#45;&gt;switch_19_b0</title>
<path fill="none" stroke="#e67e22" stroke-dasharray="5,2" d="M177.9,-589.89C169.69,-578.75 158.3,-563.32 148.69,-550.29"/>
<polygon fill="#e67e22" stroke="#e67e22" points="151.44,-548.11 142.69,-542.14 145.81,-552.27 151.44,-548.11"/>
<text text-anchor="middle" x="166.5" y="-562.74" font-family="Helvetica,sans-Serif" font-size="9.00" fill="#e67e22">0</text>
</g>
<!-- switch_19_b1 -->
<g id="node23" class="node">
<title>switch_19_b1</title>
<polygon fill="#d6eaf8" stroke="black" points="291.5,-541.94 190.5,-541.94 190.5,-505.94 291.5,-505.94 291.5,-541.94"/>
<text text-anchor="middle" x="241" y="-527.14" font-family="Helvetica,sans-Serif" font-size="11.00">[1] Graph (sub)</text>
<text text-anchor="middle" x="241" y="-515.14" font-family="Helvetica,sans-Serif" font-size="11.00">[88 params]</text>
</g>
<!-- switch_19&#45;&gt;switch_19_b1 -->
<g id="edge3" class="edge">
<title>switch_19&#45;&gt;switch_19_b1</title>
<path fill="none" stroke="#e67e22" stroke-dasharray="5,2" d="M199.03,-589.51C206.22,-578.45 216.08,-563.28 224.43,-550.43"/>
<polygon fill="#e67e22" stroke="#e67e22" points="227.41,-552.27 229.92,-541.98 221.54,-548.45 227.41,-552.27"/>
<text text-anchor="middle" x="221.5" y="-562.74" font-family="Helvetica,sans-Serif" font-size="9.00" fill="#e67e22">1</text>
</g>
<!-- switch_19_out -->
<g id="node24" class="node">
<title>switch_19_out</title>
<ellipse fill="#d5dbdb" stroke="black" cx="241" cy="-463.44" rx="5.5" ry="5.5"/>
</g>
<!-- switch_19_b0&#45;&gt;switch_19_out -->
<g id="edge2" class="edge">
<title>switch_19_b0&#45;&gt;switch_19_out</title>
<path fill="none" stroke="#7f8c8d" d="M162.4,-505.86C184.03,-494.46 211.36,-480.06 227.43,-471.59"/>
<polygon fill="#7f8c8d" stroke="#7f8c8d" points="229.34,-474.54 236.55,-466.78 226.08,-468.35 229.34,-474.54"/>
</g>
<!-- switch_19_b1&#45;&gt;switch_19_out -->
<g id="edge4" class="edge">
<title>switch_19_b1&#45;&gt;switch_19_out</title>
<path fill="none" stroke="#7f8c8d" d="M241,-505.7C241,-497.29 241,-487.27 241,-479.21"/>
<polygon fill="#7f8c8d" stroke="#7f8c8d" points="244.5,-478.94 241,-468.94 237.5,-478.94 244.5,-478.94"/>
</g>
<!-- switch_19_out&#45;&gt;stateAdd_20 -->
<g id="edge30" class="edge">
<title>switch_19_out&#45;&gt;stateAdd_20</title>
<path fill="none" stroke="#2c3e50" d="M244.65,-459.19C255.29,-449.71 287.06,-421.42 310.37,-400.66"/>
<polygon fill="#2c3e50" stroke="#2c3e50" points="312.77,-403.21 317.91,-393.94 308.11,-397.98 312.77,-403.21"/>
</g>
<!-- stateAdd_20&#45;&gt;state_read_memory_21 -->
<g id="edge35" class="edge">
<title>stateAdd_20&#45;&gt;state_read_memory_21</title>
<path fill="none" stroke="#e67e22" stroke-dasharray="1,5" d="M357.79,-394.12C370.34,-406.01 385.03,-423.05 391,-441.94 634.97,-1213.75 445.39,-2238.36 409.55,-2415.35"/>
<polygon fill="#e67e22" stroke="#e67e22" points="406.08,-2414.85 407.51,-2425.35 412.94,-2416.25 406.08,-2414.85"/>
<text text-anchor="middle" x="544" y="-1472.78" font-family="Helvetica,sans-Serif" font-size="9.00" fill="#e67e22">state:memory</text>
</g>
<!-- loop_22 -->
<g id="node26" class="node">
<title>loop_22</title>
<polygon fill="#d7bde2" stroke="black" points="391,-299.94 287,-299.94 283,-295.94 283,-243.94 387,-243.94 391,-247.94 391,-299.94"/>
<polyline fill="none" stroke="black" points="387,-295.94 283,-295.94 "/>
<polyline fill="none" stroke="black" points="387,-295.94 387,-243.94 "/>
<polyline fill="none" stroke="black" points="387,-295.94 391,-299.94 "/>
<text text-anchor="middle" x="337" y="-287.14" font-family="Helvetica,sans-Serif" font-size="11.00">loop</text>
<text text-anchor="middle" x="337" y="-275.14" font-family="Helvetica,sans-Serif" font-size="11.00">body: Linear</text>
<text text-anchor="middle" x="337" y="-263.14" font-family="Helvetica,sans-Serif" font-size="11.00">cond: threshHalt</text>
<text text-anchor="middle" x="337" y="-251.14" font-family="Helvetica,sans-Serif" font-size="11.00">[72 params]</text>
</g>
<!-- stateAdd_20&#45;&gt;loop_22 -->
<g id="edge32" class="edge">
<title>stateAdd_20&#45;&gt;loop_22</title>
<path fill="none" stroke="#2c3e50" d="M337,-357.64C337,-344.67 337,-326.46 337,-310.24"/>
<polygon fill="#2c3e50" stroke="#2c3e50" points="340.5,-309.94 337,-299.94 333.5,-309.94 340.5,-309.94"/>
</g>
<!-- loop_23 -->
<g id="node27" class="node">
<title>loop_23</title>
<polygon fill="#d7bde2" stroke="black" points="391,-185.94 287,-185.94 283,-181.94 283,-129.94 387,-129.94 391,-133.94 391,-185.94"/>
<polyline fill="none" stroke="black" points="387,-181.94 283,-181.94 "/>
<polyline fill="none" stroke="black" points="387,-181.94 387,-129.94 "/>
<polyline fill="none" stroke="black" points="387,-181.94 391,-185.94 "/>
<text text-anchor="middle" x="337" y="-173.14" font-family="Helvetica,sans-Serif" font-size="11.00">loop</text>
<text text-anchor="middle" x="337" y="-161.14" font-family="Helvetica,sans-Serif" font-size="11.00">body: Linear</text>
<text text-anchor="middle" x="337" y="-149.14" font-family="Helvetica,sans-Serif" font-size="11.00">cond: threshHalt</text>
<text text-anchor="middle" x="337" y="-137.14" font-family="Helvetica,sans-Serif" font-size="11.00">[72 params]</text>
</g>
<!-- loop_22&#45;&gt;loop_23 -->
<g id="edge33" class="edge">
<title>loop_22&#45;&gt;loop_23</title>
<path fill="none" stroke="#2c3e50" d="M337,-243.83C337,-229.62 337,-212.01 337,-196.51"/>
<polygon fill="#2c3e50" stroke="#2c3e50" points="340.5,-196.19 337,-186.19 333.5,-196.19 340.5,-196.19"/>
</g>
<!-- Linear_24 -->
<g id="node28" class="node">
<title>Linear_24</title>
<polygon fill="#a9dfbf" stroke="black" points="410.34,-52.6 337,-71.91 263.66,-52.6 263.73,-21.37 410.27,-21.37 410.34,-52.6"/>
<text text-anchor="middle" x="337" y="-47.17" font-family="Helvetica,sans-Serif" font-size="11.00">Linear</text>
<text text-anchor="middle" x="337" y="-35.17" font-family="Helvetica,sans-Serif" font-size="11.00">[18 params]</text>
</g>
<!-- loop_23&#45;&gt;Linear_24 -->
<g id="edge34" class="edge">
<title>loop_23&#45;&gt;Linear_24</title>
<path fill="none" stroke="#2c3e50" d="M337,-129.83C337,-115.64 337,-98.02 337,-82.53"/>
<polygon fill="#2c3e50" stroke="#2c3e50" points="340.5,-82.21 337,-72.21 333.5,-82.21 340.5,-82.21"/>
</g>
</g>
</svg>
