<?xml version="1.0" encoding="UTF-8" standalone="no"?>
<!DOCTYPE svg PUBLIC "-//W3C//DTD SVG 1.1//EN"
 "http://www.w3.org/Graphics/SVG/1.1/DTD/svg11.dtd">
<!-- Generated by graphviz version 2.43.0 (0)
 -->
<!-- Title: G Pages: 1 -->
<svg width="537pt" height="2383pt"
 viewBox="0.00 0.00 537.00 2383.48" xmlns="http://www.w3.org/2000/svg" xmlns:xlink="http://www.w3.org/1999/xlink">
<g id="graph0" class="graph" transform="scale(1 1) rotate(0) translate(4 2379.48)">
<title>G</title>
<polygon fill="white" stroke="transparent" points="-4,4 -4,-2379.48 533,-2379.48 533,4 -4,4"/>
<g id="clust1" class="cluster">
<title>cluster_level_0</title>
<polygon fill="none" stroke="#999999" stroke-dasharray="5,2" points="181,-2272.54 181,-2367.48 521,-2367.48 521,-2272.54 181,-2272.54"/>
<text text-anchor="middle" x="351" y="-2352.28" font-family="Helvetica,sans-Serif" font-size="14.00" fill="#999999">level 0</text>
</g>
<g id="clust2" class="cluster">
<title>cluster_level_1</title>
<polygon fill="none" stroke="#999999" stroke-dasharray="5,2" points="188,-2178.54 188,-2253.54 258,-2253.54 258,-2178.54 188,-2178.54"/>
<text text-anchor="middle" x="223" y="-2238.34" font-family="Helvetica,sans-Serif" font-size="14.00" fill="#999999">level 1</text>
</g>
<g id="clust3" class="cluster">
<title>cluster_level_2</title>
<polygon fill="none" stroke="#999999" stroke-dasharray="5,2" points="168,-2084.54 168,-2159.54 262,-2159.54 262,-2084.54 168,-2084.54"/>
<text text-anchor="middle" x="215" y="-2144.34" font-family="Helvetica,sans-Serif" font-size="14.00" fill="#999999">level 2</text>
</g>
<g id="clust4" class="cluster">
<title>cluster_level_3</title>
<polygon fill="none" stroke="#999999" stroke-dasharray="5,2" points="66,-1990.54 66,-2065.54 264,-2065.54 264,-1990.54 66,-1990.54"/>
<text text-anchor="middle" x="165" y="-2050.34" font-family="Helvetica,sans-Serif" font-size="14.00" fill="#999999">level 3</text>
</g>
<g id="clust5" class="cluster">
<title>cluster_level_4</title>
<polygon fill="none" stroke="#999999" stroke-dasharray="5,2" points="122,-1896.54 122,-1971.54 220,-1971.54 220,-1896.54 122,-1896.54"/>
<text text-anchor="middle" x="171" y="-1956.34" font-family="Helvetica,sans-Serif" font-size="14.00" fill="#999999">level 4</text>
</g>
<g id="clust6" class="cluster">
<title>cluster_level_5</title>
<polygon fill="none" stroke="#999999" stroke-dasharray="5,2" points="136,-1802.54 136,-1877.54 206,-1877.54 206,-1802.54 136,-1802.54"/>
<text text-anchor="middle" x="171" y="-1862.34" font-family="Helvetica,sans-Serif" font-size="14.00" fill="#999999">level 5</text>
</g>
<g id="clust7" class="cluster">
<title>cluster_level_6</title>
<polygon fill="none" stroke="#999999" stroke-dasharray="5,2" points="105,-1700.04 105,-1783.54 167,-1783.54 167,-1700.04 105,-1700.04"/>
<text text-anchor="middle" x="136" y="-1768.34" font-family="Helvetica,sans-Serif" font-size="14.00" fill="#999999">level 6</text>
</g>
<g id="clust8" class="cluster">
<title>cluster_level_7</title>
<polygon fill="none" stroke="#999999" stroke-dasharray="5,2" points="97,-1606.04 97,-1681.04 175,-1681.04 175,-1606.04 97,-1606.04"/>
<text text-anchor="middle" x="136" y="-1665.84" font-family="Helvetica,sans-Serif" font-size="14.00" fill="#999999">level 7</text>
</g>
<g id="clust9" class="cluster">
<title>cluster_level_8</title>
<polygon fill="none" stroke="#999999" stroke-dasharray="5,2" points="8,-1484.04 8,-1587.04 264,-1587.04 264,-1484.04 8,-1484.04"/>
<text text-anchor="middle" x="136" y="-1571.84" font-family="Helvetica,sans-Serif" font-size="14.00" fill="#999999">level 8</text>
</g>
<g id="clust10" class="cluster">
<title>cluster_level_9</title>
<polygon fill="none" stroke="#999999" stroke-dasharray="5,2" points="79,-1390.04 79,-1465.04 197,-1465.04 197,-1390.04 79,-1390.04"/>
<text text-anchor="middle" x="138" y="-1449.84" font-family="Helvetica,sans-Serif" font-size="14.00" fill="#999999">level 9</text>
</g>
<g id="clust11" class="cluster">
<title>cluster_level_10</title>
<polygon fill="none" stroke="#999999" stroke-dasharray="5,2" points="49,-1235.04 49,-1362.04 239,-1362.04 239,-1235.04 49,-1235.04"/>
<text text-anchor="middle" x="144" y="-1346.84" font-family="Helvetica,sans-Serif" font-size="14.00" fill="#999999">level 10</text>
</g>
<g id="clust12" class="cluster">
<title>cluster_level_11</title>
<polygon fill="none" stroke="#999999" stroke-dasharray="5,2" points="61,-1113.04 61,-1216.04 251,-1216.04 251,-1113.04 61,-1113.04"/>
<text text-anchor="middle" x="156" y="-1200.84" font-family="Helvetica,sans-Serif" font-size="14.00" fill="#999999">level 11</text>
</g>
<g id="clust13" class="cluster">
<title>cluster_level_12</title>
<polygon fill="none" stroke="#999999" stroke-dasharray="5,2" points="103,-1019.04 103,-1094.04 221,-1094.04 221,-1019.04 103,-1019.04"/>
<text text-anchor="middle" x="162" y="-1078.84" font-family="Helvetica,sans-Serif" font-size="14.00" fill="#999999">level 12</text>
</g>
<g id="clust14" class="cluster">
<title>cluster_level_13</title>
<polygon fill="none" stroke="#999999" stroke-dasharray="5,2" points="137,-925.04 137,-1000.04 235,-1000.04 235,-925.04 137,-925.04"/>
<text text-anchor="middle" x="186" y="-984.84" font-family="Helvetica,sans-Serif" font-size="14.00" fill="#999999">level 13</text>
</g>
<g id="clust15" class="cluster">
<title>cluster_level_14</title>
<polygon fill="none" stroke="#999999" stroke-dasharray="5,2" points="79,-831.04 79,-906.04 337,-906.04 337,-831.04 79,-831.04"/>
<text text-anchor="middle" x="208" y="-890.84" font-family="Helvetica,sans-Serif" font-size="14.00" fill="#999999">level 14</text>
</g>
<g id="clust16" class="cluster">
<title>cluster_level_15</title>
<polygon fill="none" stroke="#999999" stroke-dasharray="5,2" points="180,-657 180,-803.04 304,-803.04 304,-657 180,-657"/>
<text text-anchor="middle" x="242" y="-787.84" font-family="Helvetica,sans-Serif" font-size="14.00" fill="#999999">level 15</text>
</g>
<g id="clust17" class="cluster">
<title>cluster_level_16</title>
<polygon fill="none" stroke="#999999" stroke-dasharray="5,2" points="154,-398 154,-638 388,-638 388,-398 154,-398"/>
<text text-anchor="middle" x="271" y="-622.8" font-family="Helvetica,sans-Serif" font-size="14.00" fill="#999999">level 16</text>
</g>
<g id="clust18" class="cluster">
<title>cluster_switch_19</title>
<polygon fill="#fef9e7" stroke="#f5cba7" points="162,-406 162,-607 380,-607 380,-406 162,-406"/>
<text text-anchor="middle" x="271" y="-595" font-family="Helvetica,sans-Serif" font-size="10.00" fill="#999999">Switch</text>
</g>
<g id="clust19" class="cluster">
<title>cluster_level_17</title>
<polygon fill="none" stroke="#999999" stroke-dasharray="5,2" points="334,-306 334,-381 422,-381 422,-306 334,-306"/>
<text text-anchor="middle" x="378" y="-365.8" font-family="Helvetica,sans-Serif" font-size="14.00" fill="#999999">level 17</text>
</g>
<g id="clust20" class="cluster">
<title>cluster_level_18</title>
<polygon fill="none" stroke="#999999" stroke-dasharray="5,2" points="316,-204 316,-287 440,-287 440,-204 316,-204"/>
<text text-anchor="middle" x="378" y="-271.8" font-family="Helvetica,sans-Serif" font-size="14.00" fill="#999999">level 18</text>
</g>
<g id="clust21" class="cluster">
<title>cluster_level_19</title>
<polygon fill="none" stroke="#999999" stroke-dasharray="5,2" points="316,-102 316,-185 440,-185 440,-102 316,-102"/>
<text text-anchor="middle" x="378" y="-169.8" font-family="Helvetica,sans-Serif" font-size="14.00" fill="#999999">level 19</text>
</g>
<g id="clust22" class="cluster">
<title>cluster_level_20</title>
<polygon fill="none" stroke="#999999" stroke-dasharray="5,2" points="333,-8 333,-83 423,-83 423,-8 333,-8"/>
<text text-anchor="middle" x="378" y="-67.8" font-family="Helvetica,sans-Serif" font-size="14.00" fill="#999999">level 20</text>
</g>
<!-- Linear_0 -->
<g id="node1" class="node">
<title>Linear_0</title>
<polygon fill="#aed6f1" stroke="black" points="188.85,-2299.87 235,-2280.57 281.15,-2299.87 281.1,-2331.11 188.9,-2331.11 188.85,-2299.87"/>
<text text-anchor="middle" x="235" y="-2311.71" font-family="Helvetica,sans-Serif" font-size="11.00">Linear</text>
<text text-anchor="middle" x="235" y="-2299.71" font-family="Helvetica,sans-Serif" font-size="11.00">#input</text>
</g>
<!-- GELU_1 -->
<g id="node3" class="node">
<title>GELU_1</title>
<ellipse fill="#fdebd0" stroke="black" cx="223" cy="-2204.54" rx="27.12" ry="18"/>
<text text-anchor="middle" x="223" y="-2201.74" font-family="Helvetica,sans-Serif" font-size="11.00">GELU</text>
</g>
<!-- Linear_0&#45;&gt;GELU_1 -->
<g id="edge5" class="edge">
<title>Linear_0&#45;&gt;GELU_1</title>
<path fill="none" stroke="#2c3e50" d="M231.97,-2281.78C230.22,-2266.87 228.01,-2248.11 226.22,-2232.93"/>
<polygon fill="#2c3e50" stroke="#2c3e50" points="229.65,-2232.13 225.01,-2222.61 222.7,-2232.95 229.65,-2232.13"/>
</g>
<!-- softmaxRouter_15 -->
<g id="node17" class="node">
<title>softmaxRouter_15</title>
<polygon fill="#eaecee" stroke="black" points="329,-875.04 231,-875.04 231,-839.04 329,-839.04 329,-875.04"/>
<text text-anchor="middle" x="280" y="-854.24" font-family="Helvetica,sans-Serif" font-size="11.00">softmaxRouter</text>
</g>
<!-- Linear_0&#45;&gt;softmaxRouter_15 -->
<g id="edge27" class="edge">
<title>Linear_0&#45;&gt;softmaxRouter_15</title>
<path fill="none" stroke="#2980b9" stroke-dasharray="5,2" d="M251.32,-2287.39C265.57,-2267.74 284,-2236.37 284,-2205.54 284,-2205.54 284,-2205.54 284,-950.04 284,-928.36 282.88,-903.83 281.82,-885.55"/>
<polygon fill="#2980b9" stroke="#2980b9" points="285.3,-885.09 281.2,-875.32 278.31,-885.52 285.3,-885.09"/>
<text text-anchor="middle" x="296.5" y="-1629.84" font-family="Helvetica,sans-Serif" font-size="9.00" fill="#2980b9">input</text>
</g>
<!-- state_read_memory_21 -->
<g id="node2" class="node">
<title>state_read_memory_21</title>
<polygon fill="#f9e79f" stroke="black" points="406,-2326.51 298.69,-2308.51 406,-2290.51 513.31,-2308.51 406,-2326.51"/>
<text text-anchor="middle" x="406" y="-2305.71" font-family="Helvetica,sans-Serif" font-size="11.00">state_read_memory</text>
</g>
<!-- stateAdd_20 -->
<g id="node25" class="node">
<title>stateAdd_20</title>
<polygon fill="#eaecee" stroke="black" points="413.5,-350 342.5,-350 342.5,-314 413.5,-314 413.5,-350"/>
<text text-anchor="middle" x="378" y="-335.2" font-family="Helvetica,sans-Serif" font-size="11.00">stateAdd</text>
<text text-anchor="middle" x="378" y="-323.2" font-family="Helvetica,sans-Serif" font-size="11.00">#memory</text>
</g>
<!-- state_read_memory_21&#45;&gt;stateAdd_20 -->
<g id="edge31" class="edge">
<title>state_read_memory_21&#45;&gt;stateAdd_20</title>
<path fill="none" stroke="#2980b9" stroke-dasharray="5,2" d="M406,-2290.19C406,-2269.9 406,-2235.28 406,-2205.54 406,-2205.54 406,-2205.54 406,-418.5 406,-398.06 398.69,-376.18 391.53,-359.67"/>
<polygon fill="#2980b9" stroke="#2980b9" points="394.52,-357.78 387.17,-350.15 388.15,-360.7 394.52,-357.78"/>
<text text-anchor="middle" x="425" y="-1372.84" font-family="Helvetica,sans-Serif" font-size="9.00" fill="#2980b9">memory</text>
</g>
<!-- LayerNorm_2 -->
<g id="node4" class="node">
<title>LayerNorm_2</title>
<polygon fill="#d5f5e3" stroke="black" points="253.5,-2128.54 176.5,-2128.54 176.5,-2092.54 253.5,-2092.54 253.5,-2128.54"/>
<text text-anchor="middle" x="215" y="-2107.74" font-family="Helvetica,sans-Serif" font-size="11.00">LayerNorm</text>
</g>
<!-- GELU_1&#45;&gt;LayerNorm_2 -->
<g id="edge6" class="edge">
<title>GELU_1&#45;&gt;LayerNorm_2</title>
<path fill="none" stroke="#2c3e50" d="M221.5,-2186.23C220.33,-2172.87 218.7,-2154.12 217.37,-2138.76"/>
<polygon fill="#2c3e50" stroke="#2c3e50" points="220.85,-2138.42 216.5,-2128.76 213.88,-2139.03 220.85,-2138.42"/>
</g>
<!-- Graph_3 -->
<g id="node5" class="node">
<title>Graph_3</title>
<polygon fill="#d6eaf8" stroke="black" points="156,-2034.54 74,-2034.54 74,-1998.54 156,-1998.54 156,-2034.54"/>
<text text-anchor="middle" x="115" y="-2013.74" font-family="Helvetica,sans-Serif" font-size="11.00">Graph (sub)</text>
</g>
<!-- LayerNorm_2&#45;&gt;Graph_3 -->
<g id="edge7" class="edge">
<title>LayerNorm_2&#45;&gt;Graph_3</title>
<path fill="none" stroke="#2c3e50" d="M194.87,-2092.18C185.68,-2084.16 174.7,-2074.46 165,-2065.54 156.76,-2057.96 147.91,-2049.56 139.98,-2041.92"/>
<polygon fill="#2c3e50" stroke="#2c3e50" points="142.03,-2039.04 132.41,-2034.61 137.17,-2044.07 142.03,-2039.04"/>
</g>
<!-- Graph_4 -->
<g id="node6" class="node">
<title>Graph_4</title>
<polygon fill="#d6eaf8" stroke="black" points="256,-2034.54 174,-2034.54 174,-1998.54 256,-1998.54 256,-2034.54"/>
<text text-anchor="middle" x="215" y="-2013.74" font-family="Helvetica,sans-Serif" font-size="11.00">Graph (sub)</text>
</g>
<!-- LayerNorm_2&#45;&gt;Graph_4 -->
<g id="edge8" class="edge">
<title>LayerNorm_2&#45;&gt;Graph_4</title>
<path fill="none" stroke="#2c3e50" d="M215,-2092.23C215,-2079 215,-2060.48 215,-2045.2"/>
<polygon fill="#2c3e50" stroke="#2c3e50" points="218.5,-2044.76 215,-2034.76 211.5,-2044.76 218.5,-2044.76"/>
</g>
<!-- meanMerge_5 -->
<g id="node7" class="node">
<title>meanMerge_5</title>
<polygon fill="#eaecee" stroke="black" points="212,-1940.54 130,-1940.54 130,-1904.54 212,-1904.54 212,-1940.54"/>
<text text-anchor="middle" x="171" y="-1919.74" font-family="Helvetica,sans-Serif" font-size="11.00">meanMerge</text>
</g>
<!-- Graph_3&#45;&gt;meanMerge_5 -->
<g id="edge9" class="edge">
<title>Graph_3&#45;&gt;meanMerge_5</title>
<path fill="none" stroke="#2c3e50" d="M125.53,-1998.23C133.9,-1984.48 145.74,-1965.04 155.24,-1949.44"/>
<polygon fill="#2c3e50" stroke="#2c3e50" points="158.3,-1951.13 160.51,-1940.76 152.32,-1947.49 158.3,-1951.13"/>
</g>
<!-- Graph_4&#45;&gt;meanMerge_5 -->
<g id="edge10" class="edge">
<title>Graph_4&#45;&gt;meanMerge_5</title>
<path fill="none" stroke="#2c3e50" d="M206.72,-1998.23C200.21,-1984.61 191.02,-1965.4 183.6,-1949.87"/>
<polygon fill="#2c3e50" stroke="#2c3e50" points="186.71,-1948.28 179.24,-1940.76 180.4,-1951.3 186.71,-1948.28"/>
</g>
<!-- Linear_6 -->
<g id="node8" class="node">
<title>Linear_6</title>
<polygon fill="#eaecee" stroke="black" points="198,-1846.54 144,-1846.54 144,-1810.54 198,-1810.54 198,-1846.54"/>
<text text-anchor="middle" x="171" y="-1825.74" font-family="Helvetica,sans-Serif" font-size="11.00">Linear</text>
</g>
<!-- meanMerge_5&#45;&gt;Linear_6 -->
<g id="edge11" class="edge">
<title>meanMerge_5&#45;&gt;Linear_6</title>
<path fill="none" stroke="#2c3e50" d="M171,-1904.23C171,-1891 171,-1872.48 171,-1857.2"/>
<polygon fill="#2c3e50" stroke="#2c3e50" points="174.5,-1856.76 171,-1846.76 167.5,-1856.76 174.5,-1856.76"/>
</g>
<!-- add_7 -->
<g id="node9" class="node">
<title>add_7</title>
<ellipse fill="#d5dbdb" stroke="black" cx="136" cy="-1730.29" rx="22.5" ry="22.5"/>
<text text-anchor="middle" x="136" y="-1727.49" font-family="Helvetica,sans-Serif" font-size="11.00">add</text>
</g>
<!-- meanMerge_5&#45;&gt;add_7 -->
<g id="edge12" class="edge">
<title>meanMerge_5&#45;&gt;add_7</title>
<path fill="none" stroke="#2c3e50" d="M150.48,-1904.34C143.18,-1896.94 135.84,-1887.65 132,-1877.54 117.65,-1839.72 122.7,-1792.37 128.57,-1761.97"/>
<polygon fill="#2c3e50" stroke="#2c3e50" points="132.04,-1762.48 130.65,-1751.97 125.18,-1761.05 132.04,-1762.48"/>
</g>
<!-- Linear_6&#45;&gt;add_7 -->
<g id="edge13" class="edge">
<title>Linear_6&#45;&gt;add_7</title>
<path fill="none" stroke="#2c3e50" d="M164.74,-1810.33C159.76,-1796.63 152.67,-1777.13 146.78,-1760.92"/>
<polygon fill="#2c3e50" stroke="#2c3e50" points="150,-1759.54 143.29,-1751.34 143.42,-1761.94 150,-1759.54"/>
</g>
<!-- Dropout_8 -->
<g id="node10" class="node">
<title>Dropout_8</title>
<polygon fill="#fadbd8" stroke="black" points="166.5,-1650.04 105.5,-1650.04 105.5,-1614.04 166.5,-1614.04 166.5,-1650.04"/>
<text text-anchor="middle" x="136" y="-1629.24" font-family="Helvetica,sans-Serif" font-size="11.00">Dropout</text>
</g>
<!-- add_7&#45;&gt;Dropout_8 -->
<g id="edge14" class="edge">
<title>add_7&#45;&gt;Dropout_8</title>
<path fill="none" stroke="#2c3e50" d="M136,-1707.93C136,-1693.93 136,-1675.51 136,-1660.44"/>
<polygon fill="#2c3e50" stroke="#2c3e50" points="139.5,-1660.17 136,-1650.17 132.5,-1660.17 139.5,-1660.17"/>
</g>
<!-- map_9 -->
<g id="node11" class="node">
<title>map_9</title>
<polygon fill="#a9cce3" stroke="black" points="256.03,-1556.04 65.09,-1556.04 15.97,-1492.04 206.91,-1492.04 256.03,-1556.04"/>
<text text-anchor="middle" x="136" y="-1527.24" font-family="Helvetica,sans-Serif" font-size="11.00">map</text>
<text text-anchor="middle" x="136" y="-1515.24" font-family="Helvetica,sans-Serif" font-size="11.00">body: Graph (sub)</text>
</g>
<!-- Dropout_8&#45;&gt;map_9 -->
<g id="edge15" class="edge">
<title>Dropout_8&#45;&gt;map_9</title>
<path fill="none" stroke="#2c3e50" d="M136,-1614.01C136,-1601.12 136,-1582.85 136,-1566.22"/>
<polygon fill="#2c3e50" stroke="#2c3e50" points="139.5,-1566.14 136,-1556.14 132.5,-1566.14 139.5,-1566.14"/>
</g>
<!-- reshapeModule_10 -->
<g id="node12" class="node">
<title>reshapeModule_10</title>
<polygon fill="#eaecee" stroke="black" points="188.5,-1434.04 87.5,-1434.04 87.5,-1398.04 188.5,-1398.04 188.5,-1434.04"/>
<text text-anchor="middle" x="138" y="-1413.24" font-family="Helvetica,sans-Serif" font-size="11.00">reshapeModule</text>
</g>
<!-- map_9&#45;&gt;reshapeModule_10 -->
<g id="edge16" class="edge">
<title>map_9&#45;&gt;reshapeModule_10</title>
<path fill="none" stroke="#2c3e50" d="M136.59,-1491.81C136.87,-1476.82 137.21,-1459.02 137.48,-1444.55"/>
<polygon fill="#2c3e50" stroke="#2c3e50" points="140.99,-1444.3 137.68,-1434.23 133.99,-1444.16 140.99,-1444.3"/>
</g>
<!-- map_11 -->
<g id="node13" class="node">
<title>map_11</title>
<polygon fill="#a9cce3" stroke="black" points="231.17,-1331.04 92.5,-1331.04 56.83,-1243.04 195.5,-1243.04 231.17,-1331.04"/>
<text text-anchor="middle" x="144" y="-1296.24" font-family="Helvetica,sans-Serif" font-size="11.00">map</text>
<text text-anchor="middle" x="144" y="-1284.24" font-family="Helvetica,sans-Serif" font-size="11.00">body: Linear</text>
<text text-anchor="middle" x="144" y="-1272.24" font-family="Helvetica,sans-Serif" font-size="11.00">#halves</text>
</g>
<!-- reshapeModule_10&#45;&gt;map_11 -->
<g id="edge17" class="edge">
<title>reshapeModule_10&#45;&gt;map_11</title>
<path fill="none" stroke="#2c3e50" d="M138.81,-1397.91C139.5,-1383.31 140.53,-1361.53 141.49,-1341.2"/>
<polygon fill="#2c3e50" stroke="#2c3e50" points="144.99,-1341.22 141.97,-1331.06 138,-1340.89 144.99,-1341.22"/>
</g>
<!-- map_12 -->
<g id="node14" class="node">
<title>map_12</title>
<polygon fill="#a9cce3" stroke="black" points="243.17,-1185.04 104.5,-1185.04 68.83,-1121.04 207.5,-1121.04 243.17,-1185.04"/>
<text text-anchor="middle" x="156" y="-1156.24" font-family="Helvetica,sans-Serif" font-size="11.00">map</text>
<text text-anchor="middle" x="156" y="-1144.24" font-family="Helvetica,sans-Serif" font-size="11.00">body: Linear</text>
</g>
<!-- map_11&#45;&gt;map_12 -->
<g id="edge18" class="edge">
<title>map_11&#45;&gt;map_12</title>
<path fill="none" stroke="#2c3e50" d="M147.93,-1242.82C149.32,-1227.54 150.87,-1210.42 152.25,-1195.31"/>
<polygon fill="#2c3e50" stroke="#2c3e50" points="155.75,-1195.5 153.17,-1185.22 148.77,-1194.86 155.75,-1195.5"/>
</g>
<!-- reshapeModule_13 -->
<g id="node15" class="node">
<title>reshapeModule_13</title>
<polygon fill="#eaecee" stroke="black" points="212.5,-1063.04 111.5,-1063.04 111.5,-1027.04 212.5,-1027.04 212.5,-1063.04"/>
<text text-anchor="middle" x="162" y="-1042.24" font-family="Helvetica,sans-Serif" font-size="11.00">reshapeModule</text>
</g>
<!-- map_12&#45;&gt;reshapeModule_13 -->
<g id="edge19" class="edge">
<title>map_12&#45;&gt;reshapeModule_13</title>
<path fill="none" stroke="#2c3e50" d="M157.77,-1120.81C158.62,-1105.82 159.62,-1088.02 160.44,-1073.55"/>
<polygon fill="#2c3e50" stroke="#2c3e50" points="163.96,-1073.41 161.03,-1063.23 156.97,-1073.02 163.96,-1073.41"/>
</g>
<!-- loop_14 -->
<g id="node16" class="node">
<title>loop_14</title>
<polygon fill="#d7bde2" stroke="black" points="227,-969.04 149,-969.04 145,-965.04 145,-933.04 223,-933.04 227,-937.04 227,-969.04"/>
<polyline fill="none" stroke="black" points="223,-965.04 145,-965.04 "/>
<polyline fill="none" stroke="black" points="223,-965.04 223,-933.04 "/>
<polyline fill="none" stroke="black" points="223,-965.04 227,-969.04 "/>
<text text-anchor="middle" x="186" y="-954.24" font-family="Helvetica,sans-Serif" font-size="11.00">Graph (sub)</text>
<text text-anchor="middle" x="186" y="-942.24" font-family="Helvetica,sans-Serif" font-size="11.00">#refined</text>
</g>
<!-- reshapeModule_13&#45;&gt;loop_14 -->
<g id="edge20" class="edge">
<title>reshapeModule_13&#45;&gt;loop_14</title>
<path fill="none" stroke="#2c3e50" d="M166.51,-1026.73C170,-1013.37 174.89,-994.63 178.9,-979.26"/>
<polygon fill="#2c3e50" stroke="#2c3e50" points="182.37,-979.82 181.51,-969.27 175.6,-978.06 182.37,-979.82"/>
</g>
<!-- loop_14&#45;&gt;softmaxRouter_15 -->
<g id="edge21" class="edge">
<title>loop_14&#45;&gt;softmaxRouter_15</title>
<path fill="none" stroke="#2c3e50" d="M203.68,-932.73C218.12,-918.6 238.72,-898.44 254.87,-882.63"/>
<polygon fill="#2c3e50" stroke="#2c3e50" points="257.7,-884.76 262.4,-875.27 252.8,-879.76 257.7,-884.76"/>
</g>
<!-- Linear_17 -->
<g id="node18" class="node">
<title>Linear_17</title>
<polygon fill="#eaecee" stroke="black" points="213,-875.04 159,-875.04 159,-839.04 213,-839.04 213,-875.04"/>
<text text-anchor="middle" x="186" y="-854.24" font-family="Helvetica,sans-Serif" font-size="11.00">Linear</text>
</g>
<!-- loop_14&#45;&gt;Linear_17 -->
<g id="edge23" class="edge">
<title>loop_14&#45;&gt;Linear_17</title>
<path fill="none" stroke="#2c3e50" d="M186,-932.73C186,-919.5 186,-900.99 186,-885.7"/>
<polygon fill="#2c3e50" stroke="#2c3e50" points="189.5,-885.26 186,-875.27 182.5,-885.27 189.5,-885.26"/>
</g>
<!-- Linear_16 -->
<g id="node19" class="node">
<title>Linear_16</title>
<polygon fill="#eaecee" stroke="black" points="141,-875.04 87,-875.04 87,-839.04 141,-839.04 141,-875.04"/>
<text text-anchor="middle" x="114" y="-854.24" font-family="Helvetica,sans-Serif" font-size="11.00">Linear</text>
</g>
<!-- loop_14&#45;&gt;Linear_16 -->
<g id="edge22" class="edge">
<title>loop_14&#45;&gt;Linear_16</title>
<path fill="none" stroke="#2c3e50" d="M171.46,-932.62C164.84,-924.59 156.94,-914.89 150,-906.04 144.27,-898.73 138.17,-890.69 132.65,-883.32"/>
<polygon fill="#2c3e50" stroke="#2c3e50" points="135.27,-880.98 126.49,-875.05 129.66,-885.16 135.27,-880.98"/>
</g>
<!-- switch_19 -->
<g id="node21" class="node">
<title>switch_19</title>
<polygon fill="#f5cba7" stroke="black" points="271,-580 169.6,-562 271,-544 372.4,-562 271,-580"/>
<text text-anchor="middle" x="271" y="-559.2" font-family="Helvetica,sans-Serif" font-size="11.00">heavyPathSelector</text>
</g>
<!-- loop_14&#45;&gt;switch_19 -->
<g id="edge29" class="edge">
<title>loop_14&#45;&gt;switch_19</title>
<path fill="none" stroke="#2980b9" stroke-dasharray="5,2" d="M227.06,-944.04C268.18,-937.09 327.26,-924.23 341,-906.04 370.3,-867.26 326.99,-722.75 308,-657 301.11,-633.15 290.53,-606.93 282.44,-588.26"/>
<polygon fill="#2980b9" stroke="#2980b9" points="285.59,-586.73 278.36,-578.98 279.18,-589.54 285.59,-586.73"/>
<text text-anchor="middle" x="363.5" y="-813.84" font-family="Helvetica,sans-Serif" font-size="9.00" fill="#2980b9">refined</text>
</g>
<!-- gated_merge_18 -->
<g id="node20" class="node">
<title>gated_merge_18</title>
<ellipse fill="#d5dbdb" stroke="black" cx="242" cy="-718.52" rx="53.54" ry="53.54"/>
<text text-anchor="middle" x="242" y="-715.72" font-family="Helvetica,sans-Serif" font-size="11.00">gated_merge</text>
</g>
<!-- softmaxRouter_15&#45;&gt;gated_merge_18 -->
<g id="edge24" class="edge">
<title>softmaxRouter_15&#45;&gt;gated_merge_18</title>
<path fill="none" stroke="#7f8c8d" d="M275.26,-839.02C271.12,-824.15 264.85,-801.62 258.87,-780.12"/>
<polygon fill="#7f8c8d" stroke="#7f8c8d" points="262.2,-779.04 256.15,-770.34 255.46,-780.91 262.2,-779.04"/>
</g>
<!-- Linear_17&#45;&gt;gated_merge_18 -->
<g id="edge26" class="edge">
<title>Linear_17&#45;&gt;gated_merge_18</title>
<path fill="none" stroke="#7f8c8d" d="M192.98,-839.02C199.32,-823.58 209.04,-799.88 218.16,-777.64"/>
<polygon fill="#7f8c8d" stroke="#7f8c8d" points="221.46,-778.81 222.02,-768.23 214.98,-776.16 221.46,-778.81"/>
</g>
<!-- Linear_16&#45;&gt;gated_merge_18 -->
<g id="edge25" class="edge">
<title>Linear_16&#45;&gt;gated_merge_18</title>
<path fill="none" stroke="#7f8c8d" d="M129.95,-839.02C147.09,-820.74 175.07,-790.91 198.78,-765.62"/>
<polygon fill="#7f8c8d" stroke="#7f8c8d" points="201.37,-767.97 205.66,-758.28 196.26,-763.18 201.37,-767.97"/>
</g>
<!-- gated_merge_18&#45;&gt;switch_19 -->
<g id="edge28" class="edge">
<title>gated_merge_18&#45;&gt;switch_19</title>
<path fill="none" stroke="#2c3e50" d="M251.74,-665.64C256.53,-640.1 262.1,-610.41 266.02,-589.55"/>
<polygon fill="#2c3e50" stroke="#2c3e50" points="269.5,-589.99 267.9,-579.51 262.62,-588.7 269.5,-589.99"/>
</g>
<!-- switch_19_b0 -->
<g id="node22" class="node">
<title>switch_19_b0</title>
<polygon fill="#eaecee" stroke="black" points="252,-498 182,-498 182,-462 252,-462 252,-498"/>
<text text-anchor="middle" x="217" y="-477.2" font-family="Helvetica,sans-Serif" font-size="11.00">[0] Linear</text>
</g>
<!-- switch_19&#45;&gt;switch_19_b0 -->
<g id="edge1" class="edge">
<title>switch_19&#45;&gt;switch_19_b0</title>
<path fill="none" stroke="#e67e22" stroke-dasharray="5,2" d="M260.59,-545.58C253.12,-534.51 242.88,-519.34 234.21,-506.49"/>
<polygon fill="#e67e22" stroke="#e67e22" points="237,-504.37 228.5,-498.04 231.2,-508.29 237,-504.37"/>
<text text-anchor="middle" x="250.5" y="-518.8" font-family="Helvetica,sans-Serif" font-size="9.00" fill="#e67e22">0</text>
</g>
<!-- switch_19_b1 -->
<g id="node23" class="node">
<title>switch_19_b1</title>
<polygon fill="#d6eaf8" stroke="black" points="371.5,-498 270.5,-498 270.5,-462 371.5,-462 371.5,-498"/>
<text text-anchor="middle" x="321" y="-477.2" font-family="Helvetica,sans-Serif" font-size="11.00">[1] Graph (sub)</text>
</g>
<!-- switch_19&#45;&gt;switch_19_b1 -->
<g id="edge3" class="edge">
<title>switch_19&#45;&gt;switch_19_b1</title>
<path fill="none" stroke="#e67e22" stroke-dasharray="5,2" d="M280.64,-545.58C287.49,-534.61 296.85,-519.63 304.84,-506.86"/>
<polygon fill="#e67e22" stroke="#e67e22" points="308.02,-508.37 310.35,-498.04 302.08,-504.66 308.02,-508.37"/>
<text text-anchor="middle" x="301.5" y="-518.8" font-family="Helvetica,sans-Serif" font-size="9.00" fill="#e67e22">1</text>
</g>
<!-- switch_19_out -->
<g id="node24" class="node">
<title>switch_19_out</title>
<ellipse fill="#d5dbdb" stroke="black" cx="321" cy="-419.5" rx="5.5" ry="5.5"/>
</g>
<!-- switch_19_b0&#45;&gt;switch_19_out -->
<g id="edge2" class="edge">
<title>switch_19_b0&#45;&gt;switch_19_out</title>
<path fill="none" stroke="#7f8c8d" d="M247.36,-461.92C267.24,-450.74 292.25,-436.67 307.41,-428.14"/>
<polygon fill="#7f8c8d" stroke="#7f8c8d" points="309.5,-430.99 316.5,-423.03 306.07,-424.89 309.5,-430.99"/>
</g>
<!-- switch_19_b1&#45;&gt;switch_19_out -->
<g id="edge4" class="edge">
<title>switch_19_b1&#45;&gt;switch_19_out</title>
<path fill="none" stroke="#7f8c8d" d="M321,-461.76C321,-453.35 321,-443.33 321,-435.27"/>
<polygon fill="#7f8c8d" stroke="#7f8c8d" points="324.5,-435.01 321,-425.01 317.5,-435.01 324.5,-435.01"/>
</g>
<!-- switch_19_out&#45;&gt;stateAdd_20 -->
<g id="edge30" class="edge">
<title>switch_19_out&#45;&gt;stateAdd_20</title>
<path fill="none" stroke="#2c3e50" d="M323.75,-414.38C330.37,-404.44 347.66,-378.51 360.95,-358.57"/>
<polygon fill="#2c3e50" stroke="#2c3e50" points="363.91,-360.45 366.54,-350.18 358.09,-356.56 363.91,-360.45"/>
</g>
<!-- stateAdd_20&#45;&gt;state_read_memory_21 -->
<g id="edge35" class="edge">
<title>stateAdd_20&#45;&gt;state_read_memory_21</title>
<path fill="none" stroke="#e67e22" stroke-dasharray="1,5" d="M393.22,-350.03C403.12,-362.37 415.08,-379.98 420,-398 534.94,-819.2 451.18,-943.48 445,-1380.04 439.44,-1772.38 484.48,-1875.49 420,-2262.54 418.95,-2268.84 417.24,-2275.49 415.36,-2281.68"/>
<polygon fill="#e67e22" stroke="#e67e22" points="411.92,-2280.94 412.14,-2291.53 418.58,-2283.11 411.92,-2280.94"/>
<text text-anchor="middle" x="477" y="-1372.84" font-family="Helvetica,sans-Serif" font-size="9.00" fill="#e67e22">state:memory</text>
</g>
<!-- loop_22 -->
<g id="node26" class="node">
<title>loop_22</title>
<polygon fill="#d7bde2" stroke="black" points="432,-256 328,-256 324,-252 324,-212 428,-212 432,-216 432,-256"/>
<polyline fill="none" stroke="black" points="428,-252 324,-252 "/>
<polyline fill="none" stroke="black" points="428,-252 428,-212 "/>
<polyline fill="none" stroke="black" points="428,-252 432,-256 "/>
<text text-anchor="middle" x="378" y="-243.2" font-family="Helvetica,sans-Serif" font-size="11.00">loop</text>
<text text-anchor="middle" x="378" y="-231.2" font-family="Helvetica,sans-Serif" font-size="11.00">body: Linear</text>
<text text-anchor="middle" x="378" y="-219.2" font-family="Helvetica,sans-Serif" font-size="11.00">cond: threshHalt</text>
</g>
<!-- stateAdd_20&#45;&gt;loop_22 -->
<g id="edge32" class="edge">
<title>stateAdd_20&#45;&gt;loop_22</title>
<path fill="none" stroke="#2c3e50" d="M378,-313.84C378,-300.69 378,-282.19 378,-266.42"/>
<polygon fill="#2c3e50" stroke="#2c3e50" points="381.5,-266.03 378,-256.03 374.5,-266.03 381.5,-266.03"/>
</g>
<!-- loop_23 -->
<g id="node27" class="node">
<title>loop_23</title>
<polygon fill="#d7bde2" stroke="black" points="432,-154 328,-154 324,-150 324,-110 428,-110 432,-114 432,-154"/>
<polyline fill="none" stroke="black" points="428,-150 324,-150 "/>
<polyline fill="none" stroke="black" points="428,-150 428,-110 "/>
<polyline fill="none" stroke="black" points="428,-150 432,-154 "/>
<text text-anchor="middle" x="378" y="-141.2" font-family="Helvetica,sans-Serif" font-size="11.00">loop</text>
<text text-anchor="middle" x="378" y="-129.2" font-family="Helvetica,sans-Serif" font-size="11.00">body: Linear</text>
<text text-anchor="middle" x="378" y="-117.2" font-family="Helvetica,sans-Serif" font-size="11.00">cond: threshHalt</text>
</g>
<!-- loop_22&#45;&gt;loop_23 -->
<g id="edge33" class="edge">
<title>loop_22&#45;&gt;loop_23</title>
<path fill="none" stroke="#2c3e50" d="M378,-211.79C378,-198 378,-179.78 378,-164.34"/>
<polygon fill="#2c3e50" stroke="#2c3e50" points="381.5,-164.18 378,-154.18 374.5,-164.18 381.5,-164.18"/>
</g>
<!-- Linear_24 -->
<g id="node28" class="node">
<title>Linear_24</title>
<polygon fill="#a9dfbf" stroke="black" points="415.33,-39.56 378,-52 340.67,-39.56 340.7,-19.44 415.3,-19.44 415.33,-39.56"/>
<text text-anchor="middle" x="378" y="-31.2" font-family="Helvetica,sans-Serif" font-size="11.00">Linear</text>
</g>
<!-- loop_23&#45;&gt;Linear_24 -->
<g id="edge34" class="edge">
<title>loop_23&#45;&gt;Linear_24</title>
<path fill="none" stroke="#2c3e50" d="M378,-109.69C378,-95.74 378,-77.36 378,-62.33"/>
<polygon fill="#2c3e50" stroke="#2c3e50" points="381.5,-62.09 378,-52.09 374.5,-62.09 381.5,-62.09"/>
</g>
</g>
</svg>
